SplineFontDB: 3.0
FontName: HiBdObl
FullName: Hi. Bold Oblique
FamilyName: Hi.
Weight: Bold
Copyright: Copyright (c) 2015, Mew Too/Cannot Into Space Fonts, All Rights Reserved.
Version: 1.996
ItalicAngle: 0
UnderlinePosition: -100
UnderlineWidth: 50
Ascent: 800
Descent: 200
InvalidEm: 0
sfntRevision: 0x0001fefa
LayerCount: 2
Layer: 0 0 "Back" 1
Layer: 1 0 "Fore" 0
XUID: [1021 604 120746000 20667]
StyleMap: 0x0000
FSType: 0
OS2Version: 4
OS2_WeightWidthSlopeOnly: 0
OS2_UseTypoMetrics: 1
CreationTime: 1421008990
ModificationTime: 1424211177
PfmFamily: 17
TTFWeight: 400
TTFWidth: 5
LineGap: 90
VLineGap: 0
Panose: 2 0 5 3 0 0 0 0 0 0
OS2TypoAscent: 800
OS2TypoAOffset: 0
OS2TypoDescent: -200
OS2TypoDOffset: 0
OS2TypoLinegap: 90
OS2WinAscent: 813
OS2WinAOffset: 0
OS2WinDescent: 184
OS2WinDOffset: 0
HheadAscent: 813
HheadAOffset: 0
HheadDescent: -184
HheadDOffset: 0
OS2SubXSize: 650
OS2SubYSize: 699
OS2SubXOff: 0
OS2SubYOff: 140
OS2SupXSize: 650
OS2SupYSize: 699
OS2SupXOff: 0
OS2SupYOff: 479
OS2StrikeYSize: 49
OS2StrikeYPos: 258
OS2CapHeight: 616
OS2XHeight: 585
OS2FamilyClass: 2063
OS2Vendor: 'CiSf'
OS2CodePages: 00000001.00000000
OS2UnicodeRanges: 0000002f.10000000.00000000.00000000
Lookup: 3 0 0 "'salt' Stylistic Alternatives in Latin lookup 0" { "'salt' Stylistic Alternatives in Latin lookup 0 subtable"  } ['salt' ('DFLT' <'dflt' > 'latn' <'dflt' > ) ]
Lookup: 4 0 1 "'liga' Standard Ligatures lookup 1" { "'liga' Standard Ligatures lookup 1 subtable"  } ['liga' ('DFLT' <'dflt' > ) ]
Lookup: 258 0 0 "'kern' Horizontal Kerning lookup 0" { "'kern' Horizontal Kerning lookup 0 subtable"  } ['kern' ('DFLT' <'dflt' > 'arab' <'dflt' > 'latn' <'dflt' > ) ]
MarkAttachClasses: 1
DEI: 91125

StartChar: .notdef
Encoding: 65536 -1 0
Width: 566
Flags: MW
HStem: -5 60<108.275 398.275 108.275 449.843> 478 60<167.725 457.725 167.725 167.725>
LayerCount: 2
Back
Fore
SplineSet
39.8427734375 -5 m 1
 116.157226562 538 l 1
 526.157226562 538 l 1
 449.842773438 -5 l 1
 39.8427734375 -5 l 1
108.275390625 55 m 1
 398.275390625 55 l 1
 457.724609375 478 l 1
 167.724609375 478 l 1
 108.275390625 55 l 1
EndSplineSet
EndChar

StartChar: space
Encoding: 32 32 1
Width: 116
GlyphClass: 2
Flags: MW
HStem: 397 10<53.7031 62.2969 52.2969 63.7031>
VStem: 52.2969 10<397 397>
LayerCount: 2
Back
Fore
SplineSet
53.703125 407 m 1
 63.703125 407 l 1
 62.296875 397 l 1
 52.296875 397 l 1
 53.703125 407 l 1
EndSplineSet
EndChar

StartChar: exclam
Encoding: 33 33 2
Width: 243
GlyphClass: 2
Flags: MW
HStem: -5.25 102.5<82.3022 95.895>
VStem: 40.3818 162.595
LayerCount: 2
Back
Fore
SplineSet
40.3818359375 46 m 0
 44.236328125 73.4267578125 68.26953125 97.25 96.3349609375 97.25 c 0
 124.267578125 97.25 143.013671875 73.619140625 139.131835938 46 c 0
 135.25 18.380859375 109.861328125 -5.25 81.9287109375 -5.25 c 0
 53.86328125 -5.25 36.52734375 18.5732421875 40.3818359375 46 c 0
202.9765625 552.071289062 m 2
 147.3125 156 l 2
 144.659179688 137.125 123.163085938 123 100.624023438 123 c 0
 78.0498046875 123 60.587890625 137.333984375 63.2119140625 155.997070312 c 0
 63.2236328125 156.076171875 118.771484375 551.6953125 118.8671875 552.098632812 c 0
 122.41796875 572.094726562 143.366210938 585 165.5546875 585 c 0
 188.204101562 585 205.0703125 570.7421875 202.9765625 552.071289062 c 2
EndSplineSet
EndChar

StartChar: quotedbl
Encoding: 34 34 3
Width: 350
GlyphClass: 2
Flags: MW
HStem: 548.48 13.5273 602.5 102.5<118.92 121.347 239.92 242.347>
VStem: 77 97.1328 198 97.1328
LayerCount: 2
Back
Fore
SplineSet
295.1328125 582.061523438 m 0
 287.250976562 565.430664062 236.366210938 556.971679688 201.924804688 552.541992188 c 2
 170.341796875 548.48046875 l 1
 200.444335938 562.0078125 l 2
 229.625976562 575.122070312 249.284179688 580.522460938 255.814453125 605.17578125 c 1
 250.138671875 603.32421875 245.146484375 602.5 239.546875 602.5 c 0
 211.482421875 602.5 194.145507812 626.323242188 198 653.75 c 0
 201.854492188 681.176757812 225.887695312 705 253.952148438 705 c 0
 282.271484375 705 300.040039062 680.848632812 296.833984375 654.36328125 c 1
 299.032226562 633.740234375 305.047851562 600.943359375 295.1328125 582.061523438 c 0
174.1328125 582.061523438 m 0
 166.250976562 565.430664062 115.366210938 556.971679688 80.9248046875 552.541992188 c 2
 49.341796875 548.48046875 l 1
 79.4443359375 562.0078125 l 2
 108.625976562 575.122070312 128.284179688 580.522460938 134.814453125 605.17578125 c 1
 129.138671875 603.32421875 124.146484375 602.5 118.546875 602.5 c 0
 90.482421875 602.5 73.1455078125 626.323242188 77 653.75 c 0
 80.8544921875 681.176757812 104.887695312 705 132.952148438 705 c 0
 161.271484375 705 179.040039062 680.848632812 175.833984375 654.36328125 c 1
 178.032226562 633.740234375 184.047851562 600.943359375 174.1328125 582.061523438 c 0
EndSplineSet
EndChar

StartChar: numbersign
Encoding: 35 35 4
Width: 813
GlyphClass: 2
Flags: MW
HStem: 166.963 79.5195<189.311 229.732> 338.668 79.4814<579.438 619.86>
LayerCount: 2
Back
Fore
SplineSet
706.4140625 588.33203125 m 2
 619.860351562 418.149414062 l 1
 734.025390625 417.73828125 l 2
 752.826171875 417.670898438 771.094726562 400.78125 775.842773438 379.526367188 c 0
 777.029296875 374.217773438 777.244140625 369.091796875 776.556640625 364.3046875 c 0
 774.419921875 349.4140625 762.971679688 338.052734375 748.142578125 338.107421875 c 2
 579.4375 338.66796875 l 1
 532 245.395507812 l 1
 663.416015625 244.921875 l 2
 682.215820312 244.854492188 700.484375 227.96484375 705.232421875 206.709960938 c 0
 706.418945312 201.401367188 706.634765625 196.275390625 705.947265625 191.48828125 c 0
 703.809570312 176.59765625 692.362304688 165.236328125 677.533203125 165.291015625 c 2
 491.57421875 165.909179688 l 1
 420.556640625 26.2734375 l 2
 411.579101562 8.6201171875 386.733398438 -5 364.114257812 -5 c 0
 358.46484375 -5 353.450195312 -4.1259765625 349.190429688 -2.4755859375 c 0
 335.934570312 2.66015625 330.475585938 15.802734375 337.557617188 29.7255859375 c 2
 406.920898438 166.196289062 l 1
 360.3125 166.35546875 315.520507812 166.510742188 273.954101562 166.657226562 c 1
 202.556640625 26.2734375 l 2
 193.579101562 8.6201171875 168.733398438 -5 146.114257812 -5 c 0
 140.46484375 -5 135.450195312 -4.1259765625 131.190429688 -2.4755859375 c 0
 117.934570312 2.66015625 112.475585938 15.802734375 119.557617188 29.7255859375 c 2
 189.310546875 166.962890625 l 1
 121.16015625 167.215820312 80.0205078125 167.366210938 79.1005859375 167.427734375 c 0
 58.7021484375 168.120117188 41.8701171875 184.600585938 37.1650390625 205.657226562 c 0
 36.064453125 210.579101562 35.79296875 215.327148438 36.30078125 219.791992188 c 0
 38.0478515625 235.149414062 49.541015625 246.747070312 64.8037109375 247.076171875 c 2
 229.732421875 246.482421875 l 1
 277.131835938 339.716796875 l 1
 199.985351562 339.998046875 150.532226562 340.184570312 149.665039062 340.245117188 c 0
 129.350585938 340.935546875 112.478515625 357.422851562 107.775390625 378.473632812 c 0
 106.674804688 383.395507812 106.40234375 388.143554688 106.911132812 392.608398438 c 0
 108.658203125 407.965820312 120.151367188 419.563476562 135.413085938 419.892578125 c 2
 317.56640625 419.237304688 l 1
 367.838867188 518.091796875 404.791992188 590.756835938 405.37890625 591.741210938 c 0
 415.58984375 610.538085938 439.435546875 623 461.827148438 623 c 0
 467.065429688 623 471.745117188 622.258789062 475.782226562 620.844726562 c 0
 489.668945312 615.977539062 495.334960938 602.743164062 488.4140625 588.33203125 c 2
 402.259765625 418.932617188 l 1
 535.16796875 418.454101562 l 1
 585.623046875 517.66796875 622.79296875 590.759765625 623.37890625 591.741210938 c 0
 633.58984375 610.538085938 657.435546875 623 679.827148438 623 c 0
 685.065429688 623 689.745117188 622.258789062 693.782226562 620.844726562 c 0
 707.668945312 615.977539062 713.290039062 602.650390625 706.4140625 588.33203125 c 2
361.81640625 339.413085938 m 1
 314.399414062 246.178710938 l 1
 447.3359375 245.69921875 l 1
 494.744140625 338.954101562 l 1
 448.869140625 339.110351562 403.96484375 339.265625 361.81640625 339.413085938 c 1
EndSplineSet
AlternateSubs2: "'salt' Stylistic Alternatives in Latin lookup 0 subtable" uniE008
EndChar

StartChar: dollar
Encoding: 36 36 5
Width: 588
GlyphClass: 2
Flags: MW
HStem: 72.4688 65.5742<51.0688 67.8486> 260.777 66.3076<329.417 338.736> 447 64.6709<355.589 364.679>
LayerCount: 2
Back
Fore
SplineSet
329.416992188 260.77734375 m 1
 312.33203125 139.2109375 l 1
 384.455078125 144.158203125 436.702148438 164.782226562 443.799804688 215.28125 c 0
 444.220703125 218.274414062 445.920898438 220.405273438 446.822265625 226.634765625 c 0
 448.611328125 239.004882812 446.91796875 261.111328125 395.602539062 261.037109375 c 2
 394.853515625 261.036132812 l 2
 392.176757812 261.810546875 364.944335938 260.915039062 329.416992188 260.77734375 c 1
250.604492188 326.861328125 m 1
 256.73828125 370.55859375 262.495117188 411.524414062 267.586914062 447.751953125 c 1
 198.393554688 441.442382812 151.463867188 420.612304688 144.680664062 372.349609375 c 0
 144.264648438 369.385742188 142.670898438 367.450195312 141.729492188 361.467773438 c 0
 139.782226562 349.086914062 140.973632812 326.455078125 192.850585938 326.59375 c 2
 192.850585938 326.59375 215.35546875 326.732421875 250.604492188 326.861328125 c 1
371.05859375 557.071289062 m 2
 364.678710938 511.670898438 l 1
 469.149414062 511.56640625 528.124023438 511.16796875 529.302734375 511.16015625 c 0
 544.395507812 511.16015625 553.158203125 496.022460938 550.776367188 479.071289062 c 0
 548.393554688 462.118164062 535.391601562 446.981445312 520.265625 446.981445312 c 2
 520.265625 446.981445312 434.342773438 446.995117188 355.588867188 447 c 1
 338.736328125 327.084960938 l 1
 360.381835938 327.1171875 381.134765625 327.134765625 404.884765625 327.134765625 c 0
 414.571289062 327.134765625 424.482421875 327.5078125 434.391601562 327.509765625 c 0
 482.569335938 327.515625 529.9140625 316.75 515.653320312 215.28125 c 0
 500.180664062 105.184570312 410.705078125 77.0263671875 302.97265625 72.6123046875 c 1
 296.703125 28 l 2
 294.049804688 9.125 271.645507812 -5 248.057617188 -5 c 0
 224.43359375 -5 206.065429688 9.333984375 208.689453125 27.998046875 c 2
 214.8515625 71.95703125 l 1
 117.65625 72.072265625 58.9111328125 72.466796875 58.615234375 72.46875 c 0
 43.5224609375 72.46875 34.8056640625 87.935546875 37.240234375 105.255859375 c 0
 39.6748046875 122.578125 52.72265625 138.04296875 67.8486328125 138.04296875 c 2
 224.11328125 138.024414062 l 1
 241.295898438 260.540039062 l 1
 221.907226562 260.51171875 204.166992188 260.49609375 183.595703125 260.49609375 c 0
 173.909179688 260.49609375 163.998046875 260.123046875 154.088867188 260.12109375 c 0
 105.911132812 260.115234375 58.5419921875 270.702148438 72.56640625 370.489257812 c 0
 87.3857421875 475.935546875 172.677734375 504.985351562 276.407226562 510.404296875 c 1
 280.724609375 541.001953125 282.868164062 556.169921875 282.868164062 556.169921875 c 2
 286.760742188 577.873046875 308.448242188 590 331.6796875 590 c 0
 355.383789062 590 373.127929688 575.7421875 371.05859375 557.071289062 c 2
EndSplineSet
EndChar

StartChar: percent
Encoding: 37 37 6
Width: 610
GlyphClass: 2
Flags: MW
HStem: -5.44043 68.2041<402.658 435.843 402.658 444.995> 170.436 68.2041<417.791 450.976> 378.92 68.2041<161.123 194.308 161.123 204.082> 549.796 68.2041<175.553 208.738>
LayerCount: 2
Back
Fore
SplineSet
177.505859375 447.124023438 m 0
 211.109375 447.124023438 241.461914062 471.62109375 245.233398438 498.459960938 c 0
 249.005859375 525.298828125 225.541015625 549.795898438 191.935546875 549.795898438 c 0
 159.170898438 549.795898438 129.68359375 525.298828125 125.911132812 498.459960938 c 0
 122.139648438 471.62109375 144.739257812 447.124023438 177.505859375 447.124023438 c 0
201.521484375 618 m 0
 273.84375 618 325.552734375 564.627929688 316.252929688 498.459960938 c 0
 306.954101562 432.291992188 240.243164062 378.919921875 167.920898438 378.919921875 c 0
 97.681640625 378.919921875 47.8759765625 432.291992188 57.1748046875 498.459960938 c 0
 66.474609375 564.627929688 131.282226562 618 201.521484375 618 c 0
434.592773438 170.435546875 m 0
 400.989257812 170.435546875 370.469726562 144.74609375 366.513671875 116.599609375 c 0
 362.55859375 88.453125 385.85546875 62.763671875 419.4609375 62.763671875 c 0
 452.225585938 62.763671875 481.880859375 88.453125 485.8359375 116.599609375 c 0
 489.791992188 144.74609375 467.359375 170.435546875 434.592773438 170.435546875 c 0
409.875 -5.4404296875 m 0
 337.552734375 -5.4404296875 286.000976562 49.046875 295.494140625 116.599609375 c 0
 304.98828125 184.151367188 371.856445312 238.639648438 444.178710938 238.639648438 c 0
 514.41796875 238.639648438 564.06640625 184.15234375 554.572265625 116.599609375 c 0
 545.079101562 49.0478515625 480.114257812 -5.4404296875 409.875 -5.4404296875 c 0
564.024414062 614.057617188 m 0
 574.702148438 607.65625 574.540039062 594.424804688 565.693359375 582.3984375 c 2
 126.8671875 20.3544921875 l 2
 113.64453125 3.5029296875 85.9658203125 -10 63.310546875 -10 c 0
 55.9208984375 -10 49.8310546875 -8.5205078125 45.3388671875 -5.560546875 c 0
 35.294921875 1.056640625 35.5947265625 14.0126953125 44.48046875 25.6435546875 c 0
 44.525390625 25.701171875 482.935546875 587.3125 483.303710938 587.719726562 c 0
 497.875976562 605.52734375 524.33203125 618 546.83203125 618 c 0
 553.825195312 618 559.626953125 616.6953125 564.024414062 614.057617188 c 0
EndSplineSet
EndChar

StartChar: ampersand
Encoding: 38 38 7
Width: 846
GlyphClass: 2
Flags: MW
HStem: -5 84.0996<65.5342 560.229> 247.633 84.167 358.984 84.1152 500.426 84.7959<406.4 509.527>
LayerCount: 2
Back
Fore
SplineSet
268.016601562 331.799804688 m 2
 274.749023438 332.288085938 281.4765625 332.521484375 288.569335938 332.521484375 c 0
 441.150390625 332.521484375 450.87109375 331.895507812 451.651367188 331.810546875 c 0
 471.392578125 331.075195312 481.676757812 311.936523438 478.55859375 289.75 c 0
 475.319335938 266.700195312 458.520507812 248.37890625 439.7734375 247.6875 c 0
 438.392578125 247.551757812 349.252929688 247.59765625 270.927734375 247.6328125 c 0
 184.530273438 244.810546875 189.512695312 175.66015625 147.950195312 79.099609375 c 1
 560.228515625 79.099609375 l 1
 569.0859375 142.392578125 586.221679688 264.7109375 599.501953125 358.913085938 c 1
 500.137695312 358.897460938 417.6171875 358.889648438 416.579101562 358.984375 c 0
 396.615234375 359.728515625 386.431640625 378.860351562 389.55078125 401.049804688 c 0
 392.733398438 423.69921875 409.643554688 442.569335938 428.388671875 443.099609375 c 2
 639.143554688 443.099609375 l 2
 644.508789062 444.521484375 648.618164062 445.049804688 653.734375 445.049804688 c 0
 658.663085938 445.049804688 664.771484375 443.952148438 667.729492188 443.099609375 c 2
 780.459960938 443.099609375 l 2
 799.334960938 443.099609375 810.717773438 423.588867188 807.55078125 401.049804688 c 0
 804.377929688 378.475585938 787.305664062 358.999023438 768.64453125 359 c 2
 683.682617188 358.935546875 l 1
 638.444335938 37.0498046875 l 2
 635.205078125 14 618.428710938 -4.3203125 599.62890625 -5.0146484375 c 0
 597.228515625 -5.2412109375 65.583984375 -5 65.5341796875 -5 c 0
 46.8681640625 -5.0009765625 35.2724609375 14.4814453125 38.4443359375 37.0498046875 c 0
 51.4794921875 129.80078125 77.87890625 213.876953125 128.38671875 267.706054688 c 1
 125.92578125 275.120117188 125.409179688 281.57421875 126.55859375 289.75 c 0
 149.456054688 452.674804688 301.450195312 585.221679688 465.68359375 585.221679688 c 0
 588.374023438 585.221679688 603.247070312 585.3046875 606.313476562 584.353515625 c 0
 625.236328125 582.217773438 633.692382812 563.931640625 630.672851562 542.450195312 c 0
 627.50390625 519.904296875 610.645507812 500.400390625 591.758789062 500.400390625 c 2
 591.758789062 500.400390625 565.287109375 500.42578125 453.766601562 500.42578125 c 0
 359.033203125 500.42578125 280.442382812 426.045898438 236.188476562 331.799804688 c 1
 268.016601562 331.799804688 l 2
EndSplineSet
EndChar

StartChar: quotesingle
Encoding: 39 39 8
Width: 229
GlyphClass: 2
Flags: MW
HStem: 548.48 13.5273 602.5 102.5<118.92 121.347>
VStem: 77 97.1328
LayerCount: 2
Back
Fore
SplineSet
174.1328125 582.061523438 m 0
 166.250976562 565.430664062 115.366210938 556.971679688 80.9248046875 552.541992188 c 2
 49.341796875 548.48046875 l 1
 79.4443359375 562.0078125 l 2
 108.625976562 575.122070312 128.284179688 580.522460938 134.814453125 605.17578125 c 1
 129.138671875 603.32421875 124.146484375 602.5 118.546875 602.5 c 0
 90.482421875 602.5 73.1455078125 626.323242188 77 653.75 c 0
 80.8544921875 681.176757812 104.887695312 705 132.952148438 705 c 0
 161.271484375 705 179.040039062 680.848632812 175.833984375 654.36328125 c 1
 178.032226562 633.740234375 184.047851562 600.943359375 174.1328125 582.061523438 c 0
EndSplineSet
EndChar

StartChar: parenleft
Encoding: 40 40 9
Width: 445
GlyphClass: 2
Flags: MW
HStem: -5.17188 10.5947 575.177 10.5947
LayerCount: 2
Back
Fore
SplineSet
269.655273438 5.4228515625 m 1
 282.765625 5.35546875 299.0078125 5.263671875 309.458984375 5.171875 c 0
 310.658203125 5.1611328125 325.635742188 8.806640625 324.399414062 0.0087890625 c 0
 323.095703125 -9.2705078125 294.881835938 -5.171875 246.89453125 -5.171875 c 0
 81.7294921875 -5.171875 22.12109375 128.78515625 44.8203125 290.299804688 c 0
 67.51953125 451.814453125 164.78125 585.771484375 329.946289062 585.771484375 c 0
 383.649414062 585.771484375 400.448242188 586.331054688 403.263671875 585.329101562 c 0
 410.588867188 582.719726562 389.603515625 575.427734375 389.603515625 575.427734375 c 1
 379.125976562 575.3359375 362.858398438 575.244140625 349.729492188 575.176757812 c 1
 355.737304688 567.2890625 358.717773438 555.685546875 356.938476562 543.025390625 c 0
 353.76953125 520.479492188 336.90625 500.975585938 318.028320312 500.975585938 c 0
 210.674804688 500.975585938 153.899414062 408.473632812 137.291015625 290.299804688 c 0
 120.682617188 172.126953125 151.4609375 79.6240234375 258.811523438 79.6240234375 c 0
 277.686523438 79.6240234375 289.069335938 60.1142578125 285.901367188 37.57421875 c 0
 284.122070312 24.9140625 277.880859375 13.310546875 269.655273438 5.4228515625 c 1
EndSplineSet
EndChar

StartChar: parenright
Encoding: 41 41 10
Width: 445
GlyphClass: 2
Flags: MW
HStem: -5.17188 10.5947
LayerCount: 2
Back
Fore
SplineSet
95.271484375 5.4228515625 m 1
 88.2509765625 14.640625 86.2392578125 24.607421875 88.0615234375 37.57421875 c 0
 91.23046875 60.1201171875 108.09375 79.6240234375 126.971679688 79.6240234375 c 0
 234.325195312 79.6240234375 291.100585938 172.125976562 307.708984375 290.299804688 c 0
 324.317382812 408.47265625 293.540039062 500.975585938 186.188476562 500.975585938 c 0
 167.313476562 500.975585938 155.930664062 520.485351562 159.098632812 543.025390625 c 0
 160.877929688 555.685546875 167.12109375 567.2890625 175.345703125 575.176757812 c 1
 159.491210938 575.2578125 119.35546875 571.729492188 120.600585938 580.590820312 c 0
 121.904296875 589.870117188 150.119140625 585.771484375 198.106445312 585.771484375 c 0
 363.271484375 585.771484375 422.87890625 451.814453125 400.1796875 290.299804688 c 0
 377.48046875 128.78515625 280.220703125 -5.171875 115.0546875 -5.171875 c 0
 61.3525390625 -5.171875 44.552734375 -5.7314453125 41.736328125 -4.7294921875 c 0
 34.4111328125 -2.1201171875 55.3974609375 5.171875 55.3974609375 5.171875 c 1
 65.875 5.263671875 82.1435546875 5.35546875 95.271484375 5.4228515625 c 1
EndSplineSet
EndChar

StartChar: asterisk
Encoding: 42 42 11
Width: 349
GlyphClass: 2
Flags: MW
HStem: 602.58 39.6777<225.17 244.426 225.17 284.18 219.61 244.426>
VStem: 45.8936 257.199<622 622>
LayerCount: 2
Back
Fore
SplineSet
210.120117188 734.872070312 m 2
 201.045898438 670.302734375 l 1
 232.126953125 697.555664062 251.682617188 714.731445312 253.907226562 716.56640625 c 0
 262.763671875 723.396484375 271.935546875 719.2578125 276.89453125 714.126953125 c 0
 282.489257812 708.338867188 286.828125 696.744140625 277.244140625 687.915039062 c 2
 225.169921875 642.2578125 l 1
 263.682617188 642.2578125 288.045898438 642.280273438 290.59375 642.193359375 c 0
 300.263671875 641.278320312 304.447265625 632.040039062 303.092773438 622.400390625 c 0
 301.671875 612.290039062 294.000976562 602.858398438 284.1796875 602.580078125 c 2
 219.610351562 602.580078125 l 1
 243.033203125 575.329101562 257.799804688 558.1875 259.358398438 556.220703125 c 0
 265.078125 548.32421875 259.569335938 538.5703125 253.639648438 532.890625 c 0
 246.951171875 526.482421875 234.517578125 520.513671875 226.861328125 528.856445312 c 2
 187.588867188 574.55078125 l 1
 178.516601562 510 l 2
 177.12890625 500.124023438 166.423828125 493.80078125 156.419921875 493.80078125 c 0
 146.385742188 493.80078125 137.5 500.2109375 138.875976562 509.998046875 c 2
 138.875976562 509.998046875 142.93359375 538.9453125 147.92578125 574.530273438 c 1
 95.8896484375 528.907226562 l 2
 86.7236328125 520.870117188 76.458984375 525.745117188 71.3994140625 531.438476562 c 0
 66.2080078125 537.280273438 62.349609375 548.65234375 71.7978515625 556.934570312 c 2
 71.7978515625 556.934570312 95.1357421875 577.411132812 123.830078125 602.580078125 c 1
 59.3076171875 602.580078125 l 2
 49.431640625 602.580078125 44.4873046875 612.396484375 45.8935546875 622.400390625 c 0
 47.3037109375 632.434570312 55.0888671875 642.220703125 64.8759765625 642.220703125 c 2
 64.8759765625 642.220703125 93.8251953125 642.231445312 129.411132812 642.240234375 c 1
 90.2001953125 687.864257812 l 2
 83.29296875 695.900390625 89.70703125 706.850585938 96.2236328125 712.709960938 c 0
 102.91015625 718.72265625 115.048828125 724.1796875 122.166992188 715.895507812 c 2
 122.166992188 715.895507812 139.756835938 695.448242188 161.370117188 670.315429688 c 1
 166.780273438 708.8125 170.1796875 733.159179688 170.625976562 735.720703125 c 0
 172.91796875 745.517578125 182.926757812 751 192.56640625 751 c 0
 202.67578125 751 211.204101562 744.541992188 210.120117188 734.872070312 c 2
EndSplineSet
AlternateSubs2: "'salt' Stylistic Alternatives in Latin lookup 0 subtable" uniE006
EndChar

StartChar: plus
Encoding: 43 43 12
Width: 574
GlyphClass: 2
Flags: MW
HStem: 266.904 84.0996<60.6387 81.8936 81.8936 81.8936 81.8936 239.026>
LayerCount: 2
Back
Fore
SplineSet
492.147460938 266.904296875 m 2
 323.212890625 266.904296875 l 1
 310.251953125 174.571289062 299.6328125 98.9541015625 299.389648438 97.8984375 c 0
 295.82421875 77.8232421875 274.883789062 64.9541015625 252.694335938 64.9541015625 c 0
 230.043945312 64.9541015625 213.166015625 79.103515625 215.272460938 97.8828125 c 2
 239.026367188 266.904296875 l 1
 70.076171875 266.904296875 l 2
 51.201171875 266.904296875 39.818359375 286.415039062 42.986328125 308.954101562 c 0
 46.1591796875 331.528320312 63.2294921875 351.004882812 81.8935546875 351.00390625 c 2
 81.8935546875 351.00390625 161.411132812 351.041992188 250.85546875 351.0703125 c 1
 274.590820312 519.954101562 l 2
 277.243164062 538.829101562 298.739257812 552.954101562 321.278320312 552.954101562 c 0
 343.852539062 552.954101562 361.314453125 538.620117188 358.690429688 519.956054688 c 2
 358.690429688 519.956054688 347.560546875 440.490234375 335.0234375 351.090820312 c 1
 427.331054688 351.106445312 502.911132812 351.114257812 503.955078125 351.01953125 c 0
 523.923828125 350.275390625 534.104492188 331.143554688 530.986328125 308.954101562 c 0
 527.802734375 286.3046875 510.893554688 267.434570312 492.147460938 266.904296875 c 2
EndSplineSet
AlternateSubs2: "'salt' Stylistic Alternatives in Latin lookup 0 subtable" uniE005
EndChar

StartChar: comma
Encoding: 44 44 13
Width: 234
GlyphClass: 2
Flags: MW
HStem: -59.2695 13.5273 -5.25 102.5<121.421 123.847>
VStem: 79.5 97.1328
LayerCount: 2
Back
Fore
SplineSet
176.6328125 -25.6884765625 m 0
 168.751953125 -42.3193359375 117.866210938 -50.7783203125 83.42578125 -55.2080078125 c 2
 51.841796875 -59.26953125 l 1
 81.9443359375 -45.7421875 l 2
 111.125976562 -32.6279296875 130.78515625 -27.2275390625 137.315429688 -2.57421875 c 1
 131.638671875 -4.42578125 126.646484375 -5.25 121.046875 -5.25 c 0
 92.982421875 -5.25 75.6455078125 18.5732421875 79.5 46 c 0
 83.3544921875 73.4267578125 107.388671875 97.25 135.453125 97.25 c 0
 163.772460938 97.25 181.540039062 73.0986328125 178.333984375 46.61328125 c 1
 180.532226562 25.990234375 186.547851562 -6.806640625 176.6328125 -25.6884765625 c 0
EndSplineSet
EndChar

StartChar: hyphen
Encoding: 45 45 14
Width: 596
GlyphClass: 2
Flags: MW
HStem: 266.904 84.0996<71.6396 92.9346 92.8936 92.9346 92.8936 503.148>
LayerCount: 2
Back
Fore
SplineSet
503.1484375 266.904296875 m 2
 81.0771484375 266.904296875 l 2
 62.2021484375 266.904296875 50.8193359375 286.415039062 53.9873046875 308.954101562 c 0
 57.16015625 331.528320312 74.23046875 351.004882812 92.8935546875 351.00390625 c 0
 92.9755859375 351.00390625 514.596679688 351.056640625 514.997070312 351.017578125 c 0
 534.890625 350.276367188 545.10546875 331.142578125 541.987304688 308.954101562 c 0
 538.803710938 286.3046875 521.89453125 267.434570312 503.1484375 266.904296875 c 2
EndSplineSet
EndChar

StartChar: period
Encoding: 46 46 15
Width: 206
GlyphClass: 2
Flags: MW
HStem: -5.25 102.5<95.5581 109.151>
VStem: 53.6377 98.75<46 46>
LayerCount: 2
Back
Fore
SplineSet
53.6376953125 46 m 0
 57.4921875 73.4267578125 81.525390625 97.25 109.590820312 97.25 c 0
 137.5234375 97.25 156.26953125 73.619140625 152.387695312 46 c 0
 148.505859375 18.380859375 123.1171875 -5.25 95.1845703125 -5.25 c 0
 67.119140625 -5.25 49.783203125 18.5732421875 53.6376953125 46 c 0
EndSplineSet
EndChar

StartChar: slash
Encoding: 47 47 16
Width: 450
GlyphClass: 2
Flags: W
LayerCount: 2
Back
Fore
SplineSet
409.520507812 588.33203125 m 2
 123.663085938 26.2734375 l 2
 114.685546875 8.6201171875 89.83984375 -5 67.220703125 -5 c 0
 61.5712890625 -5 56.556640625 -4.1259765625 52.296875 -2.4755859375 c 0
 39.041015625 2.66015625 33.5810546875 15.802734375 40.6640625 29.7255859375 c 0
 40.69921875 29.796875 326.263671875 591.38671875 326.52734375 591.819335938 c 0
 336.659179688 610.469726562 360.551757812 623 382.93359375 623 c 0
 388.171875 623 392.8515625 622.258789062 396.888671875 620.844726562 c 0
 410.775390625 615.977539062 416.396484375 602.650390625 409.520507812 588.33203125 c 2
EndSplineSet
EndChar

StartChar: zero
Encoding: 48 48 17
Width: 724
GlyphClass: 2
Flags: MW
HStem: -10 92.4707<270.246 396.095 270.246 407.984> 492.729 92.4707<327.904 453.753>
LayerCount: 2
Back
Fore
SplineSet
390.828125 492.728515625 m 0
 264.98046875 492.728515625 150.212890625 396.040039062 134.97265625 287.599609375 c 0
 119.731445312 179.158203125 207.321289062 82.470703125 333.170898438 82.470703125 c 0
 459.018554688 82.470703125 573.786132812 179.158203125 589.02734375 287.599609375 c 0
 604.267578125 396.040039062 516.677734375 492.728515625 390.828125 492.728515625 c 0
320.174804688 -10 m 0
 144.556640625 -10 23.126953125 123.146484375 46.240234375 287.599609375 c 0
 69.3525390625 452.052734375 228.206054688 585.19921875 403.82421875 585.19921875 c 0
 579.442382812 585.19921875 700.872070312 452.052734375 677.759765625 287.599609375 c 0
 654.646484375 123.146484375 495.79296875 -10 320.174804688 -10 c 0
EndSplineSet
AlternateSubs2: "'salt' Stylistic Alternatives in Latin lookup 0 subtable" uniE019
EndChar

StartChar: one
Encoding: 49 49 18
Width: 308
GlyphClass: 2
Flags: MW
HStem: 0 27.999<108.561 157.945>
LayerCount: 2
Back
Fore
SplineSet
229.790039062 590 m 0
 252.440429688 590 269.416015625 577.938476562 267.69921875 561.928710938 c 2
 192.661132812 28 l 2
 190.41015625 11.984375 169.21484375 0 146.67578125 0 c 0
 124.1015625 0 106.333984375 12.162109375 108.560546875 27.9990234375 c 2
 108.560546875 27.9990234375 145.328125 290.365234375 167.709960938 449.509765625 c 1
 102.869140625 395.759765625 l 2
 87.6474609375 382.413085938 64.3994140625 386.221679688 50.701171875 402.158203125 c 0
 36.8310546875 417.057617188 36.33203125 439.372070312 51.2607421875 451.690429688 c 0
 51.3330078125 451.752929688 176.697265625 561.609375 177.208984375 562.0390625 c 0
 188.400390625 571.712890625 201.762695312 592.11328125 229.790039062 590 c 0
EndSplineSet
EndChar

StartChar: two
Encoding: 50 50 19
Width: 731
GlyphClass: 2
Flags: MW
HStem: -5.29199 85.4902 205.55 84.7959<193.067 218.931> 493.976 84.7959<340.437 456.017>
LayerCount: 2
Back
Fore
SplineSet
638.138671875 38.173828125 m 0
 634.969726562 15.62890625 618.123046875 -3.8759765625 599.245117188 -3.8759765625 c 2
 599.245117188 -3.8759765625 490.016601562 -4.59765625 324.030273438 -4.59765625 c 0
 292.232421875 -4.59765625 261.423828125 -5.2861328125 232.504882812 -5.2919921875 c 0
 112.311523438 -5.318359375 23.212890625 7.392578125 41.55078125 137.874023438 c 0
 64.4677734375 300.936523438 156.555664062 290.345703125 229.579101562 290.345703125 c 0
 392.4296875 290.345703125 506.927734375 289.624023438 506.927734375 289.624023438 c 2
 559.96484375 289.624023438 588.176757812 329.256835938 596.829101562 390.823242188 c 0
 612.41015625 501.688476562 515.8359375 493.975585938 396.197265625 493.975585938 c 0
 284.676757812 493.975585938 126.1953125 493.950195312 126.193359375 493.950195312 c 0
 107.318359375 493.950195312 95.935546875 513.459960938 99.103515625 536 c 0
 102.271484375 558.544921875 119.147460938 578.049804688 137.99609375 578.049804688 c 2
 137.99609375 578.049804688 246.587890625 578.771484375 408.114257812 578.771484375 c 0
 578.322265625 578.771484375 712.154296875 553.44140625 689.297851562 390.813476562 c 0
 668.709960938 244.319335938 595.177734375 204.828125 496.301757812 204.828125 c 0
 330.315429688 204.828125 218.930664062 205.549804688 218.930664062 205.549804688 c 2
 110.83984375 205.549804688 134.756835938 143.106445312 134.021484375 137.874023438 c 0
 126.278320312 82.779296875 218.4921875 80.1982421875 335.948242188 80.1982421875 c 0
 450.547851562 80.1982421875 611.045898438 80.2236328125 611.047851562 80.2236328125 c 0
 629.922851562 80.2236328125 641.306640625 60.7138671875 638.138671875 38.173828125 c 0
EndSplineSet
EndChar

StartChar: three
Encoding: 51 51 20
Width: 785
GlyphClass: 2
Flags: MW
HStem: -10.1719 84.7959<350.414 462.977 350.414 479.47> 247.937 84.1133 495.976 84.7959<409.631 522.194>
LayerCount: 2
Back
Fore
SplineSet
44.029296875 290 m 0
 47.212890625 312.649414062 64.1220703125 331.51953125 82.8681640625 332.049804688 c 2
 483.833984375 332.049804688 l 2
 503.317382812 332.049804688 514.672851562 311.399414062 511.524414062 289 c 0
 508.333007812 266.288085938 490.905273438 247.94921875 472.016601562 247.950195312 c 0
 471.936523438 247.950195312 71.41796875 247.897460938 71.0185546875 247.936523438 c 0
 51.126953125 248.677734375 40.9111328125 267.811523438 44.029296875 290 c 0
163.538085938 538 m 0
 166.706054688 560.544921875 183.552734375 580.049804688 202.430664062 580.049804688 c 2
 202.430664062 580.049804688 313.40625 580.771484375 478.560546875 580.771484375 c 0
 646.482421875 580.771484375 761.520507812 448.224609375 738.623046875 285.299804688 c 0
 715.724609375 122.375 563.430664062 -10.171875 395.508789062 -10.171875 c 0
 230.354492188 -10.171875 119.58203125 -9.4501953125 119.58203125 -9.4501953125 c 2
 100.737304688 -9.4501953125 89.3408203125 10.060546875 92.5087890625 32.599609375 c 0
 95.6767578125 55.1455078125 112.5390625 74.6494140625 131.418945312 74.6494140625 c 2
 131.418945312 74.6494140625 293.401367188 74.6240234375 407.42578125 74.6240234375 c 0
 518.52734375 74.6240234375 629.827148438 169.14453125 646.15234375 285.299804688 c 0
 662.4765625 401.455078125 577.745117188 495.975585938 466.643554688 495.975585938 c 0
 352.618164062 495.975585938 190.629882812 495.950195312 190.627929688 495.950195312 c 0
 171.752929688 495.950195312 160.370117188 515.459960938 163.538085938 538 c 0
EndSplineSet
EndChar

StartChar: four
Encoding: 52 52 21
Width: 665
GlyphClass: 2
Flags: MW
HStem: 234.229 84.7959 510.376 79.791
LayerCount: 2
Back
Fore
SplineSet
496.650390625 587.63671875 m 0
 553.186523438 579.501953125 551.7265625 557.223632812 550.203125 551.986328125 c 2
 517.365234375 318.328125 l 1
 596.365234375 318.328125 l 2
 615.240234375 318.328125 626.623046875 298.817382812 623.455078125 276.278320312 c 0
 620.283203125 253.704101562 603.208984375 234.227539062 584.551757812 234.228515625 c 2
 584.551757812 234.228515625 551.989257812 234.189453125 505.510742188 234.163085938 c 1
 476.537109375 28 l 2
 473.883789062 9.125 452.038085938 -5 428.815429688 -5 c 0
 405.556640625 -5 387.50390625 9.333984375 390.12890625 27.998046875 c 2
 390.12890625 27.998046875 403.1015625 120.615234375 419.028320312 234.135742188 c 1
 385.036132812 234.137695312 360.838867188 234.188476562 360.298828125 234.228515625 c 0
 264.853515625 234.22265625 219.805664062 233.399414062 67.419921875 234.014648438 c 2
 66.8798828125 234.016601562 l 1
 66.3701171875 234.133789062 l 2
 58.958984375 235.837890625 53.26953125 238.12890625 49.08203125 241.254882812 c 0
 26.7158203125 257.948242188 55.462890625 288.407226562 79.529296875 317.528320312 c 0
 203.133789062 464.387695312 313.345703125 586.056640625 410.306640625 590.166992188 c 0
 448.62109375 591.8203125 476.407226562 590.538085938 496.650390625 587.63671875 c 0
430.9453125 319.041992188 m 1
 441.78515625 396.254882812 451.798828125 467.4375 457.938476562 510.899414062 c 1
 441.991210938 510.838867188 423.84765625 510.690429688 399.391601562 510.375976562 c 0
 359.522460938 509.864257812 307.266601562 468.4765625 188.211914062 327.873046875 c 0
 186.95703125 326.390625 186.592773438 325.43359375 186.5546875 325.288085938 c 0
 191.157226562 318.9921875 247.336914062 319.024414062 372.422851562 319.024414062 c 2
 372.422851562 319.024414062 380.5390625 319.03515625 430.9453125 319.041992188 c 1
EndSplineSet
AlternateSubs2: "'salt' Stylistic Alternatives in Latin lookup 0 subtable" uniE012
EndChar

StartChar: five
Encoding: 53 53 22
Width: 759
GlyphClass: 2
Flags: MW
HStem: -5.29199 84.7959<296.721 360.918 296.721 424.894> 288.855 84.7959<519.104 544.968> 493.281 84.7959<346.254 462.279>
LayerCount: 2
Back
Fore
SplineSet
416.896484375 578.077148438 m 0
 582.870117188 578.077148438 691.900390625 577.35546875 691.908203125 577.35546875 c 0
 710.752929688 577.35546875 722.150390625 557.844726562 718.982421875 535.305664062 c 0
 715.813476562 512.759765625 698.951171875 493.255859375 680.071289062 493.255859375 c 2
 680.071289062 493.255859375 519.578125 493.28125 404.979492188 493.28125 c 0
 287.528320312 493.28125 194.598632812 490.801757812 187.165039062 437.90625 c 0
 186.568359375 433.659179688 181.583984375 427.88671875 179.791015625 416.516601562 c 0
 177.033203125 399.0078125 182.2578125 372.9296875 253.431640625 372.9296875 c 2
 253.431640625 372.9296875 365.018554688 373.651367188 531.004882812 373.651367188 c 0
 629.880859375 373.651367188 692.23828125 333.6328125 671.375 185.1796875 c 0
 648.213867188 20.3798828125 507.684570312 -5.2919921875 342.102539062 -5.2919921875 c 0
 176.116210938 -5.2919921875 67.0908203125 -4.5703125 67.0908203125 -4.5703125 c 2
 48.24609375 -4.5703125 36.849609375 14.9404296875 40.017578125 37.4794921875 c 0
 43.185546875 60.025390625 60.0478515625 79.529296875 78.927734375 79.529296875 c 2
 78.927734375 79.529296875 239.421875 79.50390625 354.020507812 79.50390625 c 0
 367.815429688 79.50390625 381.375 79.3857421875 394.573242188 79.3828125 c 0
 492.12109375 79.3623046875 564.84765625 85.1650390625 578.904296875 185.1796875 c 0
 587.768554688 248.252929688 570.83203125 288.85546875 519.103515625 288.85546875 c 2
 519.103515625 288.85546875 407.516601562 288.133789062 241.530273438 288.133789062 c 0
 232.0703125 288.133789062 222.276367188 287.948242188 212.416992188 287.943359375 c 0
 144.858398438 287.91015625 75.0830078125 298.364257812 94.7099609375 438.020507812 c 0
 117.046875 596.952148438 253.170898438 578.077148438 416.896484375 578.077148438 c 0
EndSplineSet
EndChar

StartChar: six
Encoding: 54 54 23
Width: 740
GlyphClass: 2
Flags: MW
HStem: -5 84.7979<317.192 334.005 317.192 334.005> 246.743 85.0342 493.573 84.7959<331.489 446.54>
LayerCount: 2
Back
Fore
SplineSet
395.65234375 -2.8115234375 m 1
 393.66796875 -3.98828125 l 2
 388.782226562 -6.7333984375 376.0703125 -4.9931640625 324.897460938 -5 c 2
 317.192382812 -5 l 2
 266.461914062 -4.9931640625 250.559570312 -5.2236328125 246.93359375 -2.8037109375 c 0
 114.705078125 6.3486328125 23.103515625 47.6025390625 42.3388671875 184.471679688 c 0
 49.05859375 232.284179688 61.853515625 265.221679688 77.970703125 287.134765625 c 1
 65.86328125 309.883789062 61.9814453125 342.731445312 68.9990234375 392.665039062 c 0
 91.150390625 550.283203125 232.435546875 578.369140625 402.697265625 578.369140625 c 0
 564.223632812 578.369140625 672.612304688 577.647460938 672.612304688 577.647460938 c 2
 691.45703125 577.647460938 702.854492188 558.13671875 699.686523438 535.59765625 c 0
 696.517578125 513.051757812 679.655273438 493.547851562 660.775390625 493.547851562 c 2
 660.775390625 493.547851562 502.299804688 493.573242188 390.780273438 493.573242188 c 0
 272.197265625 493.573242188 172.356445312 470.125976562 161.381835938 392.038085938 c 0
 161.002929688 389.344726562 159.90625 388.174804688 158.666015625 383.4609375 c 0
 154.907226562 369.166992188 151.041015625 338.29296875 207.822265625 332.259765625 c 0
 216.237304688 332.118164062 224.315429688 331.943359375 232.434570312 331.943359375 c 0
 285.508789062 331.943359375 333.219726562 331.873046875 373.328125 331.77734375 c 0
 411.665039062 331.873046875 456.802734375 331.943359375 507.064453125 331.943359375 c 0
 519.638671875 331.943359375 532.850585938 332.430664062 546.022460938 332.432617188 c 0
 609.807617188 332.44140625 671.823242188 318.840820312 652.938476562 184.471679688 c 0
 633.706054688 47.6240234375 528.55078125 6.212890625 395.65234375 -2.8115234375 c 1
216.329101562 246.42578125 m 0
 210.611328125 246.42578125 204.98046875 246.333007812 199.06640625 246.224609375 c 0
 123.762695312 238.6875 135.395507812 188.641601562 134.809570312 184.471679688 c 0
 123.612304688 104.80078125 212.916015625 80.2958984375 326.647460938 79.8037109375 c 0
 328.763671875 79.8037109375 330.868164062 79.7978515625 332.963867188 79.7978515625 c 0
 335.046875 79.7978515625 337.192382812 79.8037109375 339.2578125 79.8037109375 c 0
 453.170898438 80.2958984375 549.270507812 104.80078125 560.467773438 184.471679688 c 0
 560.900390625 187.548828125 562.982421875 190.627929688 564.279296875 198.22265625 c 0
 567.317382812 216.022460938 565.374023438 244.896484375 498.340820312 246.74609375 c 0
 493.956054688 246.759765625 449.286132812 246.573242188 391.666015625 246.743164062 c 0
 345.565429688 246.577148438 285.720703125 246.42578125 216.329101562 246.42578125 c 0
EndSplineSet
EndChar

StartChar: seven
Encoding: 55 55 24
Width: 669
GlyphClass: 2
Flags: MW
HStem: 495.976 84.7959<291.586 404.729>
LayerCount: 2
Back
Fore
SplineSet
492.092773438 22.9833984375 m 2
 492.793945312 28.015625 l 2
 496.60546875 54.4775390625 514.475585938 179.551757812 529.337890625 285.299804688 c 0
 545.662109375 401.455078125 460.56640625 495.975585938 348.892578125 495.975585938 c 0
 234.279296875 495.975585938 73.8154296875 495.950195312 73.8134765625 495.950195312 c 0
 54.9384765625 495.950195312 43.5556640625 515.459960938 46.7236328125 538 c 0
 49.8916015625 560.544921875 66.767578125 580.049804688 85.6162109375 580.049804688 c 2
 85.6162109375 580.049804688 194.803710938 580.771484375 360.809570312 580.771484375 c 0
 529.81640625 580.771484375 633.989257812 447.671875 621.84375 285.626953125 c 2
 621.825195312 285.379882812 l 1
 576.181640625 22.908203125 l 2
 573.489257812 4.197265625 552.05859375 -10 529.506835938 -10 c 0
 506.948242188 -10 489.505859375 4.1318359375 492.092773438 22.9833984375 c 2
EndSplineSet
EndChar

StartChar: eight
Encoding: 56 56 25
Width: 727
GlyphClass: 2
Flags: MW
HStem: -10 89.8057<317.772 327.998 318.045 327.998> 246.625 85.1484 493.57 84.7979<391.583 399.387>
LayerCount: 2
Back
Fore
SplineSet
219.4765625 246.42578125 m 0
 212.705078125 246.42578125 205.977539062 246.293945312 198.947265625 246.1640625 c 0
 124.37109375 238.419921875 135.944335938 188.646484375 135.357421875 184.471679688 c 0
 124.176757812 104.916992188 213.126953125 80.365234375 326.63671875 79.8056640625 c 0
 329.358398438 79.8056640625 332.071289062 79.798828125 334.775390625 79.798828125 c 0
 337.46484375 79.798828125 340.2265625 79.8056640625 342.890625 79.8056640625 c 0
 456.604492188 80.3662109375 552.434570312 104.91796875 563.615234375 184.471679688 c 0
 564.009765625 187.282226562 565.186523438 188.62109375 566.471679688 193.711914062 c 0
 570.232421875 208.623046875 573.745117188 240.151367188 517.365234375 246.1640625 c 0
 510.888671875 246.284179688 503.53515625 246.42578125 496.91015625 246.42578125 c 0
 444.65234375 246.42578125 397.783203125 246.51171875 358.236328125 246.625 c 0
 318.587890625 246.51171875 271.75390625 246.42578125 219.4765625 246.42578125 c 0
655.3828125 179.471679688 m 0
 636.03515625 41.8046875 529.498046875 0.7177734375 395.310546875 -7.99609375 c 0
 390.130859375 -11.6943359375 376.578125 -9.990234375 327.87890625 -9.9990234375 c 0
 327.34765625 -9.9990234375 326.809570312 -10 326.265625 -10 c 2
 318.044921875 -10 l 2
 317.5 -10 316.963867188 -9.9990234375 316.430664062 -9.9990234375 c 0
 267.978515625 -9.990234375 253.373046875 -11.3994140625 249.5625 -7.99609375 c 0
 116.163085938 0.830078125 22.8330078125 41.7822265625 42.18359375 179.471679688 c 0
 49.115234375 228.7890625 62.4912109375 262.25 79.3681640625 284.184570312 c 1
 68.1171875 307.225585938 64.7294921875 339.887695312 71.6171875 388.897460938 c 0
 90.96484375 526.564453125 197.501953125 567.651367188 331.689453125 576.365234375 c 0
 336.869140625 580.063476562 350.421875 578.359375 399.12109375 578.368164062 c 0
 399.65234375 578.368164062 400.190429688 578.369140625 400.734375 578.369140625 c 2
 408.955078125 578.369140625 l 2
 409.5 578.369140625 410.036132812 578.368164062 410.569335938 578.368164062 c 0
 459.021484375 578.359375 473.626953125 579.768554688 477.4375 576.365234375 c 0
 610.836914062 567.5390625 704.166992188 526.586914062 684.81640625 388.897460938 c 0
 677.884765625 339.580078125 664.508789062 306.119140625 647.631835938 284.184570312 c 1
 658.8828125 261.143554688 662.271484375 228.481445312 655.3828125 179.471679688 c 0
161.71484375 383.078125 m 0
 158.013671875 368.607421875 154.623046875 338.046875 210.764648438 332.203125 c 0
 217.853515625 332.075195312 224.635742188 331.943359375 231.495117188 331.943359375 c 0
 283.725585938 331.943359375 330.538085938 331.872070312 370.188476562 331.7734375 c 0
 409.866210938 331.872070312 456.698242188 331.943359375 508.928710938 331.943359375 c 0
 515.788085938 331.943359375 522.607421875 332.075195312 529.733398438 332.203125 c 0
 603.951171875 339.73046875 592.216796875 387.982421875 592.787109375 392.038085938 c 0
 603.631835938 469.206054688 514.578125 493.020507812 401.06640625 493.563476562 c 0
 398.344726562 493.563476562 395.631835938 493.5703125 392.927734375 493.5703125 c 0
 390.23828125 493.5703125 387.4765625 493.563476562 384.8125 493.563476562 c 0
 271.100585938 493.020507812 175.374023438 469.205078125 164.529296875 392.038085938 c 0
 164.146484375 389.31640625 162.977539062 388.015625 161.71484375 383.078125 c 0
EndSplineSet
EndChar

StartChar: nine
Encoding: 57 57 26
Width: 752
GlyphClass: 2
Flags: MW
HStem: -5 84.7959<301.446 419.495 301.446 433.385> 246.592 85.0342 493.571 84.7979<411.899 428.58>
LayerCount: 2
Back
Fore
SplineSet
348.331054688 576.180664062 m 1
 350.3671875 577.357421875 l 2
 355.380859375 580.102539062 368.458984375 578.362304688 421.081054688 578.369140625 c 2
 428.580078125 578.369140625 l 2
 480.704101562 578.362304688 497.041015625 578.592773438 500.778320312 576.172851562 c 0
 636.155273438 567.157226562 727.842773438 526.51953125 708.89453125 391.694335938 c 0
 702.110351562 343.418945312 697.500976562 290.672851562 697.500976562 290.672851562 c 1
 697.489257812 290.5390625 l 1
 697.469726562 290.40625 l 2
 682.3671875 184.446289062 689.65625 236.307617188 682.37109375 184.471679688 c 0
 659.76953125 23.65625 518.413085938 -5 348.356445312 -5 c 0
 177.94140625 -5 68.2275390625 -4.2783203125 68.2275390625 -4.2783203125 c 2
 49.3828125 -4.2783203125 37.986328125 15.232421875 41.154296875 37.771484375 c 0
 44.3232421875 60.3173828125 61.1845703125 79.8212890625 80.064453125 79.8212890625 c 2
 80.064453125 79.8212890625 242.618164062 79.7958984375 360.274414062 79.7958984375 c 0
 478.71484375 79.7958984375 578.586914062 103.96875 589.900390625 184.471679688 c 0
 590.291015625 187.249023438 591.392578125 188.454101562 592.653320312 193.314453125 c 0
 596.473632812 208.05078125 600.474609375 239.879882812 543.741210938 246.099609375 c 0
 535.3359375 246.245117188 527.26953125 246.42578125 519.159179688 246.42578125 c 0
 466.149414062 246.42578125 418.49609375 246.49609375 378.138671875 246.591796875 c 0
 337.692382812 246.49609375 290.071289062 246.42578125 237.04296875 246.42578125 c 0
 223.77734375 246.42578125 209.83984375 245.927734375 195.944335938 245.926757812 c 0
 131.734375 245.91796875 69.6904296875 259.317382812 88.294921875 391.694335938 c 0
 107.240234375 526.498046875 212.30859375 567.291015625 348.331054688 576.180664062 c 1
533.887695312 331.943359375 m 0
 539.76171875 331.943359375 545.546875 332.033203125 551.622070312 332.138671875 c 0
 627.747070312 339.44921875 615.904296875 387.994140625 616.47265625 392.038085938 c 0
 627.333007812 469.318359375 536.052734375 493.087890625 419.193359375 493.565429688 c 0
 417.018554688 493.565429688 414.952148438 493.571289062 412.913085938 493.571289062 c 0
 410.885742188 493.571289062 408.77734375 493.565429688 406.65234375 493.565429688 c 0
 289.516601562 493.087890625 191.674804688 469.318359375 180.814453125 392.038085938 c 0
 180.39453125 389.053710938 178.325195312 386.067382812 177.060546875 378.700195312 c 0
 174.09765625 361.430664062 176.161132812 333.416992188 244.430664062 331.623046875 c 0
 248.939453125 331.609375 294.873046875 331.795898438 354.127929688 331.625976562 c 0
 401.1015625 331.791992188 462.58984375 331.943359375 533.887695312 331.943359375 c 0
EndSplineSet
EndChar

StartChar: colon
Encoding: 58 58 27
Width: 222
GlyphClass: 2
Flags: MW
HStem: -5.5 102.5<90.7339 104.327> 177 102.5<116.382 129.976>
VStem: 48.8135 124.398
LayerCount: 2
Back
Fore
SplineSet
74.4619140625 228.25 m 0
 78.31640625 255.676757812 102.349609375 279.5 130.415039062 279.5 c 0
 158.34765625 279.5 177.09375 255.869140625 173.211914062 228.25 c 0
 169.331054688 200.630859375 143.942382812 177 116.009765625 177 c 0
 87.9443359375 177 70.607421875 200.823242188 74.4619140625 228.25 c 0
48.8134765625 45.75 m 0
 52.66796875 73.1767578125 76.701171875 97 104.766601562 97 c 0
 132.69921875 97 151.4453125 73.369140625 147.563476562 45.75 c 0
 143.681640625 18.130859375 118.29296875 -5.5 90.3603515625 -5.5 c 0
 62.294921875 -5.5 44.958984375 18.3232421875 48.8134765625 45.75 c 0
EndSplineSet
EndChar

StartChar: semicolon
Encoding: 59 59 28
Width: 249
GlyphClass: 2
Flags: MW
HStem: -59.5195 13.5273 -5.5 102.5<117.797 120.223> 177 102.5<143.445 157.039>
VStem: 75.876 97.1328 101.524 98.75<228 228>
LayerCount: 2
Back
Fore
SplineSet
173.008789062 -25.9384765625 m 0xf0
 165.127929688 -42.5693359375 114.2421875 -51.0283203125 79.8017578125 -55.4580078125 c 2
 48.2177734375 -59.51953125 l 1
 78.3203125 -45.9921875 l 2
 107.501953125 -32.8779296875 127.161132812 -27.4775390625 133.69140625 -2.82421875 c 1
 128.014648438 -4.67578125 123.022460938 -5.5 117.422851562 -5.5 c 0
 89.3583984375 -5.5 72.021484375 18.3232421875 75.8759765625 45.75 c 0
 79.73046875 73.1767578125 103.764648438 97 131.829101562 97 c 0
 160.1484375 97 177.916015625 72.8486328125 174.709960938 46.36328125 c 1
 176.908203125 25.740234375 182.923828125 -7.056640625 173.008789062 -25.9384765625 c 0xf0
101.524414062 228.25 m 0xe8
 105.37890625 255.676757812 129.413085938 279.5 157.477539062 279.5 c 0
 185.41015625 279.5 204.15625 255.869140625 200.274414062 228.25 c 0
 196.393554688 200.630859375 171.004882812 177 143.072265625 177 c 0
 115.0078125 177 97.669921875 200.823242188 101.524414062 228.25 c 0xe8
EndSplineSet
EndChar

StartChar: less
Encoding: 60 60 29
Width: 392
GlyphClass: 2
Flags: MW
HStem: 147.532 64.9297<262.346 275.106> 473.538 64.9297<311.799 317.288>
VStem: 44.1475 303.976
LayerCount: 2
Back
Fore
SplineSet
44.1474609375 343 m 0
 47.375 365.959960938 64.740234375 388.202148438 82.0810546875 394.811523438 c 0
 94.4296875 402.498046875 315.717773438 537.787109375 315.747070312 537.8046875 c 2
 316.48046875 538.252929688 l 1
 317.288085938 538.467773438 l 2
 335.403320312 543.282226562 350.822265625 532.795898438 348.123046875 513.58984375 c 0
 345.517578125 495.053710938 327.73046875 478.227539062 311.798828125 473.538085938 c 1
 124.0078125 343 l 1
 275.106445312 212.461914062 l 1
 291.088867188 207.333007812 302.692382812 190.333007812 300.172851562 172.41015625 c 0
 297.473632812 153.203125 279.107421875 142.717773438 262.345703125 147.532226562 c 2
 261.598632812 147.747070312 l 1
 260.990234375 148.1953125 l 1
 260.990234375 148.1953125 76.13671875 284.685546875 67.517578125 291.188476562 c 0
 50.85546875 298.301757812 41.01171875 320.685546875 44.1474609375 343 c 0
EndSplineSet
EndChar

StartChar: equal
Encoding: 61 61 30
Width: 529
GlyphClass: 2
Flags: MW
HStem: 129 82<71.7407 422.754 91.332 410.988> 273 82<91.978 112.457 111.569 112.457 112.457 167.408 111.569 431.288>
LayerCount: 2
Back
Fore
SplineSet
410.98828125 129 m 1
 84.6953125 129 l 2
 58.7861328125 129 48.2470703125 147.15625 51.1767578125 168 c 0
 54.0302734375 188.3046875 68.001953125 202.865234375 90.455078125 210.694335938 c 2
 91.33203125 211 l 1
 422.75390625 211 l 1
 423.260742188 210.88671875 l 2
 448.506835938 205.2578125 460.852539062 190.516601562 456.135742188 167.75 c 0
 452.236328125 145.326171875 436.060546875 131.90234375 411.284179688 129.034179688 c 2
 410.98828125 129 l 1
431.288085938 273 m 1
 104.932617188 273 l 2
 79.0234375 273 68.484375 291.15625 71.4140625 312 c 0
 74.267578125 332.3046875 88.240234375 346.865234375 110.692382812 354.694335938 c 2
 111.569335938 355 l 1
 112.45703125 355 l 2
 222.358398438 355 333.12890625 358.263671875 442.60546875 354.998046875 c 0
 470.053710938 354.1796875 481.514648438 335.899414062 477.528320312 312.833007812 c 0
 473.592773438 290.200195312 457.063476562 276.609375 431.647460938 273.049804688 c 2
 431.288085938 273 l 1
EndSplineSet
EndChar

StartChar: greater
Encoding: 62 62 31
Width: 388
GlyphClass: 2
Flags: MW
HStem: 147.532 64.9297<72.7119 78.2012> 473.538 64.9297<114.894 127.654>
VStem: 41.877 303.975
LayerCount: 2
Back
Fore
SplineSet
345.8515625 343 m 0
 342.625 320.040039062 325.259765625 297.797851562 307.918945312 291.188476562 c 0
 295.5703125 283.501953125 74.2822265625 148.212890625 74.2529296875 148.1953125 c 2
 73.51953125 147.747070312 l 1
 72.7119140625 147.532226562 l 2
 54.5966796875 142.717773438 39.177734375 153.204101562 41.876953125 172.41015625 c 0
 44.482421875 190.946289062 62.26953125 207.772460938 78.201171875 212.461914062 c 1
 265.991210938 343 l 1
 114.893554688 473.538085938 l 1
 98.9111328125 478.666992188 87.3076171875 495.666992188 89.8271484375 513.58984375 c 0
 92.5263671875 532.796875 110.892578125 543.282226562 127.654296875 538.467773438 c 2
 128.401367188 538.252929688 l 1
 129.009765625 537.8046875 l 1
 129.009765625 537.8046875 313.86328125 401.314453125 322.482421875 394.811523438 c 0
 339.14453125 387.698242188 348.98828125 365.314453125 345.8515625 343 c 0
EndSplineSet
EndChar

StartChar: question
Encoding: 63 63 32
Width: 576
GlyphClass: 2
Flags: MW
HStem: -5 89.5498<179.23 191.149> 293.847 73.8018<257.236 257.236> 511.267 74.3242<251.437 339.485>
LayerCount: 2
Back
Fore
SplineSet
257.236328125 293.846679688 m 1
 234.627929688 132.985351562 l 2
 232.270507812 116.2109375 213.295898438 103.905273438 193.677734375 103.905273438 c 0
 174.030273438 103.905273438 158.5703125 116.39453125 160.90234375 132.98046875 c 0
 160.908203125 133.022460938 188.635742188 330.572265625 188.696289062 330.840820312 c 0
 192.21484375 352.109375 206.459960938 367.18359375 222.891601562 367.6484375 c 2
 444.975585938 367.6484375 l 1
 428.799804688 450.428710938 379.580078125 511.266601562 299.390625 511.266601562 c 0
 203.482421875 511.266601562 67.189453125 511.245117188 67.1875 511.245117188 c 0
 50.412109375 511.245117188 40.53125 528.489257812 43.2880859375 548.107421875 c 0
 46.0458984375 567.7265625 60.7861328125 584.970703125 77.5322265625 584.970703125 c 2
 77.5322265625 584.970703125 170.920898438 585.590820312 309.836914062 585.590820312 c 0
 451.459960938 585.590820312 550.408203125 471.291992188 530.662109375 330.78515625 c 0
 527.900390625 311.137695312 512.9921875 293.921875 496.404296875 293.922851562 c 2
 496.404296875 293.922851562 336.9609375 293.823242188 257.236328125 293.846679688 c 1
142.599609375 39.7744140625 m 0
 145.961914062 63.701171875 166.942382812 84.5498046875 191.517578125 84.5498046875 c 0
 215.950195312 84.5498046875 232.313476562 63.888671875 228.924804688 39.7744140625 c 0
 225.53515625 15.65625 203.3671875 -5 178.931640625 -5 c 0
 154.3671875 -5 139.237304688 15.8515625 142.599609375 39.7744140625 c 0
EndSplineSet
EndChar

StartChar: at
Encoding: 64 64 33
Width: 724
GlyphClass: 2
Flags: MW
HStem: -0.163086 84.793 107.771 59.4824<329 401.572 329 409.095> 409.408 59.4824<363.033 434.891 355.824 435.605> 505.982 84.7979<424.251 430.8>
LayerCount: 2
Back
Fore
SplineSet
251.0859375 288.331054688 m 0
 242.114257812 224.498046875 292.712890625 167.25390625 365.286132812 167.25390625 c 0
 437.857421875 167.25390625 504.547851562 224.498046875 513.51953125 288.331054688 c 0
 522.490234375 352.1640625 471.891601562 409.408203125 399.318359375 409.408203125 c 0
 326.747070312 409.408203125 260.056640625 352.1640625 251.0859375 288.331054688 c 0
611.715820312 134.469726562 m 1
 612.755859375 123.692382812 502.674804688 -1.3330078125 301.178710938 -0.1630859375 c 0
 137.12890625 0.7900390625 22.2333984375 132.364257812 45.1337890625 295.30859375 c 0
 68.03125 458.233398438 220.025390625 590.780273438 384.258789062 590.780273438 c 0
 545.78515625 590.780273438 654.174804688 590.05859375 654.174804688 590.05859375 c 2
 673.01953125 590.05859375 684.416015625 570.547851562 681.248046875 548.008789062 c 0
 678.224609375 526.495117188 663.288085938 509.311523438 646.5234375 506.284179688 c 1
 570.512695312 287.319335938 l 2
 537.212890625 191.392578125 461.262695312 107.771484375 356.926757812 107.771484375 c 0
 253.217773438 107.771484375 179.813476562 188.477539062 193.846679688 288.331054688 c 0
 207.879882812 388.18359375 303.969726562 468.890625 407.678710938 468.890625 c 0
 462.102539062 468.890625 507.850585938 446.474609375 537.223632812 411.627929688 c 1
 555.329101562 444.474609375 517.05078125 487.905273438 463.543945312 505.98046875 c 1
 450.446289062 505.98046875 437.348632812 505.982421875 424.250976562 505.982421875 c 0
 394.280273438 505.311523438 375.467773438 504.723632812 370.663085938 505.9765625 c 0
 262.50390625 504.993164062 153.842773438 410.8515625 137.604492188 295.30859375 c 0
 121.295898438 179.268554688 204.954101562 88.41015625 313.297851562 84.6298828125 c 0
 454.748046875 79.6943359375 550.788085938 180.3359375 555.022460938 184.767578125 c 0
 569.6796875 200.107421875 592.1015625 192.870117188 607.376953125 180.362304688 c 0
 624.438476562 166.392578125 616.418945312 144.305664062 611.715820312 134.469726562 c 1
EndSplineSet
EndChar

StartChar: A
Encoding: 65 65 34
Width: 730
GlyphClass: 2
Flags: MW
HStem: 0 92.4707<273.95 369.519> 492.729 92.4707<330.203 456.052>
LayerCount: 2
Back
Fore
SplineSet
680.7578125 292.580078125 m 2
 641.262695312 15.185546875 l 2
 639.209960938 0.57421875 612.061523438 -1.28515625 595.107421875 -1.2919921875 c 0
 579.315429688 -1.298828125 555.0546875 0.177734375 557.063476562 14.470703125 c 2
 568.196289062 93.640625 l 1
 502.041992188 35.4912109375 415.158203125 0 323.87890625 0 c 0
 148.260742188 0 26.517578125 130.91015625 49.2412109375 292.599609375 c 0
 71.96484375 454.2890625 230.504882812 585.19921875 406.123046875 585.19921875 c 0
 581.741210938 585.19921875 703.485351562 454.291992188 680.7578125 292.580078125 c 2
393.126953125 492.728515625 m 0
 267.279296875 492.728515625 152.842773438 398.396484375 137.973632812 292.599609375 c 0
 123.104492188 186.801757812 211.025390625 92.470703125 336.875 92.470703125 c 0
 462.72265625 92.470703125 577.159179688 186.801757812 592.028320312 292.599609375 c 0
 606.897460938 398.396484375 518.9765625 492.728515625 393.126953125 492.728515625 c 0
EndSplineSet
EndChar

StartChar: B
Encoding: 66 66 35
Width: 730
GlyphClass: 2
Flags: MW
HStem: 0 92.4707<273.895 399.743 273.895 411.632> 492.729 92.4707<360.427 455.996>
LayerCount: 2
Back
Fore
SplineSet
49.3115234375 293.493164062 m 2
 108.881835938 713.731445312 l 2
 110.969726562 728.591796875 138.123046875 730.483398438 155.077148438 730.491210938 c 0
 170.869140625 730.498046875 195.129882812 729.021484375 193.12109375 714.728515625 c 2
 161.75 491.557617188 l 1
 227.905273438 549.708007812 314.787109375 585.19921875 406.067382812 585.19921875 c 0
 581.685546875 585.19921875 703.428710938 454.2890625 680.705078125 292.599609375 c 0
 657.981445312 130.91015625 499.44140625 0 323.823242188 0 c 0
 148.205078125 0 26.5166015625 131.302734375 49.3115234375 293.493164062 c 2
336.819335938 92.470703125 m 0
 462.666992188 92.470703125 577.103515625 186.802734375 591.97265625 292.599609375 c 0
 606.841796875 398.397460938 518.920898438 492.728515625 393.071289062 492.728515625 c 0
 267.223632812 492.728515625 152.787109375 398.397460938 137.91796875 292.599609375 c 0
 123.048828125 186.802734375 210.969726562 92.470703125 336.819335938 92.470703125 c 0
EndSplineSet
EndChar

StartChar: C
Encoding: 67 67 36
Width: 727
GlyphClass: 2
Flags: MW
HStem: -0.171875 84.7959<262.226 375.375 262.226 388.46> 505.976 84.7959<321.442 434.592>
LayerCount: 2
Back
Fore
SplineSet
390.749023438 590.771484375 m 0
 552.263671875 590.771484375 660.65625 590.049804688 660.6640625 590.049804688 c 0
 679.508789062 590.049804688 690.905273438 570.5390625 687.73828125 548 c 0
 684.569335938 525.454101562 667.70703125 505.950195312 648.827148438 505.950195312 c 2
 648.827148438 505.950195312 490.3515625 505.975585938 378.83203125 505.975585938 c 0
 264.052734375 505.975585938 150.418945312 411.455078125 134.094726562 295.299804688 c 0
 117.76953125 179.14453125 204.8359375 84.6240234375 319.615234375 84.6240234375 c 0
 431.135742188 84.6240234375 589.616210938 84.6494140625 589.618164062 84.6494140625 c 0
 608.493164062 84.6494140625 619.875976562 65.1396484375 616.708984375 42.599609375 c 0
 613.540039062 20.0546875 596.6640625 0.5498046875 577.815429688 0.5498046875 c 2
 577.815429688 0.5498046875 469.223632812 -0.171875 307.697265625 -0.171875 c 0
 134.216796875 -0.171875 18.7265625 132.375 41.6240234375 295.299804688 c 0
 64.521484375 458.224609375 217.268554688 590.771484375 390.749023438 590.771484375 c 0
EndSplineSet
EndChar

StartChar: D
Encoding: 68 68 37
Width: 769
GlyphClass: 2
Flags: MW
HStem: 0 92.4707<265.416 391.265 265.416 403.154> 492.729 92.4707<321.669 443.365 309.78 447.518>
LayerCount: 2
Back
Fore
SplineSet
688.181640625 730.486328125 m 0
 705.481445312 730.629882812 733.024414062 728.827148438 730.903320312 713.731445312 c 2
 672.3515625 293.487304688 l 2
 649.55859375 131.307617188 490.962890625 0 315.344726562 0 c 0
 139.7265625 0 17.9833984375 130.91015625 40.70703125 292.599609375 c 0
 63.4306640625 454.2890625 221.970703125 585.19921875 397.588867188 585.19921875 c 0
 489.141601562 585.19921875 566.682617188 548.668945312 615.5859375 491.557617188 c 1
 646.943359375 714.728515625 l 2
 648.918945312 728.784179688 672.758789062 730.357421875 688.181640625 730.486328125 c 0
384.592773438 492.728515625 m 0
 258.745117188 492.728515625 144.30859375 398.397460938 129.439453125 292.599609375 c 0
 114.5703125 186.802734375 202.491210938 92.470703125 328.340820312 92.470703125 c 0
 454.188476562 92.470703125 568.625 186.802734375 583.494140625 292.599609375 c 0
 598.36328125 398.397460938 510.442382812 492.728515625 384.592773438 492.728515625 c 0
EndSplineSet
EndChar

StartChar: E
Encoding: 69 69 38
Width: 691
GlyphClass: 2
Flags: W
LayerCount: 2
Back
Fore
SplineSet
626.229492188 156.776367188 m 0
 555.611328125 96.041015625 570.228515625 95.4453125 473.112304688 40.6015625 c 0
 325.575195312 -40.2822265625 121.817382812 -3.9462890625 59.13671875 136.120117188 c 0
 -3.4052734375 276.185546875 76.529296875 458.247070312 237.635742188 542.3984375 c 0
 371.779296875 611.032226562 520.743164062 593.752929688 605.017578125 508.848632812 c 0
 613.83203125 499.702148438 630.3359375 485.99609375 641.541015625 471.669921875 c 0
 652.114257812 457.903320312 660.432617188 439.547851562 643.375 425.66015625 c 0
 572.565429688 366.740234375 497.877929688 311.201171875 420.59375 258.077148438 c 0
 405.520507812 247.723632812 378.2890625 243.049804688 365.4140625 262.48828125 c 0
 353.524414062 280.4375 356.928710938 303.525390625 372.765625 315.737304688 c 0
 402.709960938 338.110351562 530.7109375 423.563476562 535.393554688 441.385742188 c 1
 457.184570312 480.16796875 368.565429688 512.02734375 273.8984375 462.31640625 c 0
 156.923828125 402.450195312 100.8828125 272.176757812 142.215820312 180.486328125 c 0
 145.783203125 172.610351562 150.217773438 165.046875 155.3125 157.848632812 c 0
 209.4609375 80.41796875 337.015625 46.2666015625 435.21484375 114.796875 c 2
 573.122070312 210.07421875 l 2
 587.875 220.793945312 608.801757812 223.81640625 624.681640625 208.842773438 c 0
 640.346679688 195.135742188 641.684570312 169.37890625 626.229492188 156.776367188 c 0
EndSplineSet
AlternateSubs2: "'salt' Stylistic Alternatives in Latin lookup 0 subtable" uniE00A
EndChar

StartChar: F
Encoding: 70 70 39
Width: 746
GlyphClass: 2
Flags: MW
HStem: 274 84.0996<195.631 217.87 217.827 217.87 217.827 589.741> 505.976 84.7959<343.684 456.833>
LayerCount: 2
Back
Fore
SplineSet
628.581054688 316.049804688 m 0
 625.397460938 293.400390625 608.487304688 274.530273438 589.741210938 274 c 2
 205.331054688 274 l 2
 185.931640625 274 174.413085938 293.510742188 177.581054688 316.049804688 c 0
 180.75390625 338.624023438 198.114257812 358.100585938 217.827148438 358.099609375 c 0
 217.913085938 358.099609375 601.189453125 358.15234375 601.590820312 358.11328125 c 0
 621.483398438 357.372070312 631.69921875 338.23828125 628.581054688 316.049804688 c 0
120.552734375 38.0302734375 m 0
 120.302734375 36.29296875 120.090820312 34.671875 119.848632812 32.9833984375 c 0
 117.13671875 14.1337890625 95.7158203125 0 73.1630859375 0 c 0
 50.115234375 0 33.9287109375 15.0224609375 35.6142578125 31.81640625 c 0
 36.5908203125 40.302734375 63.763671875 294.381835938 63.8447265625 295.131835938 c 2
 63.8701171875 295.379882812 l 1
 63.921875 295.626953125 l 2
 97.322265625 457.672851562 239.283203125 590.771484375 412.990234375 590.771484375 c 0
 574.516601562 590.771484375 682.905273438 590.049804688 682.905273438 590.049804688 c 2
 701.75 590.049804688 713.146484375 570.5390625 709.979492188 548 c 0
 706.810546875 525.454101562 689.947265625 505.950195312 671.068359375 505.950195312 c 2
 671.068359375 505.950195312 512.592773438 505.975585938 401.073242188 505.975585938 c 0
 286.293945312 505.975585938 172.66015625 411.455078125 156.3359375 295.299804688 c 0
 141.4375 189.293945312 123.975585938 63.0078125 120.552734375 38.0302734375 c 0
EndSplineSet
EndChar

StartChar: G
Encoding: 71 71 40
Width: 727
GlyphClass: 2
Flags: MW
HStem: -0.171875 84.7959<262.226 355.45 262.226 388.46> 505.976 84.7959<321.442 434.592>
LayerCount: 2
Back
Fore
SplineSet
390.749023438 590.771484375 m 0
 552.263671875 590.771484375 660.65625 590.049804688 660.6640625 590.049804688 c 0
 679.508789062 590.049804688 690.905273438 570.5390625 687.73828125 548 c 0
 684.569335938 525.454101562 667.70703125 505.950195312 648.827148438 505.950195312 c 2
 648.827148438 505.950195312 490.3515625 505.975585938 378.83203125 505.975585938 c 0
 264.052734375 505.975585938 150.418945312 411.455078125 134.094726562 295.299804688 c 0
 117.76953125 179.14453125 204.8359375 84.6240234375 319.615234375 84.6240234375 c 0
 391.28515625 84.6240234375 483.6796875 84.634765625 538.513671875 84.6416015625 c 1
 570.669921875 313.599609375 l 2
 573.322265625 332.474609375 594.817382812 346.599609375 617.357421875 346.599609375 c 0
 639.90234375 346.599609375 657.422851562 332.477539062 654.76953125 313.599609375 c 2
 616.708007812 42.5966796875 l 2
 613.525390625 20.041015625 596.657226562 0.5498046875 577.815429688 0.5498046875 c 2
 577.815429688 0.5498046875 469.223632812 -0.171875 307.697265625 -0.171875 c 0
 134.216796875 -0.171875 18.7265625 132.375 41.6240234375 295.299804688 c 0
 64.521484375 458.224609375 217.268554688 590.771484375 390.749023438 590.771484375 c 0
EndSplineSet
AlternateSubs2: "'salt' Stylistic Alternatives in Latin lookup 0 subtable" uniE003
EndChar

StartChar: H
Encoding: 72 72 41
Width: 686
GlyphClass: 2
Flags: MW
HStem: 400.129 84.1924<348.96 439.291>
LayerCount: 2
Back
Fore
SplineSet
379.556640625 400.12890625 m 0
 263.864257812 400.12890625 175.16015625 310.233398438 154.805664062 205.099609375 c 1
 130.618164062 33 l 2
 127.965820312 14.125 106.217773438 0 83.552734375 0 c 0
 60.5048828125 0 44.28515625 14.044921875 46.162109375 32.287109375 c 0
 46.201171875 33.408203125 47.19921875 44.7314453125 67.8818359375 191.89453125 c 0
 68.9853515625 199.743164062 70.3486328125 207.328125 72.0439453125 215.022460938 c 0
 94.541015625 375.397460938 124.051757812 584.954101562 124.051757812 584.954101562 c 2
 127.77734375 605.860351562 148.588867188 618 170.78515625 618 c 0
 193.435546875 618 210.3125 603.850585938 208.20703125 585.071289062 c 2
 181.796875 397.15625 l 1
 241.686523438 450.836914062 306.53125 484.321289062 391.389648438 484.321289062 c 0
 559.609375 484.321289062 659.44921875 352.868164062 636.801757812 191.72265625 c 0
 615.999023438 43.708984375 613.91796875 33.228515625 613.678710938 32.2578125 c 0
 610.204101562 12.763671875 589.271484375 0 567.084960938 0 c 0
 544.5390625 0 527.01953125 14.1201171875 529.673828125 33.0029296875 c 2
 529.673828125 33.0029296875 536.79296875 83.4794921875 552.465820312 195 c 0
 567.801757812 304.12109375 499.024414062 400.12890625 379.556640625 400.12890625 c 0
EndSplineSet
AlternateSubs2: "'salt' Stylistic Alternatives in Latin lookup 0 subtable" uniE004
EndChar

StartChar: I
Encoding: 73 73 42
Width: 230
GlyphClass: 2
Flags: MW
VStem: 35.4668 159.138
LayerCount: 2
Back
Fore
SplineSet
194.604492188 561.928710938 m 2
 119.56640625 28 l 2
 117.315429688 11.984375 96.1201171875 0 73.5810546875 0 c 0
 51.0068359375 0 33.2392578125 12.1630859375 35.466796875 28 c 0
 35.4775390625 28.08203125 110.352539062 561.21484375 110.448242188 561.619140625 c 0
 113.61328125 578.870117188 134.311523438 590 156.5 590 c 0
 179.150390625 590 196.3125 577.845703125 194.604492188 561.928710938 c 2
EndSplineSet
EndChar

StartChar: J
Encoding: 74 74 43
Width: 746
GlyphClass: 2
Flags: MW
HStem: 0 84.7959<289.167 402.316 289.167 419.863>
LayerCount: 2
Back
Fore
SplineSet
625.447265625 552.741210938 m 0
 625.697265625 554.478515625 625.908203125 556.099609375 626.151367188 557.788085938 c 0
 628.86328125 576.637695312 650.284179688 590.771484375 672.836914062 590.771484375 c 0
 695.884765625 590.771484375 712.071289062 575.749023438 710.385742188 558.955078125 c 0
 709.408203125 550.46875 682.236328125 296.389648438 682.15625 295.639648438 c 2
 682.129882812 295.391601562 l 1
 682.078125 295.14453125 l 2
 648.676757812 133.098632812 506.716796875 0 333.009765625 0 c 0
 171.483398438 0 63.0947265625 0.7216796875 63.0947265625 0.7216796875 c 2
 44.25 0.7216796875 32.853515625 20.232421875 36.0205078125 42.771484375 c 0
 39.189453125 65.3173828125 56.0517578125 84.8212890625 74.931640625 84.8212890625 c 2
 74.931640625 84.8212890625 233.407226562 84.7958984375 344.926757812 84.7958984375 c 0
 459.706054688 84.7958984375 573.33984375 179.31640625 589.6640625 295.471679688 c 0
 604.5625 401.477539062 622.024414062 527.763671875 625.447265625 552.741210938 c 0
EndSplineSet
EndChar

StartChar: K
Encoding: 75 75 44
Width: 611
GlyphClass: 2
Flags: W
LayerCount: 2
Back
Fore
SplineSet
527.712890625 33.1298828125 m 0
 529.297851562 28.6748046875 529.916992188 23.845703125 529.331054688 19.1142578125 c 0
 527.919921875 6.861328125 510.428710938 0 489.323242188 0 c 0
 461.921875 0 433.97265625 12.080078125 425.767578125 28.0341796875 c 2
 319.548828125 254.661132812 l 1
 144.28125 28 l 2
 131.595703125 12.0537109375 100.23046875 0 72.869140625 0 c 0
 55.361328125 0 43.2109375 5.255859375 39.484375 13.21484375 c 0
 35.4443359375 18.0927734375 33.9873046875 22.54296875 34.7548828125 28 c 0
 34.765625 28.08203125 113.575195312 589.21484375 113.670898438 589.619140625 c 0
 116.836914062 606.870117188 137.53515625 618 159.723632812 618 c 0
 182.374023438 618 199.545898438 605.938476562 197.828125 589.928710938 c 2
 137.251953125 158.904296875 l 1
 178.975585938 214.424804688 231.086914062 281.649414062 279.877929688 344.483398438 c 1
 279.859375 354.418945312 287.233398438 361.88671875 296.641601562 366.314453125 c 1
 388.216796875 484.377929688 469.533203125 589.098632812 470.001953125 589.650390625 c 0
 484.776367188 606.885742188 515.083007812 618 542.33203125 618 c 0
 552.41796875 618 560.59765625 616.416992188 566.579101562 613.372070312 c 0
 577.390625 607.509765625 579.776367188 596.111328125 571.42578125 584.893554688 c 2
 386.76171875 342.1796875 l 1
 401.680664062 311.37109375 526.291015625 36.3193359375 527.712890625 33.1298828125 c 0
EndSplineSet
EndChar

StartChar: L
Encoding: 76 76 45
Width: 663
GlyphClass: 2
Flags: MW
HStem: 0 84.7959<264.791 377.94 264.791 391.027>
LayerCount: 2
Back
Fore
SplineSet
173.905273438 557.788085938 m 2
 173.204101562 552.755859375 l 2
 169.392578125 526.293945312 151.522460938 401.219726562 136.66015625 295.471679688 c 0
 120.3359375 179.31640625 207.401367188 84.7958984375 322.180664062 84.7958984375 c 0
 433.700195312 84.7958984375 592.182617188 84.8212890625 592.184570312 84.8212890625 c 0
 611.059570312 84.8212890625 622.442382812 65.3115234375 619.274414062 42.771484375 c 0
 616.106445312 20.2265625 599.23046875 0.7216796875 580.381835938 0.7216796875 c 2
 580.381835938 0.7216796875 471.790039062 0 310.263671875 0 c 0
 136.556640625 0 32.0078125 133.099609375 44.154296875 295.14453125 c 2
 44.1728515625 295.391601562 l 1
 89.81640625 557.86328125 l 2
 92.5078125 576.57421875 113.939453125 590.771484375 136.491210938 590.771484375 c 0
 159.048828125 590.771484375 176.491210938 576.639648438 173.905273438 557.788085938 c 2
EndSplineSet
EndChar

StartChar: M
Encoding: 77 77 46
Width: 1095
GlyphClass: 2
Flags: MW
HStem: 498.129 92.4707<313.069 430.023 772.275 872.245>
LayerCount: 2
Back
Fore
SplineSet
1048.06835938 297.955078125 m 0
 1025.74707031 139.129882812 1010.03222656 32.4423828125 1010.03125 32.4345703125 c 0
 1007.42675781 13.9033203125 985.961914062 0 963.421875 0 c 0
 940.875976562 0 923.318359375 13.84375 925.919921875 32.3515625 c 2
 925.919921875 32.3515625 947.779296875 187.711914062 963.14453125 297.037109375 c 0
 978.28515625 404.767578125 930.715820312 498.12890625 813.774414062 498.12890625 c 0
 696.831054688 498.12890625 622.53125 404.767578125 607.390625 297.037109375 c 0
 592.025390625 187.7109375 570.216796875 32.3525390625 570.216796875 32.3505859375 c 0
 567.616210938 13.8466796875 546.4609375 0 522.27734375 0 c 0
 499.416992188 0 481.5859375 13.84375 484.1875 32.3515625 c 2
 484.1875 32.3515625 506.047851562 187.711914062 521.413085938 297.037109375 c 0
 536.553710938 404.767578125 488.494140625 498.12890625 371.551757812 498.12890625 c 0
 254.5859375 498.12890625 179.779296875 404.729492188 164.64453125 297.037109375 c 0
 149.279296875 187.7109375 127.470703125 32.3525390625 127.470703125 32.3505859375 c 0
 124.870117188 13.8466796875 103.415039062 0 80.875 0 c 0
 58.3291015625 0 40.77734375 13.8994140625 43.3828125 32.4345703125 c 2
 43.3828125 32.4345703125 57.6552734375 139.118164062 79.978515625 297.955078125 c 0
 102.557617188 458.6171875 219.077148438 590.599609375 384.546875 590.599609375 c 0
 493.858398438 590.599609375 547.631835938 531.235351562 585.430664062 446.670898438 c 1
 647.889648438 532.458007812 717.780273438 590.599609375 826.76953125 590.599609375 c 0
 992.243164062 590.599609375 1070.64453125 458.590820312 1048.06835938 297.955078125 c 0
EndSplineSet
EndChar

StartChar: N
Encoding: 78 78 47
Width: 727
GlyphClass: 2
Flags: MW
HStem: 498.129 92.4707<348.893 468.357>
LayerCount: 2
Back
Fore
SplineSet
680.963867188 297.955078125 m 0
 658.642578125 139.129882812 642.926757812 32.4423828125 642.92578125 32.4345703125 c 0
 640.321289062 13.9033203125 618.856445312 0 596.317382812 0 c 0
 573.771484375 0 556.212890625 13.84375 558.814453125 32.3515625 c 2
 558.814453125 32.3515625 580.673828125 187.711914062 596.0390625 297.037109375 c 0
 611.009765625 403.559570312 528.08984375 498.12890625 408.625 498.12890625 c 0
 289.16015625 498.12890625 179.658203125 403.559570312 164.6875 297.037109375 c 0
 149.322265625 187.7109375 127.513671875 32.3525390625 127.513671875 32.3505859375 c 0
 124.913085938 13.8466796875 103.45703125 0 80.9169921875 0 c 0
 58.3720703125 0 40.8203125 13.8994140625 43.42578125 32.4345703125 c 2
 43.42578125 32.4345703125 57.697265625 139.118164062 80.0205078125 297.955078125 c 0
 102.717773438 459.454101562 254.052734375 590.599609375 421.620117188 590.599609375 c 0
 589.1875 590.599609375 703.661132812 459.454101562 680.963867188 297.955078125 c 0
EndSplineSet
EndChar

StartChar: O
Encoding: 79 79 48
Width: 728
GlyphClass: 2
Flags: MW
HStem: 0 92.4707<272.949 398.798 272.949 410.687> 492.729 92.4707<329.202 455.051>
LayerCount: 2
Back
Fore
SplineSet
392.125976562 492.728515625 m 0
 266.278320312 492.728515625 151.841796875 398.396484375 136.97265625 292.599609375 c 0
 122.103515625 186.801757812 210.024414062 92.470703125 335.874023438 92.470703125 c 0
 461.721679688 92.470703125 576.158203125 186.801757812 591.02734375 292.599609375 c 0
 605.896484375 398.396484375 517.975585938 492.728515625 392.125976562 492.728515625 c 0
322.877929688 0 m 0
 147.259765625 0 25.5166015625 130.91015625 48.240234375 292.599609375 c 0
 70.9638671875 454.2890625 229.50390625 585.19921875 405.122070312 585.19921875 c 0
 580.740234375 585.19921875 702.483398438 454.2890625 679.759765625 292.599609375 c 0
 657.036132812 130.91015625 498.49609375 0 322.877929688 0 c 0
EndSplineSet
EndChar

StartChar: P
Encoding: 80 80 49
Width: 771
GlyphClass: 2
Flags: MW
HStem: 0 92.4707<323.964 445.66 319.812 457.549> 492.729 92.4707<376.064 501.913>
LayerCount: 2
Back
Fore
SplineSet
84.48828125 -107.287109375 m 0
 67.1884765625 -107.430664062 39.6455078125 -105.627929688 41.7666015625 -90.5322265625 c 2
 95.009765625 291.939453125 l 2
 117.78515625 453.994140625 276.366210938 585.19921875 451.984375 585.19921875 c 0
 627.602539062 585.19921875 749.345703125 454.2890625 726.622070312 292.599609375 c 0
 703.8984375 130.91015625 545.358398438 0 369.740234375 0 c 0
 278.1875 0 200.646484375 36.53125 151.743164062 93.640625 c 1
 125.7265625 -91.529296875 l 2
 123.750976562 -105.584960938 99.9111328125 -107.158203125 84.48828125 -107.287109375 c 0
382.736328125 92.470703125 m 0
 508.583984375 92.470703125 623.020507812 186.801757812 637.889648438 292.599609375 c 0
 652.758789062 398.396484375 564.837890625 492.728515625 438.98828125 492.728515625 c 0
 313.140625 492.728515625 198.704101562 398.396484375 183.834960938 292.599609375 c 0
 168.965820312 186.801757812 256.88671875 92.470703125 382.736328125 92.470703125 c 0
EndSplineSet
EndChar

StartChar: Q
Encoding: 81 81 50
Width: 731
GlyphClass: 2
Flags: MW
HStem: 0 92.4707<274.489 370.058> 492.729 92.4707<330.742 456.591>
LayerCount: 2
Back
Fore
SplineSet
681.206054688 291.932617188 m 2
 626.944335938 -90.5322265625 l 2
 624.856445312 -105.392578125 597.703125 -107.284179688 580.749023438 -107.291992188 c 0
 564.95703125 -107.298828125 540.696289062 -105.822265625 542.705078125 -91.529296875 c 2
 568.735351562 93.640625 l 1
 502.581054688 35.4912109375 415.698242188 0 324.41796875 0 c 0
 148.799804688 0 27.056640625 130.91015625 49.7802734375 292.599609375 c 0
 72.50390625 454.2890625 231.043945312 585.19921875 406.662109375 585.19921875 c 0
 582.280273438 585.19921875 703.983398438 453.999023438 681.206054688 291.932617188 c 2
393.666015625 492.728515625 m 0
 267.818359375 492.728515625 153.381835938 398.396484375 138.512695312 292.599609375 c 0
 123.643554688 186.801757812 211.564453125 92.470703125 337.4140625 92.470703125 c 0
 463.26171875 92.470703125 577.698242188 186.801757812 592.567382812 292.599609375 c 0
 607.436523438 398.396484375 519.515625 492.728515625 393.666015625 492.728515625 c 0
EndSplineSet
EndChar

StartChar: R
Encoding: 82 82 51
Width: 746
GlyphClass: 2
Flags: MW
HStem: 505.976 84.7959<343.684 456.833>
LayerCount: 2
Back
Fore
SplineSet
120.552734375 38.0302734375 m 0
 120.302734375 36.29296875 120.090820312 34.671875 119.848632812 32.9833984375 c 0
 117.13671875 14.1337890625 95.7158203125 0 73.1630859375 0 c 0
 50.115234375 0 33.9287109375 15.0224609375 35.6142578125 31.81640625 c 0
 36.5908203125 40.302734375 63.763671875 294.381835938 63.8447265625 295.131835938 c 2
 63.8701171875 295.379882812 l 1
 63.921875 295.626953125 l 2
 97.322265625 457.672851562 239.283203125 590.771484375 412.990234375 590.771484375 c 0
 574.516601562 590.771484375 682.905273438 590.049804688 682.905273438 590.049804688 c 2
 701.75 590.049804688 713.146484375 570.5390625 709.979492188 548 c 0
 706.810546875 525.454101562 689.947265625 505.950195312 671.068359375 505.950195312 c 2
 671.068359375 505.950195312 512.592773438 505.975585938 401.073242188 505.975585938 c 0
 286.293945312 505.975585938 172.66015625 411.455078125 156.3359375 295.299804688 c 0
 141.4375 189.293945312 123.975585938 63.0078125 120.552734375 38.0302734375 c 0
EndSplineSet
EndChar

StartChar: S
Encoding: 83 83 52
Width: 748
GlyphClass: 2
Flags: MW
HStem: 0 84.7959<288.164 403.215 288.164 417.138> 247.146 84.7969<504.373 504.373> 498.573 84.7959<341.291 456.262>
LayerCount: 2
Back
Fore
SplineSet
240.805664062 331.221679688 m 0
 240.813476562 331.221679688 352.413085938 331.943359375 518.375 331.943359375 c 0
 531.295898438 331.943359375 544.87109375 332.44140625 558.405273438 332.442382812 c 0
 622.40234375 332.451171875 684.446289062 319.05078125 665.83984375 186.66015625 c 0
 643.57421875 28.23046875 502.268554688 0 332.006835938 0 c 0
 170.48046875 0 62.091796875 0.7216796875 62.091796875 0.7216796875 c 2
 43.2470703125 0.7216796875 31.8505859375 20.232421875 35.017578125 42.771484375 c 0
 38.1865234375 65.3173828125 55.048828125 84.8212890625 73.9287109375 84.8212890625 c 2
 73.9287109375 84.8212890625 232.404296875 84.7958984375 343.923828125 84.7958984375 c 0
 462.506835938 84.7958984375 562.348632812 108.243164062 573.323242188 186.331054688 c 0
 573.75390625 189.395507812 576.171875 193.029296875 577.3203125 201.23828125 c 0
 579.682617188 218.104492188 576.18359375 247.243164062 505.125 247.147460938 c 2
 504.373046875 247.146484375 l 2
 496.276367188 249.450195312 381.663085938 246.42578125 227.639648438 246.42578125 c 0
 215.065429688 246.42578125 201.8515625 245.927734375 188.680664062 245.926757812 c 0
 124.895507812 245.91796875 62.8798828125 259.51953125 81.765625 393.897460938 c 0
 104.3671875 554.712890625 245.260742188 583.369140625 410.883789062 583.369140625 c 0
 576.857421875 583.369140625 685.909179688 582.647460938 685.909179688 582.647460938 c 2
 704.75390625 582.647460938 716.150390625 563.13671875 712.982421875 540.59765625 c 0
 709.814453125 518.051757812 692.952148438 498.547851562 674.072265625 498.547851562 c 2
 674.072265625 498.547851562 513.556640625 498.573242188 398.966796875 498.573242188 c 0
 283.614257812 498.573242188 185.55078125 474.400390625 174.236328125 393.897460938 c 0
 173.794921875 390.756835938 171.474609375 387.229492188 170.244140625 379.010742188 c 0
 167.641601562 361.625976562 170.515625 331.037109375 240.805664062 331.221679688 c 0
EndSplineSet
AlternateSubs2: "'salt' Stylistic Alternatives in Latin lookup 0 subtable" uniE016
EndChar

StartChar: T
Encoding: 84 84 53
Width: 605
GlyphClass: 2
Flags: MW
HStem: 507.337 82.7129
LayerCount: 2
Back
Fore
SplineSet
39.513671875 548.701171875 m 0
 42.6435546875 570.973632812 59.5087890625 589.528320312 78.2529296875 590.049804688 c 2
 293.48828125 590.049804688 l 2
 299.041015625 591.471679688 303.296875 592 308.598632812 592 c 0
 313.706054688 592 320.041015625 590.90234375 323.109375 590.049804688 c 2
 538.32421875 590.049804688 l 2
 557.19921875 590.049804688 568.627929688 570.864257812 565.513671875 548.701171875 c 0
 562.393554688 526.502929688 545.368164062 507.350585938 526.704101562 507.3515625 c 2
 526.704101562 507.3515625 440.263671875 507.3125 340.265625 507.286132812 c 1
 273.532226562 32.4501953125 l 2
 270.923828125 13.8896484375 248.75390625 0 225.3984375 0 c 0
 202.005859375 0 183.8046875 14.0947265625 186.385742188 32.4482421875 c 2
 186.385742188 32.4482421875 233.951171875 371.899414062 253.037109375 507.266601562 c 1
 150.198242188 507.250976562 67.6787109375 507.243164062 66.640625 507.336914062 c 0
 46.6748046875 508.068359375 36.447265625 526.881835938 39.513671875 548.701171875 c 0
EndSplineSet
EndChar

StartChar: U
Encoding: 85 85 54
Width: 721
GlyphClass: 2
Flags: MW
HStem: 0 92.4707<255.642 375.106 255.642 386.162>
LayerCount: 2
Back
Fore
SplineSet
643.081054688 590.599609375 m 0
 665.625976562 590.599609375 683.181640625 576.729492188 680.573242188 558.165039062 c 2
 680.573242188 558.165039062 666.30078125 451.481445312 643.978515625 292.64453125 c 0
 621.28125 131.145507812 469.9453125 0 302.377929688 0 c 0
 134.810546875 0 20.337890625 131.145507812 43.03515625 292.64453125 c 0
 65.357421875 451.481445312 81.0732421875 558.165039062 81.0732421875 558.165039062 c 2
 83.677734375 576.696289062 105.141601562 590.599609375 127.680664062 590.599609375 c 0
 150.2265625 590.599609375 167.78515625 576.755859375 165.184570312 558.248046875 c 2
 165.184570312 558.248046875 143.32421875 402.887695312 127.959960938 293.5625 c 0
 112.989257812 187.040039062 195.909179688 92.470703125 315.374023438 92.470703125 c 0
 434.838867188 92.470703125 544.340820312 187.040039062 559.311523438 293.5625 c 0
 574.67578125 402.888671875 596.484375 558.247070312 596.485351562 558.249023438 c 0
 599.0859375 576.752929688 620.541015625 590.599609375 643.081054688 590.599609375 c 0
EndSplineSet
EndChar

StartChar: V
Encoding: 86 86 55
Width: 588
GlyphClass: 2
Flags: W
LayerCount: 2
Back
Fore
SplineSet
127.875976562 31.2734375 m 2
 127.84375 31.41015625 l 1
 41.1162109375 555.470703125 l 2
 37.3515625 574.377929688 54.5205078125 590 77.474609375 590 c 0
 100.577148438 590 120.41796875 576.74609375 125.28125 558.19140625 c 0
 125.390625 557.801757812 183.911132812 213.776367188 206.239257812 85.158203125 c 1
 312.0390625 96.0966796875 411.270507812 185.9453125 426.5625 294.75 c 0
 441.459960938 400.755859375 458.922851562 527.041992188 462.344726562 552.01953125 c 0
 462.594726562 553.756835938 462.807617188 555.377929688 463.049804688 557.06640625 c 0
 465.760742188 575.916015625 487.181640625 590.049804688 509.734375 590.049804688 c 0
 532.782226562 590.049804688 548.96875 575.02734375 547.283203125 558.233398438 c 0
 546.306640625 549.747070312 519.134765625 295.66796875 519.053710938 294.91796875 c 2
 519.02734375 294.669921875 l 1
 518.9765625 294.422851562 l 2
 485.575195312 132.376953125 343.861328125 -0.7216796875 173.232421875 -0.7216796875 c 0
 129.530273438 -0.7216796875 132.055664062 21.87109375 127.875976562 31.2734375 c 2
EndSplineSet
AlternateSubs2: "'salt' Stylistic Alternatives in Latin lookup 0 subtable" uniE015
EndChar

StartChar: W
Encoding: 87 87 56
Width: 1089
GlyphClass: 2
Flags: MW
HStem: 0 92.4707<219.755 319.724 661.977 778.931>
LayerCount: 2
Back
Fore
SplineSet
43.931640625 292.64453125 m 0
 66.2529296875 451.469726562 81.9677734375 558.157226562 81.96875 558.165039062 c 0
 84.5732421875 576.696289062 106.037109375 590.599609375 128.577148438 590.599609375 c 0
 151.123046875 590.599609375 168.680664062 576.755859375 166.080078125 558.248046875 c 2
 166.080078125 558.248046875 144.219726562 402.887695312 128.85546875 293.5625 c 0
 113.71484375 185.83203125 161.284179688 92.470703125 278.225585938 92.470703125 c 0
 395.168945312 92.470703125 469.46875 185.83203125 484.609375 293.5625 c 0
 499.973632812 402.888671875 521.782226562 558.247070312 521.783203125 558.249023438 c 0
 524.383789062 576.752929688 545.538085938 590.599609375 569.721679688 590.599609375 c 0
 592.58203125 590.599609375 610.413085938 576.755859375 607.8125 558.248046875 c 2
 607.8125 558.248046875 585.951171875 402.887695312 570.586914062 293.5625 c 0
 555.446289062 185.83203125 603.505859375 92.470703125 720.448242188 92.470703125 c 0
 837.4140625 92.470703125 912.219726562 185.870117188 927.35546875 293.5625 c 0
 942.719726562 402.888671875 964.528320312 558.247070312 964.529296875 558.249023438 c 0
 967.129882812 576.752929688 988.583984375 590.599609375 1011.12402344 590.599609375 c 0
 1033.66992188 590.599609375 1051.22167969 576.700195312 1048.6171875 558.165039062 c 2
 1048.6171875 558.165039062 1034.34375 451.481445312 1012.02148438 292.64453125 c 0
 989.44140625 131.982421875 872.921875 0 707.452148438 0 c 0
 598.140625 0 544.3671875 59.3642578125 506.568359375 143.928710938 c 1
 444.109375 58.1416015625 374.21875 0 265.229492188 0 c 0
 99.755859375 0 21.35546875 132.008789062 43.931640625 292.64453125 c 0
EndSplineSet
EndChar

StartChar: X
Encoding: 88 88 57
Width: 716
GlyphClass: 2
Flags: W
LayerCount: 2
Back
Fore
SplineSet
675.732421875 555.869140625 m 1
 412.63671875 295.049804688 l 1
 509.766601562 163.809570312 602.079101562 34.5947265625 602.1796875 34.4521484375 c 2
 602.373046875 34.1787109375 l 1
 602.438476562 33.2998046875 l 2
 604.220703125 28.5341796875 604.892578125 23.5185546875 604.223632812 18.515625 c 0
 602.671875 6.5869140625 585.489257812 0 564.702148438 0 c 0
 536.9453125 0 509.587890625 12.6533203125 500.809570312 28.283203125 c 2
 349.284179688 232.438476562 l 1
 140.375976562 28.283203125 l 2
 126.372070312 11.6640625 95.685546875 0 68.5341796875 0 c 0
 57.7666015625 0 49.1376953125 1.8125 43.09375 5.287109375 c 0
 33.203125 11.431640625 31.669921875 22.712890625 40.1572265625 33.2998046875 c 1
 40.470703125 34.1787109375 l 1
 40.7392578125 34.4521484375 l 1
 40.7392578125 34.4521484375 171.29296875 165.599609375 303.529296875 295.049804688 c 1
 113.747070312 555.869140625 l 1
 113.680664062 556.921875 l 2
 112.103515625 561.446289062 111.485351562 566.147460938 112.014648438 570.834960938 c 0
 113.228515625 583.157226562 130.344726562 590 151.453125 590 c 0
 179.20703125 590 206.579101562 577.306640625 215.317382812 561.7265625 c 0
 218.903320312 556.840820312 289.134765625 462.096679688 366.884765625 357.673828125 c 1
 476.685546875 464.73046875 570.862304688 556.852539062 575.809570312 561.7265625 c 0
 589.748046875 578.282226562 620.478515625 590 647.62109375 590 c 0
 658.12109375 590 666.538085938 588.299804688 672.521484375 585.001953125 c 0
 682.723632812 578.967773438 684.352539062 567.680664062 676.095703125 556.921875 c 1
 675.732421875 555.869140625 l 1
EndSplineSet
EndChar

StartChar: Y
Encoding: 89 89 58
Width: 680
GlyphClass: 2
Flags: MW
HStem: -65.3223 84.7959<209.163 323.843 209.163 336.268> 106.477 83.9941<243.705 334.063>
LayerCount: 2
Back
Fore
SplineSet
303.438476562 190.470703125 m 0
 419.130859375 190.470703125 507.8359375 280.366210938 528.190429688 385.5 c 1
 552.376953125 557.599609375 l 2
 555.030273438 576.474609375 576.77734375 590.599609375 599.442382812 590.599609375 c 0
 622.490234375 590.599609375 638.708007812 576.541992188 636.830078125 558.283203125 c 0
 636.790039062 557.161132812 635.790039062 545.826171875 615.088867188 398.528320312 c 0
 613.984375 390.671875 612.620117188 383.081054688 610.923828125 375.37890625 c 0
 588.771484375 217.466796875 584.68359375 188.181640625 584.35546875 186.658203125 c 0
 583.743164062 180.219726562 583.340820312 176.83203125 582.635742188 171.708007812 c 0
 559.443359375 2.98828125 417.779296875 -65.322265625 254.756835938 -65.322265625 c 0
 142.817382812 -65.322265625 124.752929688 -66.677734375 120.5546875 -63.5380859375 c 0
 103.977539062 -58.5517578125 97.326171875 -42.2333984375 100.092773438 -22.55078125 c 0
 103.260742188 -0.0048828125 120.342773438 19.4990234375 139.83203125 19.4990234375 c 2
 139.83203125 19.4990234375 151.650390625 19.4736328125 266.674804688 19.4736328125 c 0
 381.01171875 19.4736328125 482.365234375 56.7392578125 498.215820312 169.522460938 c 2
 500.202148438 183.67578125 l 2
 500.211914062 186.979492188 500.180664062 185.845703125 500.375 187.5859375 c 2
 501.221679688 193.606445312 l 1
 441.334960938 139.948242188 376.4921875 106.4765625 291.633789062 106.4765625 c 0
 123.4140625 106.4765625 23.5673828125 237.875976562 46.205078125 398.955078125 c 0
 66.9990234375 546.909179688 69.0791015625 557.384765625 69.318359375 558.354492188 c 0
 72.7919921875 577.841796875 93.7236328125 590.599609375 115.91015625 590.599609375 c 0
 138.456054688 590.599609375 155.975585938 576.479492188 153.322265625 557.596679688 c 2
 153.322265625 557.596679688 146.203125 507.120117188 130.529296875 395.599609375 c 0
 115.193359375 286.478515625 183.970703125 190.470703125 303.438476562 190.470703125 c 0
EndSplineSet
AlternateSubs2: "'salt' Stylistic Alternatives in Latin lookup 0 subtable" uniE00D
EndChar

StartChar: Z
Encoding: 90 90 59
Width: 722
GlyphClass: 2
Flags: MW
HStem: 0 84.7959<273.79 388.841 273.79 401.927> 247.147 84.7959 498.573 84.7959<337.049 452.021>
LayerCount: 2
Back
Fore
SplineSet
39.7978515625 186.66015625 m 0
 62.392578125 347.431640625 154.106445312 331.943359375 228.098632812 331.943359375 c 0
 394.076171875 331.943359375 505.4453125 331.221679688 505.4453125 331.221679688 c 2
 602.708007812 330.96484375 589.112304688 390.05859375 589.651367188 393.897460938 c 0
 600.965820312 474.400390625 509.697265625 498.573242188 394.344726562 498.573242188 c 0
 279.75390625 498.573242188 119.232421875 498.547851562 119.23046875 498.547851562 c 0
 100.35546875 498.547851562 88.97265625 518.057617188 92.1396484375 540.59765625 c 0
 95.30859375 563.142578125 112.184570312 582.647460938 131.033203125 582.647460938 c 2
 131.033203125 582.647460938 240.288085938 583.369140625 406.26171875 583.369140625 c 0
 571.885742188 583.369140625 704.723632812 554.71484375 682.122070312 393.897460938 c 0
 659.1875 230.704101562 567.505859375 246.42578125 494.796875 246.42578125 c 0
 360.108398438 246.42578125 257.3046875 247.014648438 226.895507812 247.134765625 c 0
 223.9765625 247.138671875 220.852539062 247.142578125 217.514648438 247.147460938 c 0
 118.8828125 247.28125 132.745117188 190.051757812 132.22265625 186.331054688 c 0
 121.248046875 108.243164062 214.498046875 84.7958984375 333.081054688 84.7958984375 c 0
 444.6015625 84.7958984375 603.083007812 84.8212890625 603.084960938 84.8212890625 c 0
 621.959960938 84.8212890625 633.342773438 65.3115234375 630.174804688 42.771484375 c 0
 627.006835938 20.2265625 610.130859375 0.7216796875 591.282226562 0.7216796875 c 2
 591.282226562 0.7216796875 482.690429688 0 321.1640625 0 c 0
 150.901367188 0 17.5322265625 28.2294921875 39.7978515625 186.66015625 c 0
218.337890625 247.154296875 m 2
 218.337890625 247.154296875 220.458984375 247.146484375 223.786132812 247.146484375 c 1
 221.09375 247.155273438 219.263671875 247.154296875 218.337890625 247.154296875 c 2
EndSplineSet
AlternateSubs2: "'salt' Stylistic Alternatives in Latin lookup 0 subtable" uniE017
EndChar

StartChar: bracketleft
Encoding: 91 91 60
Width: 362
GlyphClass: 2
Flags: MW
HStem: -5.17188 84.7959<168.468 209.691> 500.976 84.7959<227.685 290.264>
LayerCount: 2
Back
Fore
SplineSet
292.743164062 585.771484375 m 1
 126.798828125 585.771484375 72.1259765625 450.458984375 49.6171875 290.299804688 c 0
 27.1083984375 130.141601562 43.7509765625 -5.171875 209.69140625 -5.171875 c 1
 239.506835938 0 246.918945312 24.9140625 248.698242188 37.57421875 c 0
 251.866210938 60.1142578125 240.483398438 79.6240234375 221.608398438 79.6240234375 c 0
 115.328125 79.6240234375 125.189453125 170.061523438 142.087890625 290.299804688 c 0
 158.986328125 410.538085938 174.544921875 500.975585938 280.825195312 500.975585938 c 0
 299.703125 500.975585938 316.56640625 520.479492188 319.735351562 543.025390625 c 0
 321.514648438 555.685546875 321.598632812 577 292.743164062 585.771484375 c 1
EndSplineSet
EndChar

StartChar: backslash
Encoding: 92 92 61
Width: 299
GlyphClass: 2
Flags: MW
VStem: 43.5186 211.843
LayerCount: 2
Back
Fore
SplineSet
43.5185546875 588.33203125 m 2
 39.7021484375 607.497070312 56.9091796875 623 79.849609375 623 c 0
 102.875 623 122.932617188 609.2109375 127.4921875 591.819335938 c 0
 128.225585938 589.591796875 255.350585938 29.7763671875 255.361328125 29.7275390625 c 0
 259.6875 10.7158203125 241.904296875 -5 219.04296875 -5 c 0
 196.423828125 -5 175.408203125 8.6201171875 171.391601562 26.2734375 c 2
 43.5185546875 588.33203125 l 2
EndSplineSet
EndChar

StartChar: bracketright
Encoding: 93 93 62
Width: 362
GlyphClass: 2
Flags: MW
HStem: -5.17188 84.7959<71.7148 134.292 71.7148 152.206> 500.976 84.7959<152.287 193.509>
LayerCount: 2
Back
Fore
SplineSet
152.287109375 585.771484375 m 1
 318.231445312 585.771484375 334.869140625 450.458984375 312.360351562 290.299804688 c 0
 289.8515625 130.141601562 235.17578125 -5.171875 69.2353515625 -5.171875 c 1
 40.873046875 0 40.462890625 24.9140625 42.2421875 37.57421875 c 0
 45.41015625 60.1142578125 62.27734375 79.6240234375 81.15234375 79.6240234375 c 0
 187.432617188 79.6240234375 202.991210938 170.061523438 219.889648438 290.299804688 c 0
 236.788085938 410.538085938 246.649414062 500.975585938 140.369140625 500.975585938 c 0
 121.491210938 500.975585938 110.110351562 520.479492188 113.279296875 543.025390625 c 0
 115.05859375 555.685546875 120.96484375 577 152.287109375 585.771484375 c 1
EndSplineSet
EndChar

StartChar: asciicircum
Encoding: 94 94 63
Width: 488
GlyphClass: 2
Flags: MW
HStem: 489 280<60.1587 291.184 268.546 420.545>
VStem: 375.203 65.4424<519.695 523.331>
LayerCount: 2
Back
Fore
SplineSet
279.703125 769 m 0
 302.6640625 769 322.903320312 754.760742188 327.20703125 738.348632812 c 0
 333.310546875 727.080078125 440.170898438 524.805664062 440.184570312 524.779296875 c 2
 440.5390625 524.108398438 l 1
 440.645507812 523.331054688 l 2
 443.008789062 505.892578125 430.1484375 489 410.94140625 489 c 0
 392.405273438 489 377.74609375 504.422851562 375.203125 519.6953125 c 1
 268.479492188 689.139648438 l 1
 114.126953125 519.6953125 l 1
 106.651367188 502.9921875 87.6845703125 489 69.76171875 489 c 0
 50.5556640625 489 42.443359375 505.892578125 49.708984375 523.331054688 c 2
 50.0322265625 524.108398438 l 1
 50.576171875 524.779296875 l 1
 50.576171875 524.779296875 215.741210938 728.815429688 223.583984375 738.348632812 c 0
 233.178710938 756.010742188 257.389648438 769 279.703125 769 c 0
EndSplineSet
EndChar

StartChar: underscore
Encoding: 95 95 64
Width: 882
GlyphClass: 2
Flags: MW
HStem: -138.019 84.1143
LayerCount: 2
Back
Fore
SplineSet
110.850585938 -53.904296875 m 2
 782.921875 -53.904296875 l 2
 801.796875 -53.904296875 813.180664062 -73.4150390625 810.012695312 -95.9541015625 c 0
 806.83984375 -118.528320312 789.76953125 -138.004882812 771.104492188 -138.00390625 c 0
 771.022460938 -138.00390625 99.4033203125 -138.056640625 99.0048828125 -138.018554688 c 0
 79.107421875 -137.276367188 68.89453125 -118.142578125 72.0126953125 -95.9541015625 c 0
 75.1953125 -73.3046875 92.10546875 -54.4345703125 110.850585938 -53.904296875 c 2
EndSplineSet
EndChar

StartChar: grave
Encoding: 96 96 65
Width: 229
GlyphClass: 2
Flags: MW
HStem: 602.5 102.5<74.916 116.792>
LayerCount: 2
Back
Fore
SplineSet
180.955078125 584.283203125 m 0
 180.810546875 565.223632812 129.794921875 556.69921875 99.453125 552.547851562 c 2
 75.4638671875 549.265625 l 1
 97.4287109375 561.75390625 l 2
 121.865234375 575.646484375 137.403320312 578.716796875 130.58984375 605.875976562 c 1
 125.017578125 603.473632812 119.866210938 602.5 113.717773438 602.5 c 0
 86.154296875 602.5 59.4208984375 625.096679688 50.7763671875 651.63671875 c 0
 48.2158203125 659.493164062 47.423828125 667.176757812 48.4140625 674.291992188 c 0
 50.8720703125 691.962890625 64.8427734375 705 84.9892578125 705 c 0
 112.73828125 705 140.1875 682.069335938 149.049804688 656.2734375 c 1
 161.12890625 635.178710938 182.088867188 603.5390625 180.955078125 584.283203125 c 0
EndSplineSet
EndChar

StartChar: a
Encoding: 97 97 66
Width: 730
GlyphClass: 2
Flags: MW
HStem: 0 92.4707<273.95 369.519> 492.729 92.4707<330.203 456.052>
LayerCount: 2
Back
Fore
SplineSet
680.7578125 292.580078125 m 2
 641.262695312 15.185546875 l 2
 639.209960938 0.57421875 612.061523438 -1.28515625 595.107421875 -1.2919921875 c 0
 579.315429688 -1.298828125 555.0546875 0.177734375 557.063476562 14.470703125 c 2
 568.196289062 93.640625 l 1
 502.041992188 35.4912109375 415.158203125 0 323.87890625 0 c 0
 148.260742188 0 26.517578125 130.91015625 49.2412109375 292.599609375 c 0
 71.96484375 454.2890625 230.504882812 585.19921875 406.123046875 585.19921875 c 0
 581.741210938 585.19921875 703.485351562 454.291992188 680.7578125 292.580078125 c 2
393.126953125 492.728515625 m 0
 267.279296875 492.728515625 152.842773438 398.396484375 137.973632812 292.599609375 c 0
 123.104492188 186.801757812 211.025390625 92.470703125 336.875 92.470703125 c 0
 462.72265625 92.470703125 577.159179688 186.801757812 592.028320312 292.599609375 c 0
 606.897460938 398.396484375 518.9765625 492.728515625 393.126953125 492.728515625 c 0
EndSplineSet
EndChar

StartChar: b
Encoding: 98 98 67
Width: 730
GlyphClass: 2
Flags: MW
HStem: 0 92.4707<273.895 399.743 273.895 411.632> 492.729 92.4707<360.427 455.996>
LayerCount: 2
Back
Fore
SplineSet
49.3115234375 293.493164062 m 2
 108.881835938 713.731445312 l 2
 110.969726562 728.591796875 138.123046875 730.483398438 155.077148438 730.491210938 c 0
 170.869140625 730.498046875 195.129882812 729.021484375 193.12109375 714.728515625 c 2
 161.75 491.557617188 l 1
 227.905273438 549.708007812 314.787109375 585.19921875 406.067382812 585.19921875 c 0
 581.685546875 585.19921875 703.428710938 454.2890625 680.705078125 292.599609375 c 0
 657.981445312 130.91015625 499.44140625 0 323.823242188 0 c 0
 148.205078125 0 26.5166015625 131.302734375 49.3115234375 293.493164062 c 2
336.819335938 92.470703125 m 0
 462.666992188 92.470703125 577.103515625 186.802734375 591.97265625 292.599609375 c 0
 606.841796875 398.397460938 518.920898438 492.728515625 393.071289062 492.728515625 c 0
 267.223632812 492.728515625 152.787109375 398.397460938 137.91796875 292.599609375 c 0
 123.048828125 186.802734375 210.969726562 92.470703125 336.819335938 92.470703125 c 0
EndSplineSet
EndChar

StartChar: c
Encoding: 99 99 68
Width: 726
GlyphClass: 2
Flags: MW
HStem: -0.171875 84.7959<262.731 375.881 262.731 388.966> 495.976 84.7959<317.021 430.164>
LayerCount: 2
Back
Fore
SplineSet
384.774414062 580.771484375 m 0
 550.768554688 580.771484375 659.756835938 580.049804688 659.764648438 580.049804688 c 0
 678.609375 580.049804688 690.005859375 560.5390625 686.838867188 538 c 0
 683.669921875 515.454101562 666.807617188 495.950195312 647.927734375 495.950195312 c 2
 647.927734375 495.950195312 487.469726562 495.975585938 372.857421875 495.975585938 c 0
 261.18359375 495.975585938 149.834960938 403.698242188 133.897460938 290.299804688 c 0
 117.9609375 176.901367188 205.341796875 84.6240234375 320.12109375 84.6240234375 c 0
 431.641601562 84.6240234375 590.122070312 84.6494140625 590.124023438 84.6494140625 c 0
 608.999023438 84.6494140625 620.381835938 65.1396484375 617.21484375 42.599609375 c 0
 614.045898438 20.0546875 597.169921875 0.5498046875 578.321289062 0.5498046875 c 2
 578.321289062 0.5498046875 469.729492188 -0.171875 308.203125 -0.171875 c 0
 134.72265625 -0.171875 18.9169921875 130.1328125 41.4267578125 290.299804688 c 0
 63.9365234375 450.466796875 215.987304688 580.771484375 384.774414062 580.771484375 c 0
EndSplineSet
EndChar

StartChar: d
Encoding: 100 100 69
Width: 769
GlyphClass: 2
Flags: MW
HStem: 0 92.4707<265.416 391.265 265.416 403.154> 492.729 92.4707<321.669 443.365 309.78 447.518>
LayerCount: 2
Back
Fore
SplineSet
688.181640625 730.486328125 m 0
 705.481445312 730.629882812 733.024414062 728.827148438 730.903320312 713.731445312 c 2
 672.3515625 293.487304688 l 2
 649.55859375 131.307617188 490.962890625 0 315.344726562 0 c 0
 139.7265625 0 17.9833984375 130.91015625 40.70703125 292.599609375 c 0
 63.4306640625 454.2890625 221.970703125 585.19921875 397.588867188 585.19921875 c 0
 489.141601562 585.19921875 566.682617188 548.668945312 615.5859375 491.557617188 c 1
 646.943359375 714.728515625 l 2
 648.918945312 728.784179688 672.758789062 730.357421875 688.181640625 730.486328125 c 0
384.592773438 492.728515625 m 0
 258.745117188 492.728515625 144.30859375 398.397460938 129.439453125 292.599609375 c 0
 114.5703125 186.802734375 202.491210938 92.470703125 328.340820312 92.470703125 c 0
 454.188476562 92.470703125 568.625 186.802734375 583.494140625 292.599609375 c 0
 598.36328125 398.397460938 510.442382812 492.728515625 384.592773438 492.728515625 c 0
EndSplineSet
EndChar

StartChar: e
Encoding: 101 101 70
Width: 691
GlyphClass: 2
Flags: W
LayerCount: 2
Back
Fore
SplineSet
626.229492188 156.776367188 m 0
 555.611328125 96.041015625 570.228515625 95.4453125 473.112304688 40.6015625 c 0
 325.575195312 -40.2822265625 121.817382812 -3.9462890625 59.13671875 136.120117188 c 0
 -3.4052734375 276.185546875 76.529296875 458.247070312 237.635742188 542.3984375 c 0
 371.779296875 611.032226562 520.743164062 593.752929688 605.017578125 508.848632812 c 0
 613.83203125 499.702148438 630.3359375 485.99609375 641.541015625 471.669921875 c 0
 652.114257812 457.903320312 660.432617188 439.547851562 643.375 425.66015625 c 0
 572.565429688 366.740234375 497.877929688 311.201171875 420.59375 258.077148438 c 0
 405.520507812 247.723632812 378.2890625 243.049804688 365.4140625 262.48828125 c 0
 353.524414062 280.4375 356.928710938 303.525390625 372.765625 315.737304688 c 0
 402.709960938 338.110351562 530.7109375 423.563476562 535.393554688 441.385742188 c 1
 457.184570312 480.16796875 368.565429688 512.02734375 273.8984375 462.31640625 c 0
 156.923828125 402.450195312 100.8828125 272.176757812 142.215820312 180.486328125 c 0
 145.783203125 172.610351562 150.217773438 165.046875 155.3125 157.848632812 c 0
 209.4609375 80.41796875 337.015625 46.2666015625 435.21484375 114.796875 c 2
 573.122070312 210.07421875 l 2
 587.875 220.793945312 608.801757812 223.81640625 624.681640625 208.842773438 c 0
 640.346679688 195.135742188 641.684570312 169.37890625 626.229492188 156.776367188 c 0
EndSplineSet
AlternateSubs2: "'salt' Stylistic Alternatives in Latin lookup 0 subtable" uniE00A
EndChar

StartChar: f
Encoding: 102 102 71
Width: 745
GlyphClass: 2
Flags: MW
HStem: 274 84.0996<195.87 217.427 217.386 217.427 217.386 589.979> 495.976 84.7959<338.994 452.137>
LayerCount: 2
Back
Fore
SplineSet
628.819335938 316.049804688 m 0
 625.635742188 293.400390625 608.725585938 274.530273438 589.979492188 274 c 2
 205.569335938 274 l 2
 186.169921875 274 174.651367188 293.510742188 177.819335938 316.049804688 c 0
 180.9921875 338.624023438 198.206054688 358.100585938 217.385742188 358.099609375 c 0
 217.46875 358.099609375 601.427734375 358.15234375 601.829101562 358.11328125 c 0
 621.721679688 357.372070312 631.9375 338.23828125 628.819335938 316.049804688 c 0
120.685546875 37.2783203125 m 0
 120.440429688 35.5751953125 120.232421875 33.9873046875 119.995117188 32.3310546875 c 0
 117.3359375 13.8544921875 95.9541015625 0 73.4013671875 0 c 0
 50.353515625 0 34.130859375 14.767578125 35.7763671875 31.2783203125 c 0
 36.7333984375 39.62109375 63.3017578125 289.399414062 63.380859375 290.13671875 c 2
 63.40625 290.379882812 l 1
 63.45703125 290.623046875 l 2
 96.47265625 449.92578125 237.740234375 580.771484375 406.748046875 580.771484375 c 0
 572.75390625 580.771484375 681.73828125 580.049804688 681.73828125 580.049804688 c 2
 700.583007812 580.049804688 711.979492188 560.5390625 708.8125 538 c 0
 705.643554688 515.454101562 688.780273438 495.950195312 669.901367188 495.950195312 c 2
 669.901367188 495.950195312 509.443359375 495.975585938 394.831054688 495.975585938 c 0
 283.157226562 495.975585938 171.755859375 403.323242188 155.75390625 289.463867188 c 0
 141.150390625 185.552734375 124.0390625 61.7626953125 120.685546875 37.2783203125 c 0
EndSplineSet
EndChar

StartChar: g
Encoding: 103 103 72
Width: 726
GlyphClass: 2
Flags: MW
HStem: -0.171875 84.7959<262.731 355.956 262.731 388.966> 495.976 84.7959<317.021 430.164>
LayerCount: 2
Back
Fore
SplineSet
384.774414062 580.771484375 m 0
 550.768554688 580.771484375 659.756835938 580.049804688 659.764648438 580.049804688 c 0
 678.609375 580.049804688 690.005859375 560.5390625 686.838867188 538 c 0
 683.669921875 515.454101562 666.807617188 495.950195312 647.927734375 495.950195312 c 2
 647.927734375 495.950195312 487.469726562 495.975585938 372.857421875 495.975585938 c 0
 261.18359375 495.975585938 149.834960938 403.698242188 133.897460938 290.299804688 c 0
 117.9609375 176.901367188 205.341796875 84.6240234375 320.12109375 84.6240234375 c 0
 391.791015625 84.6240234375 484.185546875 84.634765625 539.01953125 84.6416015625 c 1
 571.17578125 313.599609375 l 2
 573.828125 332.474609375 595.323242188 346.599609375 617.86328125 346.599609375 c 0
 640.408203125 346.599609375 657.928710938 332.477539062 655.275390625 313.599609375 c 2
 617.213867188 42.5966796875 l 2
 614.03125 20.041015625 597.163085938 0.5498046875 578.321289062 0.5498046875 c 2
 578.321289062 0.5498046875 469.729492188 -0.171875 308.203125 -0.171875 c 0
 134.72265625 -0.171875 18.9169921875 130.1328125 41.4267578125 290.299804688 c 0
 63.9365234375 450.466796875 215.987304688 580.771484375 384.774414062 580.771484375 c 0
EndSplineSet
AlternateSubs2: "'salt' Stylistic Alternatives in Latin lookup 0 subtable" uniE003
EndChar

StartChar: h
Encoding: 104 104 73
Width: 686
GlyphClass: 2
Flags: MW
HStem: 400.129 84.1924<348.962 439.292>
LayerCount: 2
Back
Fore
SplineSet
379.55859375 400.12890625 m 0
 263.866210938 400.12890625 175.162109375 310.233398438 154.807617188 205.099609375 c 1
 130.620117188 33 l 2
 127.967773438 14.125 106.219726562 0 83.5546875 0 c 0
 60.5068359375 0 44.28515625 14.0322265625 46.1591796875 32.2578125 c 0
 46.1982421875 33.376953125 47.1962890625 44.6904296875 67.859375 191.719726562 c 0
 68.9619140625 199.560546875 70.32421875 207.138671875 72.017578125 214.826171875 c 0
 94.4951171875 375.0546875 123.978515625 584.419921875 123.978515625 584.419921875 c 2
 127.750976562 605.6640625 148.590820312 618 170.787109375 618 c 0
 193.4375 618 210.314453125 603.850585938 208.208984375 585.071289062 c 2
 181.798828125 397.15625 l 1
 241.688476562 450.836914062 306.533203125 484.321289062 391.391601562 484.321289062 c 0
 559.611328125 484.321289062 659.451171875 352.868164062 636.803710938 191.72265625 c 0
 616.000976562 43.708984375 613.919921875 33.228515625 613.680664062 32.2578125 c 0
 610.206054688 12.763671875 589.2734375 0 567.086914062 0 c 0
 544.541015625 0 527.021484375 14.1201171875 529.67578125 33.0029296875 c 2
 529.67578125 33.0029296875 536.794921875 83.4794921875 552.467773438 195 c 0
 567.803710938 304.12109375 499.026367188 400.12890625 379.55859375 400.12890625 c 0
EndSplineSet
AlternateSubs2: "'salt' Stylistic Alternatives in Latin lookup 0 subtable" uniE004
EndChar

StartChar: i
Encoding: 105 105 74
Width: 230
GlyphClass: 2
Flags: MW
VStem: 35.4668 159.138
LayerCount: 2
Back
Fore
SplineSet
194.604492188 561.928710938 m 2
 119.56640625 28 l 2
 117.315429688 11.984375 96.1201171875 0 73.5810546875 0 c 0
 51.0068359375 0 33.2392578125 12.1630859375 35.466796875 28 c 0
 35.4775390625 28.08203125 110.352539062 561.21484375 110.448242188 561.619140625 c 0
 113.61328125 578.870117188 134.311523438 590 156.5 590 c 0
 179.150390625 590 196.3125 577.845703125 194.604492188 561.928710938 c 2
EndSplineSet
EndChar

StartChar: j
Encoding: 106 106 75
Width: 745
GlyphClass: 2
Flags: MW
HStem: 0 84.7959<289.334 402.483 289.334 420.03>
LayerCount: 2
Back
Fore
SplineSet
624.314453125 543.493164062 m 0
 624.559570312 545.196289062 624.766601562 546.784179688 625.004882812 548.440429688 c 0
 627.6640625 566.916992188 649.045898438 580.771484375 671.598632812 580.771484375 c 0
 694.646484375 580.771484375 710.869140625 566.00390625 709.223632812 549.493164062 c 0
 708.265625 541.150390625 681.697265625 291.372070312 681.619140625 290.634765625 c 2
 681.59375 290.391601562 l 1
 681.54296875 290.1484375 l 2
 648.52734375 130.845703125 506.883789062 0 333.176757812 0 c 0
 171.650390625 0 63.26171875 0.7216796875 63.26171875 0.7216796875 c 2
 44.4169921875 0.7216796875 33.0205078125 20.232421875 36.1875 42.771484375 c 0
 39.3564453125 65.3173828125 56.21875 84.8212890625 75.0986328125 84.8212890625 c 2
 75.0986328125 84.8212890625 233.57421875 84.7958984375 345.09375 84.7958984375 c 0
 459.873046875 84.7958984375 573.244140625 177.448242188 589.24609375 291.307617188 c 0
 603.849609375 395.21875 620.961914062 519.008789062 624.314453125 543.493164062 c 0
EndSplineSet
EndChar

StartChar: k
Encoding: 107 107 76
Width: 611
GlyphClass: 2
Flags: W
LayerCount: 2
Back
Fore
SplineSet
527.712890625 33.1298828125 m 0
 529.297851562 28.6748046875 529.916992188 23.845703125 529.331054688 19.1142578125 c 0
 527.919921875 6.861328125 510.428710938 0 489.323242188 0 c 0
 461.921875 0 433.97265625 12.080078125 425.767578125 28.0341796875 c 2
 319.548828125 254.661132812 l 1
 144.28125 28 l 2
 131.595703125 12.0537109375 100.23046875 0 72.869140625 0 c 0
 55.361328125 0 43.2109375 5.255859375 39.484375 13.21484375 c 0
 35.4443359375 18.0927734375 33.9873046875 22.54296875 34.7548828125 28 c 0
 34.765625 28.08203125 113.575195312 589.21484375 113.670898438 589.619140625 c 0
 116.836914062 606.870117188 137.53515625 618 159.723632812 618 c 0
 182.374023438 618 199.545898438 605.938476562 197.828125 589.928710938 c 2
 137.251953125 158.904296875 l 1
 178.975585938 214.424804688 231.086914062 281.649414062 279.877929688 344.483398438 c 1
 279.859375 354.418945312 287.233398438 361.88671875 296.641601562 366.314453125 c 1
 388.216796875 484.377929688 469.533203125 589.098632812 470.001953125 589.650390625 c 0
 484.776367188 606.885742188 515.083007812 618 542.33203125 618 c 0
 552.41796875 618 560.59765625 616.416992188 566.579101562 613.372070312 c 0
 577.390625 607.509765625 579.776367188 596.111328125 571.42578125 584.893554688 c 2
 386.76171875 342.1796875 l 1
 401.680664062 311.37109375 526.291015625 36.3193359375 527.712890625 33.1298828125 c 0
EndSplineSet
EndChar

StartChar: l
Encoding: 108 108 77
Width: 663
GlyphClass: 2
Flags: MW
HStem: 0 84.7959<265.112 378.262 265.112 391.348>
LayerCount: 2
Back
Fore
SplineSet
172.913085938 548.440429688 m 2
 172.225585938 543.5078125 l 2
 168.487304688 517.567382812 150.96484375 394.965820312 136.396484375 291.307617188 c 0
 120.39453125 177.448242188 207.72265625 84.7958984375 322.501953125 84.7958984375 c 0
 434.021484375 84.7958984375 592.50390625 84.8212890625 592.505859375 84.8212890625 c 0
 611.380859375 84.8212890625 622.763671875 65.3115234375 619.595703125 42.771484375 c 0
 616.427734375 20.2265625 599.551757812 0.7216796875 580.703125 0.7216796875 c 2
 580.703125 0.7216796875 472.111328125 0 310.584960938 0 c 0
 136.877929688 0 32.0126953125 130.845703125 43.7734375 290.1484375 c 2
 43.791015625 290.391601562 l 1
 88.810546875 548.419921875 l 2
 91.4580078125 566.815429688 112.85546875 580.771484375 135.407226562 580.771484375 c 0
 157.96484375 580.771484375 175.446289062 566.918945312 172.913085938 548.440429688 c 2
EndSplineSet
EndChar

StartChar: m
Encoding: 109 109 78
Width: 1095
GlyphClass: 2
Flags: MW
HStem: 498.129 92.4707<313.069 430.023 772.275 872.245>
LayerCount: 2
Back
Fore
SplineSet
1048.06835938 297.955078125 m 0
 1025.74707031 139.129882812 1010.03222656 32.4423828125 1010.03125 32.4345703125 c 0
 1007.42675781 13.9033203125 985.961914062 0 963.421875 0 c 0
 940.875976562 0 923.318359375 13.84375 925.919921875 32.3515625 c 2
 925.919921875 32.3515625 947.779296875 187.711914062 963.14453125 297.037109375 c 0
 978.28515625 404.767578125 930.715820312 498.12890625 813.774414062 498.12890625 c 0
 696.831054688 498.12890625 622.53125 404.767578125 607.390625 297.037109375 c 0
 592.025390625 187.7109375 570.216796875 32.3525390625 570.216796875 32.3505859375 c 0
 567.616210938 13.8466796875 546.4609375 0 522.27734375 0 c 0
 499.416992188 0 481.5859375 13.84375 484.1875 32.3515625 c 2
 484.1875 32.3515625 506.047851562 187.711914062 521.413085938 297.037109375 c 0
 536.553710938 404.767578125 488.494140625 498.12890625 371.551757812 498.12890625 c 0
 254.5859375 498.12890625 179.779296875 404.729492188 164.64453125 297.037109375 c 0
 149.279296875 187.7109375 127.470703125 32.3525390625 127.470703125 32.3505859375 c 0
 124.870117188 13.8466796875 103.415039062 0 80.875 0 c 0
 58.3291015625 0 40.77734375 13.8994140625 43.3828125 32.4345703125 c 2
 43.3828125 32.4345703125 57.6552734375 139.118164062 79.978515625 297.955078125 c 0
 102.557617188 458.6171875 219.077148438 590.599609375 384.546875 590.599609375 c 0
 493.858398438 590.599609375 547.631835938 531.235351562 585.430664062 446.670898438 c 1
 647.889648438 532.458007812 717.780273438 590.599609375 826.76953125 590.599609375 c 0
 992.243164062 590.599609375 1070.64453125 458.590820312 1048.06835938 297.955078125 c 0
EndSplineSet
EndChar

StartChar: n
Encoding: 110 110 79
Width: 727
GlyphClass: 2
Flags: MW
HStem: 498.129 92.4707<348.893 468.357>
LayerCount: 2
Back
Fore
SplineSet
680.963867188 297.955078125 m 0
 658.642578125 139.129882812 642.926757812 32.4423828125 642.92578125 32.4345703125 c 0
 640.321289062 13.9033203125 618.856445312 0 596.317382812 0 c 0
 573.771484375 0 556.212890625 13.84375 558.814453125 32.3515625 c 2
 558.814453125 32.3515625 580.673828125 187.711914062 596.0390625 297.037109375 c 0
 611.009765625 403.559570312 528.08984375 498.12890625 408.625 498.12890625 c 0
 289.16015625 498.12890625 179.658203125 403.559570312 164.6875 297.037109375 c 0
 149.322265625 187.7109375 127.513671875 32.3525390625 127.513671875 32.3505859375 c 0
 124.913085938 13.8466796875 103.45703125 0 80.9169921875 0 c 0
 58.3720703125 0 40.8203125 13.8994140625 43.42578125 32.4345703125 c 2
 43.42578125 32.4345703125 57.697265625 139.118164062 80.0205078125 297.955078125 c 0
 102.717773438 459.454101562 254.052734375 590.599609375 421.620117188 590.599609375 c 0
 589.1875 590.599609375 703.661132812 459.454101562 680.963867188 297.955078125 c 0
EndSplineSet
EndChar

StartChar: o
Encoding: 111 111 80
Width: 728
GlyphClass: 2
Flags: MW
HStem: 0 92.4707<272.949 398.798 272.949 410.687> 492.729 92.4707<329.202 455.051>
LayerCount: 2
Back
Fore
SplineSet
392.125976562 492.728515625 m 0
 266.278320312 492.728515625 151.841796875 398.396484375 136.97265625 292.599609375 c 0
 122.103515625 186.801757812 210.024414062 92.470703125 335.874023438 92.470703125 c 0
 461.721679688 92.470703125 576.158203125 186.801757812 591.02734375 292.599609375 c 0
 605.896484375 398.396484375 517.975585938 492.728515625 392.125976562 492.728515625 c 0
322.877929688 0 m 0
 147.259765625 0 25.5166015625 130.91015625 48.240234375 292.599609375 c 0
 70.9638671875 454.2890625 229.50390625 585.19921875 405.122070312 585.19921875 c 0
 580.740234375 585.19921875 702.483398438 454.2890625 679.759765625 292.599609375 c 0
 657.036132812 130.91015625 498.49609375 0 322.877929688 0 c 0
EndSplineSet
EndChar

StartChar: p
Encoding: 112 112 81
Width: 771
GlyphClass: 2
Flags: MW
HStem: 0 92.4707<323.964 445.66 319.812 457.549> 492.729 92.4707<376.064 501.913>
LayerCount: 2
Back
Fore
SplineSet
84.48828125 -107.287109375 m 0
 67.1884765625 -107.430664062 39.6455078125 -105.627929688 41.7666015625 -90.5322265625 c 2
 95.009765625 291.939453125 l 2
 117.78515625 453.994140625 276.366210938 585.19921875 451.984375 585.19921875 c 0
 627.602539062 585.19921875 749.345703125 454.2890625 726.622070312 292.599609375 c 0
 703.8984375 130.91015625 545.358398438 0 369.740234375 0 c 0
 278.1875 0 200.646484375 36.53125 151.743164062 93.640625 c 1
 125.7265625 -91.529296875 l 2
 123.750976562 -105.584960938 99.9111328125 -107.158203125 84.48828125 -107.287109375 c 0
382.736328125 92.470703125 m 0
 508.583984375 92.470703125 623.020507812 186.801757812 637.889648438 292.599609375 c 0
 652.758789062 398.396484375 564.837890625 492.728515625 438.98828125 492.728515625 c 0
 313.140625 492.728515625 198.704101562 398.396484375 183.834960938 292.599609375 c 0
 168.965820312 186.801757812 256.88671875 92.470703125 382.736328125 92.470703125 c 0
EndSplineSet
EndChar

StartChar: q
Encoding: 113 113 82
Width: 731
GlyphClass: 2
Flags: MW
HStem: 0 92.4707<274.489 370.058> 492.729 92.4707<330.742 456.591>
LayerCount: 2
Back
Fore
SplineSet
681.206054688 291.932617188 m 2
 626.944335938 -90.5322265625 l 2
 624.856445312 -105.392578125 597.703125 -107.284179688 580.749023438 -107.291992188 c 0
 564.95703125 -107.298828125 540.696289062 -105.822265625 542.705078125 -91.529296875 c 2
 568.735351562 93.640625 l 1
 502.581054688 35.4912109375 415.698242188 0 324.41796875 0 c 0
 148.799804688 0 27.056640625 130.91015625 49.7802734375 292.599609375 c 0
 72.50390625 454.2890625 231.043945312 585.19921875 406.662109375 585.19921875 c 0
 582.280273438 585.19921875 703.983398438 453.999023438 681.206054688 291.932617188 c 2
393.666015625 492.728515625 m 0
 267.818359375 492.728515625 153.381835938 398.396484375 138.512695312 292.599609375 c 0
 123.643554688 186.801757812 211.564453125 92.470703125 337.4140625 92.470703125 c 0
 463.26171875 92.470703125 577.698242188 186.801757812 592.567382812 292.599609375 c 0
 607.436523438 398.396484375 519.515625 492.728515625 393.666015625 492.728515625 c 0
EndSplineSet
EndChar

StartChar: r
Encoding: 114 114 83
Width: 745
GlyphClass: 2
Flags: MW
HStem: 495.976 84.7959<338.994 452.137>
LayerCount: 2
Back
Fore
SplineSet
120.685546875 37.2783203125 m 0
 120.440429688 35.5751953125 120.232421875 33.9873046875 119.995117188 32.3310546875 c 0
 117.3359375 13.8544921875 95.9541015625 0 73.4013671875 0 c 0
 50.353515625 0 34.130859375 14.767578125 35.7763671875 31.2783203125 c 0
 36.7333984375 39.62109375 63.3017578125 289.399414062 63.380859375 290.13671875 c 2
 63.40625 290.379882812 l 1
 63.45703125 290.623046875 l 2
 96.47265625 449.92578125 237.740234375 580.771484375 406.748046875 580.771484375 c 0
 572.75390625 580.771484375 681.73828125 580.049804688 681.73828125 580.049804688 c 2
 700.583007812 580.049804688 711.979492188 560.5390625 708.8125 538 c 0
 705.643554688 515.454101562 688.780273438 495.950195312 669.901367188 495.950195312 c 2
 669.901367188 495.950195312 509.443359375 495.975585938 394.831054688 495.975585938 c 0
 283.157226562 495.975585938 171.755859375 403.323242188 155.75390625 289.463867188 c 0
 141.150390625 185.552734375 124.0390625 61.7626953125 120.685546875 37.2783203125 c 0
EndSplineSet
EndChar

StartChar: s
Encoding: 115 115 84
Width: 747
GlyphClass: 2
Flags: MW
HStem: 0 84.7959<288.015 403.066 288.015 416.988> 247.146 84.7969<504.224 504.224> 493.573 84.7959<343.933 458.984>
LayerCount: 2
Back
Fore
SplineSet
241.99609375 331.221679688 m 0
 242.00390625 331.221679688 356.7265625 331.943359375 519.508789062 331.943359375 c 0
 532.083007812 331.943359375 545.296875 332.44140625 558.467773438 332.442382812 c 0
 622.252929688 332.451171875 684.296875 319.05078125 665.690429688 186.66015625 c 0
 643.424804688 28.23046875 502.119140625 0 331.857421875 0 c 0
 170.331054688 0 61.9423828125 0.7216796875 61.9423828125 0.7216796875 c 2
 43.09765625 0.7216796875 31.701171875 20.232421875 34.8681640625 42.771484375 c 0
 38.037109375 65.3173828125 54.8994140625 84.8212890625 73.779296875 84.8212890625 c 2
 73.779296875 84.8212890625 232.254882812 84.7958984375 343.774414062 84.7958984375 c 0
 462.357421875 84.7958984375 562.19921875 108.243164062 573.173828125 186.331054688 c 0
 573.604492188 189.395507812 576.022460938 193.029296875 577.170898438 201.23828125 c 0
 579.533203125 218.104492188 576.034179688 247.243164062 504.975585938 247.147460938 c 2
 504.223632812 247.146484375 l 2
 496.126953125 249.450195312 381.513671875 246.42578125 227.490234375 246.42578125 c 0
 214.916015625 246.42578125 201.702148438 245.927734375 188.53125 245.926757812 c 0
 124.74609375 245.91796875 62.7021484375 259.318359375 81.30859375 391.708984375 c 0
 103.575195312 550.138671875 244.879882812 578.369140625 415.141601562 578.369140625 c 0
 576.66796875 578.369140625 685.056640625 577.647460938 685.056640625 577.647460938 c 2
 703.901367188 577.647460938 715.298828125 558.13671875 712.130859375 535.59765625 c 0
 708.961914062 513.051757812 692.099609375 493.547851562 673.219726562 493.547851562 c 2
 673.219726562 493.547851562 514.744140625 493.573242188 403.224609375 493.573242188 c 0
 284.641601562 493.573242188 184.80078125 470.125976562 173.826171875 392.038085938 c 0
 173.397460938 388.9921875 171.091796875 385.5703125 169.896484375 377.598632812 c 0
 167.366210938 360.7265625 170.3671875 331.04296875 241.99609375 331.221679688 c 0
EndSplineSet
AlternateSubs2: "'salt' Stylistic Alternatives in Latin lookup 0 subtable" uniE016
EndChar

StartChar: t
Encoding: 116 116 85
Width: 605
GlyphClass: 2
Flags: MW
HStem: 507.337 82.7129
LayerCount: 2
Back
Fore
SplineSet
39.513671875 548.701171875 m 0
 42.6435546875 570.973632812 59.5087890625 589.528320312 78.2529296875 590.049804688 c 2
 293.48828125 590.049804688 l 2
 299.041015625 591.471679688 303.296875 592 308.598632812 592 c 0
 313.706054688 592 320.041015625 590.90234375 323.109375 590.049804688 c 2
 538.32421875 590.049804688 l 2
 557.19921875 590.049804688 568.627929688 570.864257812 565.513671875 548.701171875 c 0
 562.393554688 526.502929688 545.368164062 507.350585938 526.704101562 507.3515625 c 2
 526.704101562 507.3515625 440.263671875 507.3125 340.265625 507.286132812 c 1
 273.532226562 32.4501953125 l 2
 270.923828125 13.8896484375 248.75390625 0 225.3984375 0 c 0
 202.005859375 0 183.8046875 14.0947265625 186.385742188 32.4482421875 c 2
 186.385742188 32.4482421875 233.951171875 371.899414062 253.037109375 507.266601562 c 1
 150.198242188 507.250976562 67.6787109375 507.243164062 66.640625 507.336914062 c 0
 46.6748046875 508.068359375 36.447265625 526.881835938 39.513671875 548.701171875 c 0
EndSplineSet
EndChar

StartChar: u
Encoding: 117 117 86
Width: 721
GlyphClass: 2
Flags: MW
HStem: 0 92.4707<255.642 375.106 255.642 386.162>
LayerCount: 2
Back
Fore
SplineSet
643.081054688 590.599609375 m 0
 665.625976562 590.599609375 683.181640625 576.729492188 680.573242188 558.165039062 c 2
 680.573242188 558.165039062 666.30078125 451.481445312 643.978515625 292.64453125 c 0
 621.28125 131.145507812 469.9453125 0 302.377929688 0 c 0
 134.810546875 0 20.337890625 131.145507812 43.03515625 292.64453125 c 0
 65.357421875 451.481445312 81.0732421875 558.165039062 81.0732421875 558.165039062 c 2
 83.677734375 576.696289062 105.141601562 590.599609375 127.680664062 590.599609375 c 0
 150.2265625 590.599609375 167.78515625 576.755859375 165.184570312 558.248046875 c 2
 165.184570312 558.248046875 143.32421875 402.887695312 127.959960938 293.5625 c 0
 112.989257812 187.040039062 195.909179688 92.470703125 315.374023438 92.470703125 c 0
 434.838867188 92.470703125 544.340820312 187.040039062 559.311523438 293.5625 c 0
 574.67578125 402.888671875 596.484375 558.247070312 596.485351562 558.249023438 c 0
 599.0859375 576.752929688 620.541015625 590.599609375 643.081054688 590.599609375 c 0
EndSplineSet
EndChar

StartChar: v
Encoding: 118 118 87
Width: 588
GlyphClass: 2
Flags: W
LayerCount: 2
Back
Fore
SplineSet
127.875976562 31.2734375 m 2
 127.84375 31.41015625 l 1
 41.1162109375 555.470703125 l 2
 37.3515625 574.377929688 54.5205078125 590 77.474609375 590 c 0
 100.577148438 590 120.41796875 576.74609375 125.28125 558.19140625 c 0
 125.390625 557.801757812 183.911132812 213.776367188 206.239257812 85.158203125 c 1
 312.0390625 96.0966796875 411.270507812 185.9453125 426.5625 294.75 c 0
 441.459960938 400.755859375 458.922851562 527.041992188 462.344726562 552.01953125 c 0
 462.594726562 553.756835938 462.807617188 555.377929688 463.049804688 557.06640625 c 0
 465.760742188 575.916015625 487.181640625 590.049804688 509.734375 590.049804688 c 0
 532.782226562 590.049804688 548.96875 575.02734375 547.283203125 558.233398438 c 0
 546.306640625 549.747070312 519.134765625 295.66796875 519.053710938 294.91796875 c 2
 519.02734375 294.669921875 l 1
 518.9765625 294.422851562 l 2
 485.575195312 132.376953125 343.861328125 -0.7216796875 173.232421875 -0.7216796875 c 0
 129.530273438 -0.7216796875 132.055664062 21.87109375 127.875976562 31.2734375 c 2
EndSplineSet
AlternateSubs2: "'salt' Stylistic Alternatives in Latin lookup 0 subtable" uniE015
EndChar

StartChar: w
Encoding: 119 119 88
Width: 1089
GlyphClass: 2
Flags: MW
HStem: 0 92.4707<219.755 319.724 661.977 778.931>
LayerCount: 2
Back
Fore
SplineSet
43.931640625 292.64453125 m 0
 66.2529296875 451.469726562 81.9677734375 558.157226562 81.96875 558.165039062 c 0
 84.5732421875 576.696289062 106.037109375 590.599609375 128.577148438 590.599609375 c 0
 151.123046875 590.599609375 168.680664062 576.755859375 166.080078125 558.248046875 c 2
 166.080078125 558.248046875 144.219726562 402.887695312 128.85546875 293.5625 c 0
 113.71484375 185.83203125 161.284179688 92.470703125 278.225585938 92.470703125 c 0
 395.168945312 92.470703125 469.46875 185.83203125 484.609375 293.5625 c 0
 499.973632812 402.888671875 521.782226562 558.247070312 521.783203125 558.249023438 c 0
 524.383789062 576.752929688 545.538085938 590.599609375 569.721679688 590.599609375 c 0
 592.58203125 590.599609375 610.413085938 576.755859375 607.8125 558.248046875 c 2
 607.8125 558.248046875 585.951171875 402.887695312 570.586914062 293.5625 c 0
 555.446289062 185.83203125 603.505859375 92.470703125 720.448242188 92.470703125 c 0
 837.4140625 92.470703125 912.219726562 185.870117188 927.35546875 293.5625 c 0
 942.719726562 402.888671875 964.528320312 558.247070312 964.529296875 558.249023438 c 0
 967.129882812 576.752929688 988.583984375 590.599609375 1011.12402344 590.599609375 c 0
 1033.66992188 590.599609375 1051.22167969 576.700195312 1048.6171875 558.165039062 c 2
 1048.6171875 558.165039062 1034.34375 451.481445312 1012.02148438 292.64453125 c 0
 989.44140625 131.982421875 872.921875 0 707.452148438 0 c 0
 598.140625 0 544.3671875 59.3642578125 506.568359375 143.928710938 c 1
 444.109375 58.1416015625 374.21875 0 265.229492188 0 c 0
 99.755859375 0 21.35546875 132.008789062 43.931640625 292.64453125 c 0
EndSplineSet
EndChar

StartChar: x
Encoding: 120 120 89
Width: 716
GlyphClass: 2
Flags: W
LayerCount: 2
Back
Fore
SplineSet
675.732421875 555.869140625 m 1
 412.63671875 295.049804688 l 1
 509.766601562 163.809570312 602.079101562 34.5947265625 602.1796875 34.4521484375 c 2
 602.373046875 34.1787109375 l 1
 602.438476562 33.2998046875 l 2
 604.220703125 28.5341796875 604.892578125 23.5185546875 604.223632812 18.515625 c 0
 602.671875 6.5869140625 585.489257812 0 564.702148438 0 c 0
 536.9453125 0 509.587890625 12.6533203125 500.809570312 28.283203125 c 2
 349.284179688 232.438476562 l 1
 140.375976562 28.283203125 l 2
 126.372070312 11.6640625 95.685546875 0 68.5341796875 0 c 0
 57.7666015625 0 49.1376953125 1.8125 43.09375 5.287109375 c 0
 33.203125 11.431640625 31.669921875 22.712890625 40.1572265625 33.2998046875 c 1
 40.470703125 34.1787109375 l 1
 40.7392578125 34.4521484375 l 1
 40.7392578125 34.4521484375 171.29296875 165.599609375 303.529296875 295.049804688 c 1
 113.747070312 555.869140625 l 1
 113.680664062 556.921875 l 2
 112.103515625 561.446289062 111.485351562 566.147460938 112.014648438 570.834960938 c 0
 113.228515625 583.157226562 130.344726562 590 151.453125 590 c 0
 179.20703125 590 206.579101562 577.306640625 215.317382812 561.7265625 c 0
 218.903320312 556.840820312 289.134765625 462.096679688 366.884765625 357.673828125 c 1
 476.685546875 464.73046875 570.862304688 556.852539062 575.809570312 561.7265625 c 0
 589.748046875 578.282226562 620.478515625 590 647.62109375 590 c 0
 658.12109375 590 666.538085938 588.299804688 672.521484375 585.001953125 c 0
 682.723632812 578.967773438 684.352539062 567.680664062 676.095703125 556.921875 c 1
 675.732421875 555.869140625 l 1
EndSplineSet
EndChar

StartChar: y
Encoding: 121 121 90
Width: 680
GlyphClass: 2
Flags: MW
HStem: -65.3223 84.7959<209.163 323.843 209.163 336.268> 106.477 83.9941<243.705 334.063>
LayerCount: 2
Back
Fore
SplineSet
303.438476562 190.470703125 m 0
 419.130859375 190.470703125 507.8359375 280.366210938 528.190429688 385.5 c 1
 552.376953125 557.599609375 l 2
 555.030273438 576.474609375 576.77734375 590.599609375 599.442382812 590.599609375 c 0
 622.490234375 590.599609375 638.708007812 576.541992188 636.830078125 558.283203125 c 0
 636.790039062 557.161132812 635.790039062 545.826171875 615.088867188 398.528320312 c 0
 613.984375 390.671875 612.620117188 383.081054688 610.923828125 375.37890625 c 0
 588.771484375 217.466796875 584.68359375 188.181640625 584.35546875 186.658203125 c 0
 583.743164062 180.219726562 583.340820312 176.83203125 582.635742188 171.708007812 c 0
 559.443359375 2.98828125 417.779296875 -65.322265625 254.756835938 -65.322265625 c 0
 142.817382812 -65.322265625 124.752929688 -66.677734375 120.5546875 -63.5380859375 c 0
 103.977539062 -58.5517578125 97.326171875 -42.2333984375 100.092773438 -22.55078125 c 0
 103.260742188 -0.0048828125 120.342773438 19.4990234375 139.83203125 19.4990234375 c 2
 139.83203125 19.4990234375 151.650390625 19.4736328125 266.674804688 19.4736328125 c 0
 381.01171875 19.4736328125 482.365234375 56.7392578125 498.215820312 169.522460938 c 2
 500.202148438 183.67578125 l 2
 500.211914062 186.979492188 500.180664062 185.845703125 500.375 187.5859375 c 2
 501.221679688 193.606445312 l 1
 441.334960938 139.948242188 376.4921875 106.4765625 291.633789062 106.4765625 c 0
 123.4140625 106.4765625 23.5673828125 237.875976562 46.205078125 398.955078125 c 0
 66.9990234375 546.909179688 69.0791015625 557.384765625 69.318359375 558.354492188 c 0
 72.7919921875 577.841796875 93.7236328125 590.599609375 115.91015625 590.599609375 c 0
 138.456054688 590.599609375 155.975585938 576.479492188 153.322265625 557.596679688 c 2
 153.322265625 557.596679688 146.203125 507.120117188 130.529296875 395.599609375 c 0
 115.193359375 286.478515625 183.970703125 190.470703125 303.438476562 190.470703125 c 0
EndSplineSet
AlternateSubs2: "'salt' Stylistic Alternatives in Latin lookup 0 subtable" uniE00D
EndChar

StartChar: z
Encoding: 122 122 91
Width: 723
GlyphClass: 2
Flags: MW
HStem: 0 84.7959<274.483 389.535 274.483 402.621> 247.147 84.7959 493.573 84.7959<333.464 448.516>
LayerCount: 2
Back
Fore
SplineSet
40.4912109375 186.66015625 m 0
 63.0859375 347.431640625 154.799804688 331.943359375 227.508789062 331.943359375 c 0
 390.307617188 331.943359375 504.797851562 331.221679688 504.797851562 331.221679688 c 2
 603.403320312 330.97265625 589.560546875 388.313476562 590.083984375 392.038085938 c 0
 601.05859375 470.125976562 507.807617188 493.573242188 389.224609375 493.573242188 c 0
 277.704101562 493.573242188 119.22265625 493.547851562 119.220703125 493.547851562 c 0
 100.345703125 493.547851562 88.962890625 513.057617188 92.130859375 535.59765625 c 0
 95.298828125 558.142578125 112.174804688 577.647460938 131.0234375 577.647460938 c 2
 131.0234375 577.647460938 239.615234375 578.369140625 401.141601562 578.369140625 c 0
 571.404296875 578.369140625 704.774414062 550.139648438 682.5078125 391.708984375 c 0
 659.913085938 230.9375 568.19921875 246.42578125 495.490234375 246.42578125 c 0
 360.801757812 246.42578125 257.998046875 247.014648438 227.588867188 247.134765625 c 0
 224.669921875 247.138671875 221.545898438 247.142578125 218.208007812 247.147460938 c 0
 119.576171875 247.28125 133.438476562 190.051757812 132.916015625 186.331054688 c 0
 121.94140625 108.243164062 215.19140625 84.7958984375 333.774414062 84.7958984375 c 0
 445.294921875 84.7958984375 603.776367188 84.8212890625 603.778320312 84.8212890625 c 0
 622.653320312 84.8212890625 634.036132812 65.3115234375 630.868164062 42.771484375 c 0
 627.700195312 20.2265625 610.82421875 0.7216796875 591.975585938 0.7216796875 c 2
 591.975585938 0.7216796875 483.383789062 0 321.857421875 0 c 0
 151.594726562 0 18.2255859375 28.2294921875 40.4912109375 186.66015625 c 0
219.03125 247.154296875 m 2
 219.03125 247.154296875 221.15234375 247.146484375 224.479492188 247.146484375 c 1
 221.787109375 247.155273438 219.95703125 247.154296875 219.03125 247.154296875 c 2
EndSplineSet
AlternateSubs2: "'salt' Stylistic Alternatives in Latin lookup 0 subtable" uniE017
EndChar

StartChar: braceleft
Encoding: 123 123 92
Width: 354
GlyphClass: 2
Flags: MW
HStem: -5.17188 84.7959<186.361 202.956> 500.976 84.7959<221.992 283.529>
VStem: 40.9014 272.099
LayerCount: 2
Back
Fore
SplineSet
202.956054688 -5.171875 m 1
 58.1845703125 -5.171875 63.732421875 99.4287109375 81.861328125 227.848632812 c 1
 68.005859375 245.587890625 56.173828125 260.74609375 53.0703125 264.73828125 c 0
 43.32421875 270.055664062 39.26953125 281.0390625 40.9013671875 292.6484375 c 0
 42.619140625 304.8671875 51.142578125 315.935546875 60.916015625 320.55859375 c 0
 65.626953125 325.008789062 83.7353515625 342.063476562 100.077148438 357.44921875 c 1
 118.15625 484.993164062 143.408203125 585.771484375 286.0078125 585.771484375 c 0
 312.333007812 585 314.779296875 555.685546875 313 543.025390625 c 0
 309.831054688 520.479492188 292.96875 500.975585938 274.08984375 500.975585938 c 0
 169.89453125 500.975585938 186.9765625 316.08203125 183.352539062 290.299804688 c 0
 181.596679688 277.805664062 166.541015625 234.796875 160.084960938 189.764648438 c 0
 151.959960938 133.090820312 157.849609375 79.6240234375 214.873046875 79.6240234375 c 0
 233.748046875 79.6240234375 245.130859375 60.1142578125 241.962890625 37.57421875 c 0
 240.18359375 24.9140625 229.116210938 0 202.956054688 -5.171875 c 1
EndSplineSet
EndChar

StartChar: bar
Encoding: 124 124 93
Width: 254
GlyphClass: 2
Flags: MW
VStem: 37.7666 178.553
LayerCount: 2
Back
Fore
SplineSet
216.319335938 650.071289062 m 2
 121.866210938 -22 l 2
 119.213867188 -40.875 97.7177734375 -55 75.1787109375 -55 c 0
 52.6044921875 -55 35.1416015625 -40.6669921875 37.7666015625 -22.001953125 c 0
 37.77734375 -21.919921875 132.114257812 649.692382812 132.208984375 650.095703125 c 0
 135.76171875 670.09765625 156.708984375 683 178.897460938 683 c 0
 201.547851562 683 218.413085938 668.7421875 216.319335938 650.071289062 c 2
EndSplineSet
EndChar

StartChar: braceright
Encoding: 125 125 94
Width: 352
GlyphClass: 2
Flags: MW
HStem: -5.17188 84.7959<69.1172 107.066 69.1172 139.023> 500.976 84.7959<149.689 189.869>
LayerCount: 2
Back
Fore
SplineSet
66.6376953125 -5.171875 m 1
 211.409179688 -5.171875 235.26171875 99.4287109375 253.23046875 227.848632812 c 1
 272.0703125 245.587890625 288.1640625 260.74609375 292.388671875 264.73828125 c 0
 303.630859375 270.055664062 310.771484375 281.0390625 312.403320312 292.6484375 c 0
 314.12109375 304.8671875 308.70703125 315.935546875 300.234375 320.55859375 c 0
 296.7734375 325.008789062 283.459960938 342.063476562 271.442382812 357.44921875 c 1
 289.212890625 484.993164062 292.2890625 585.771484375 149.689453125 585.771484375 c 0
 123.147460938 585 112.4609375 555.685546875 110.681640625 543.025390625 c 0
 107.512695312 520.479492188 118.892578125 500.975585938 137.771484375 500.975585938 c 0
 241.966796875 500.975585938 172.916015625 316.08203125 169.291992188 290.299804688 c 0
 167.536132812 277.805664062 170.50390625 234.796875 164.301757812 189.764648438 c 0
 156.497070312 133.090820312 135.578125 79.6240234375 78.5546875 79.6240234375 c 0
 59.6796875 79.6240234375 42.8125 60.1142578125 39.64453125 37.57421875 c 0
 37.865234375 24.9140625 41.9306640625 0 66.6376953125 -5.171875 c 1
EndSplineSet
EndChar

StartChar: asciitilde
Encoding: 126 126 95
Width: 479
GlyphClass: 2
Flags: MW
VStem: 52.2959 67.5537 359.148 67.5547
LayerCount: 2
Back
Fore
SplineSet
264.006835938 371.41796875 m 1
 277.576171875 358.49609375 271.096679688 354.83203125 273.276367188 337.721679688 c 0
 275.344726562 321.489257812 285.6640625 307.932617188 320.282226562 316.872070312 c 0
 356.395507812 326.197265625 360.896484375 346.185546875 359.1484375 359.896484375 c 0
 357.918945312 369.546875 365.61328125 390.247070312 373.899414062 396.651367188 c 0
 377.974609375 399.80078125 383.11328125 398.206054688 385.000976562 395.130859375 c 0
 386.455078125 395.702148438 388.041992188 396.291015625 389.530273438 396.67578125 c 0
 404.885742188 400.640625 424.3515625 395.788085938 426.703125 377.340820312 c 0
 437.250976562 294.548828125 367.067382812 257.880859375 329.048828125 248.0625 c 0
 297.696289062 239.967773438 239.151367188 235.184570312 214.9921875 286.58203125 c 1
 201.422851562 299.50390625 207.90234375 303.16796875 205.721679688 320.278320312 c 0
 203.655273438 336.510742188 193.334960938 350.067382812 158.716796875 341.127929688 c 0
 122.602539062 331.802734375 118.102539062 311.814453125 119.849609375 298.103515625 c 0
 121.079101562 288.453125 113.384765625 267.752929688 105.099609375 261.348632812 c 0
 101.024414062 258.19921875 95.8857421875 259.793945312 93.998046875 262.869140625 c 0
 92.54296875 262.297851562 90.9580078125 261.708984375 89.4677734375 261.32421875 c 0
 74.1142578125 257.359375 54.646484375 262.211914062 52.2958984375 280.659179688 c 0
 41.7490234375 363.451171875 111.932617188 400.119140625 149.951171875 409.9375 c 0
 181.302734375 418.032226562 239.846679688 422.815429688 264.006835938 371.41796875 c 1
EndSplineSet
EndChar

StartChar: exclamdown
Encoding: 161 161 97
Width: 242
GlyphClass: 2
Flags: MW
HStem: 482.5 102.5<146.605 160.198>
VStem: 39.5234 162.595
LayerCount: 2
Back
Fore
SplineSet
202.118164062 533.75 m 0
 198.263671875 506.323242188 174.23046875 482.5 146.165039062 482.5 c 0
 118.232421875 482.5 99.486328125 506.130859375 103.368164062 533.75 c 0
 107.25 561.369140625 132.638671875 585 160.571289062 585 c 0
 188.63671875 585 205.97265625 561.176757812 202.118164062 533.75 c 0
39.5234375 27.6787109375 m 2
 95.1875 423.75 l 2
 97.8408203125 442.625 119.336914062 456.75 141.875976562 456.75 c 0
 164.450195312 456.75 181.912109375 442.416015625 179.288085938 423.752929688 c 0
 179.27734375 423.673828125 123.728515625 28.0546875 123.6328125 27.6513671875 c 0
 120.08203125 7.6552734375 99.1337890625 -5.25 76.9453125 -5.25 c 0
 54.2958984375 -5.25 37.4296875 9.0078125 39.5234375 27.6787109375 c 2
EndSplineSet
EndChar

StartChar: cent
Encoding: 162 162 98
Width: 563
GlyphClass: 2
Flags: MW
HStem: 72.0439 66.0547<295.335 304.618> 451.608 66.0547<348.68 357.963>
LayerCount: 2
Back
Fore
SplineSet
264.18359375 449.438476562 m 1
 191.870117188 436.815429688 125.337890625 372.279296875 114.456054688 294.853515625 c 0
 103.490234375 216.826171875 153.155273438 152.647460938 220.784179688 140.259765625 c 1
 233.60546875 231.690429688 251.5625 359.630859375 264.18359375 449.438476562 c 1
357.962890625 517.663085938 m 1
 448.563476562 517.526367188 499.629882812 517.173828125 500.813476562 517.166015625 c 0
 515.90625 517.166015625 524.623046875 501.69921875 522.189453125 484.37890625 c 0
 519.754882812 467.055664062 506.706054688 451.590820312 491.580078125 451.590820312 c 2
 348.6796875 451.608398438 l 1
 304.618164062 138.098632812 l 1
 447.525390625 138.116210938 l 2
 462.649414062 138.116210938 471.3515625 122.649414062 468.916992188 105.328125 c 0
 466.482421875 88.005859375 453.419921875 72.541015625 438.326171875 72.541015625 c 2
 438.326171875 72.541015625 381.216796875 72.1708984375 295.334960938 72.0439453125 c 1
 289.145507812 28 l 2
 286.4921875 9.125 264.99609375 -5 242.45703125 -5 c 0
 219.8828125 -5 202.420898438 9.333984375 205.044921875 27.998046875 c 2
 211.3984375 73.318359375 l 1
 100.622070312 85.5478515625 26.4931640625 180.215820312 42.603515625 294.853515625 c 0
 58.8017578125 410.107421875 160.721679688 504.264648438 273.607421875 516.381835938 c 1
 277.905273438 546.846679688 279.912109375 561.075195312 279.912109375 561.075195312 c 2
 283.797851562 582.952148438 304.58203125 595 326.782226562 595 c 0
 349.431640625 595 366.297851562 580.7421875 364.204101562 562.071289062 c 2
 357.962890625 517.663085938 l 1
EndSplineSet
EndChar

StartChar: sterling
Encoding: 163 163 99
Width: 686
GlyphClass: 2
Flags: MW
HStem: -5 84.0996<70.0869 615.979> 247.622 84.1777<188.741 317.097> 500.426 84.7959<359.061 462.08>
LayerCount: 2
Back
Fore
SplineSet
272.5703125 331.799804688 m 2
 279.302734375 332.288085938 286.029296875 332.521484375 293.122070312 332.521484375 c 0
 445.703125 332.521484375 455.423828125 331.895507812 456.204101562 331.810546875 c 0
 475.9453125 331.075195312 486.229492188 311.936523438 483.111328125 289.75 c 0
 479.872070312 266.700195312 463.092773438 248.37890625 444.30078125 247.686523438 c 0
 443.056640625 247.568359375 359.015625 247.622070312 275.177734375 247.622070312 c 0
 189.110351562 244.65234375 194.021484375 175.569335938 152.50390625 79.099609375 c 1
 615.978515625 79.099609375 l 2
 634.685546875 78.56640625 646.1796875 59.6962890625 642.997070312 37.0498046875 c 0
 639.7578125 14 622.981445312 -4.3203125 604.181640625 -5.0146484375 c 0
 601.782226562 -5.2412109375 70.13671875 -5 70.0869140625 -5 c 0
 51.4208984375 -5.0009765625 39.8251953125 14.4814453125 42.9970703125 37.0498046875 c 0
 54.5283203125 119.1015625 76.4541015625 194.258789062 116.208007812 247.694335938 c 1
 106.201171875 247.700195312 l 2
 87.53515625 247.69921875 75.939453125 267.181640625 79.111328125 289.75 c 0
 102.008789062 452.674804688 254.002929688 585.221679688 418.236328125 585.221679688 c 0
 579.748046875 585.221679688 608.198242188 584.5 608.198242188 584.5 c 2
 626.958984375 584.5 638.393554688 564.989257812 635.225585938 542.450195312 c 0
 632.056640625 519.904296875 615.1953125 500.400390625 596.314453125 500.400390625 c 2
 596.314453125 500.400390625 517.83984375 500.42578125 406.319335938 500.42578125 c 0
 311.802734375 500.42578125 233.856445312 427.275390625 188.741210938 331.799804688 c 1
 272.5703125 331.799804688 l 2
EndSplineSet
EndChar

StartChar: currency
Encoding: 164 164 100
Width: 560
GlyphClass: 2
Flags: MW
HStem: 68.1504 31<45.5029 75.9688> 123.013 56.3896<239.382 272.929> 405.797 56.3896<287.072 320.618 287.072 329.849> 486.049 31
LayerCount: 2
Back
Fore
SplineSet
382.841796875 91.2412109375 m 2
 351.290039062 147.561523438 l 1
 321.982421875 131.829101562 289.69140625 123.012695312 256.166015625 123.012695312 c 0
 222.598632812 123.012695312 191.485351562 132.677734375 167.943359375 147.561523438 c 1
 120.560546875 91.2412109375 l 2
 109.826171875 78.9130859375 86.5439453125 68.150390625 65.3935546875 68.150390625 c 0
 56.8681640625 68.150390625 49.99609375 69.92578125 45.2470703125 73.3271484375 c 0
 37.794921875 78.6650390625 36.6484375 88.43359375 43.70703125 96.9775390625 c 2
 45.5029296875 99.150390625 l 2
 49.4345703125 99.150390625 104.528320312 169.837890625 123.22265625 192.325195312 c 1
 105.481445312 220.724609375 97.73828125 255.08984375 103.009765625 292.599609375 c 0
 108.274414062 330.056640625 126.552734375 365.245117188 150.946289062 392.361328125 c 1
 135.44140625 420.806640625 118.076171875 452.6640625 98.693359375 488.221679688 c 0
 97.0869140625 491.16796875 96.3466796875 494.415039062 96.7236328125 497.732421875 c 0
 98.14453125 510.231445312 112.615234375 517.048828125 128.481445312 517.048828125 c 0
 149.630859375 517.048828125 169.890625 506.283203125 177.158203125 493.958007812 c 2
 208.7109375 437.637695312 l 1
 238.017578125 453.370117188 270.309570312 462.186523438 303.833984375 462.186523438 c 0
 337.40234375 462.186523438 368.514648438 452.521484375 392.057617188 437.637695312 c 1
 439.439453125 493.958007812 l 2
 450.174804688 506.286132812 473.456054688 517.048828125 494.606445312 517.048828125 c 0
 503.131835938 517.048828125 510.00390625 515.2734375 514.752929688 511.872070312 c 0
 522.205078125 506.534179688 523.3515625 496.765625 516.29296875 488.221679688 c 2
 514.497070312 486.048828125 l 2
 510.56640625 486.048828125 455.471679688 415.361328125 436.77734375 392.874023438 c 1
 454.51953125 364.474609375 462.26171875 330.109375 456.990234375 292.599609375 c 0
 451.7265625 255.142578125 433.447265625 219.954101562 409.053710938 192.836914062 c 1
 424.098632812 165.236328125 441.435546875 133.431640625 461.306640625 96.9775390625 c 0
 462.913085938 94.03125 463.653320312 90.7841796875 463.27734375 87.466796875 c 0
 461.85546875 74.9677734375 447.384765625 68.150390625 431.518554688 68.150390625 c 0
 410.377929688 68.150390625 390.071289062 78.9814453125 382.841796875 91.2412109375 c 2
157.296875 292.599609375 m 0
 148.913085938 232.948242188 196.211914062 179.40234375 264.090820312 179.40234375 c 0
 311.751953125 179.40234375 356.689453125 205.801757812 382.130859375 242.178710938 c 1
 327.837890625 341.796875 281.43359375 426.950195312 382.145507812 242.19921875 c 1
 392.928710938 257.624023438 400.208007812 274.841796875 402.703125 292.599609375 c 0
 411.086914062 352.25 363.788085938 405.796875 295.909179688 405.796875 c 0
 248.249023438 405.796875 203.313476562 379.397460938 177.87109375 343.022460938 c 1
 251.060546875 208.735351562 328.75390625 66.177734375 177.854492188 342.999023438 c 1
 167.0703125 327.57421875 159.79296875 310.357421875 157.296875 292.599609375 c 0
409.034179688 192.815429688 m 1
 408.88671875 192.651367188 408.739257812 192.48828125 408.591796875 192.325195312 c 0
 425.502929688 161.592773438 454.282226562 109.43359375 460.0546875 99.203125 c 2
 460.0546875 99.203125 436.57421875 142.284179688 409.034179688 192.815429688 c 1
150.967773438 392.384765625 m 1
 151.408203125 392.874023438 l 1
 134.497070312 423.606445312 105.71875 475.765625 99.9462890625 485.99609375 c 2
 99.9462890625 485.99609375 122.538085938 444.547851562 150.967773438 392.384765625 c 1
EndSplineSet
EndChar

StartChar: yen
Encoding: 165 165 101
Width: 674
GlyphClass: 2
Flags: MW
HStem: 21.5186 47.0059 81.5195 47.0059 103 92.4707<242.784 328.845>
LayerCount: 2
Back
Fore
SplineSet
520.515625 390.5 m 1xa0
 544.703125 562.599609375 l 2
 547.35546875 581.474609375 569.104492188 595.599609375 591.768554688 595.599609375 c 0
 614.817382812 595.599609375 631.00390625 581.328125 629.0859375 562.7890625 c 0
 629.043945312 561.651367188 628.018554688 550.143554688 607.001953125 400.599609375 c 0
 605.880859375 392.625 604.501953125 384.916992188 602.7890625 377.09765625 c 0
 591.377929688 295.758789062 578.055664062 200.84375 567.888671875 128.525390625 c 1
 593.793945312 128.525390625 l 2
 605.168945312 128.525390625 611.1875 117.095703125 609.487304688 105 c 0
 607.783203125 92.876953125 598.447265625 81.4736328125 587.184570312 81.4755859375 c 2
 587.184570312 81.4755859375 574.943359375 81.4677734375 561.268554688 81.4609375 c 1
 559.447265625 68.5244140625 l 1
 585.361328125 68.5244140625 l 2
 596.736328125 68.5244140625 602.754882812 57.0947265625 601.0546875 45 c 0
 599.350585938 32.875 590.014648438 21.474609375 578.750976562 21.474609375 c 2
 552.805664062 21.4599609375 l 1
 550.733398438 6.8193359375 550.004882812 1.611328125 549.734375 0.0595703125 c 0
 546.327148438 -19.1259765625 525.3203125 -32.400390625 503.129882812 -32.400390625 c 0
 480.48046875 -32.400390625 463.602539062 -18.2509765625 465.708984375 0.5283203125 c 2
 468.646484375 21.4287109375 l 1
 437.538085938 21.42578125 421.752929688 21.361328125 418.084960938 21.5185546875 c 0
 407.467773438 22.3134765625 401.90625 33.2724609375 403.5546875 45 c 0
 405.26953125 57.2001953125 414.462890625 68.2041015625 425.790039062 68.5244140625 c 2
 475.265625 68.5244140625 l 1
 477.079101562 81.4287109375 l 1
 445.970703125 81.4267578125 430.184570312 81.3623046875 426.517578125 81.51953125 c 0
 415.900390625 82.314453125 410.338867188 93.2744140625 411.987304688 105 c 0
 413.702148438 117.201171875 422.89453125 128.205078125 434.22265625 128.525390625 c 2
 483.698242188 128.525390625 l 1xc0
 492.5703125 191.655273438 l 1
 433.081054688 137.057617188 369.984375 103 287.706054688 103 c 0
 124.547851562 103 25.0234375 236.700195312 48.05859375 400.599609375 c 0
 69.2158203125 551.14453125 71.3232421875 561.802734375 71.564453125 562.791015625 c 0
 75.0869140625 582.6171875 96.0498046875 595.599609375 118.235351562 595.599609375 c 0
 140.78125 595.599609375 158.301757812 581.479492188 155.647460938 562.596679688 c 2
 155.647460938 562.596679688 148.528320312 512.120117188 132.85546875 400.599609375 c 0
 117.51953125 291.478515625 184.865234375 195.470703125 300.702148438 195.470703125 c 0
 412.875976562 195.470703125 500.161132812 285.366210938 520.515625 390.5 c 1xa0
EndSplineSet
EndChar

StartChar: brokenbar
Encoding: 166 166 102
Width: 251
GlyphClass: 2
Flags: MW
VStem: 38.5068 174.072
LayerCount: 2
Back
Fore
SplineSet
160.84375 300.071289062 m 2
 122.607421875 28 l 2
 119.954101562 9.125 98.4580078125 -5 75.9189453125 -5 c 0
 53.3447265625 -5 35.8828125 9.3349609375 38.5068359375 27.99609375 c 0
 38.517578125 28.07421875 76.638671875 299.6953125 76.7353515625 300.102539062 c 0
 80.2861328125 320.091796875 101.233398438 333 123.421875 333 c 0
 146.071289062 333 162.9375 318.7421875 160.84375 300.071289062 c 2
212.579101562 672.071289062 m 2
 174.342773438 400 l 2
 171.689453125 381.125 150.193359375 367 127.654296875 367 c 0
 105.080078125 367 87.6181640625 381.334960938 90.2421875 399.99609375 c 0
 90.2529296875 400.07421875 128.374023438 671.6953125 128.470703125 672.102539062 c 0
 132.021484375 692.091796875 152.96875 705 175.157226562 705 c 0
 197.806640625 705 214.672851562 690.7421875 212.579101562 672.071289062 c 2
EndSplineSet
EndChar

StartChar: section
Encoding: 167 167 103
Width: 749
GlyphClass: 2
Flags: MW
HStem: -5 84.7959<293.312 405.203 293.312 417.747> 141.3 66.9951<348.366 380.177 348.366 389.726> 246.465 85.04 376.904 66.9951<370.213 405.14> 498.573 84.7959<343.797 455.688>
LayerCount: 2
Back
Fore
SplineSet
228.994140625 331.84765625 m 1
 256.62890625 397.034179688 324.58203125 443.899414062 397.244140625 443.899414062 c 0
 470.294921875 443.899414062 524.5234375 396.251953125 533.951171875 332.17578125 c 1
 541.060546875 332.311523438 547.140625 332.434570312 553.892578125 332.442382812 c 0
 617.865234375 332.520507812 680.328125 319.271484375 661.3828125 184.471679688 c 0
 638.78125 23.65625 498.33984375 -5 337.154296875 -5 c 0
 175.62890625 -5 67.240234375 -4.2783203125 67.240234375 -4.2783203125 c 2
 48.3955078125 -4.2783203125 36.9990234375 15.232421875 40.1669921875 37.771484375 c 0
 43.3359375 60.3173828125 60.197265625 79.8212890625 79.0771484375 79.8212890625 c 2
 79.0771484375 79.8212890625 237.552734375 79.7958984375 349.072265625 79.7958984375 c 0
 461.333984375 79.7958984375 557.599609375 103.96875 568.912109375 184.471679688 c 0
 569.314453125 187.333984375 570.6328125 188.938476562 571.953125 194.463867188 c 0
 575.748046875 210.346679688 577.794921875 240.982421875 519.904296875 246.51171875 c 1
 490.19140625 184.565429688 424.734375 141.299804688 354.716796875 141.299804688 c 0
 284.296875 141.299804688 231.451171875 185.4140625 219.146484375 246.270507812 c 1
 210.28125 246.109375 203.146484375 245.93359375 194.87890625 245.926757812 c 0
 130.98046875 245.875976562 68.6962890625 259.265625 87.6171875 393.897460938 c 0
 110.21875 554.712890625 250.66015625 583.369140625 411.845703125 583.369140625 c 0
 573.37109375 583.369140625 681.759765625 582.647460938 681.759765625 582.647460938 c 2
 700.60546875 582.647460938 712.001953125 563.13671875 708.833984375 540.59765625 c 0
 705.666015625 518.051757812 688.802734375 498.547851562 669.923828125 498.547851562 c 2
 669.923828125 498.547851562 511.447265625 498.573242188 399.927734375 498.573242188 c 0
 287.666015625 498.573242188 191.40234375 474.400390625 180.087890625 393.897460938 c 0
 179.685546875 391.037109375 178.365234375 389.422851562 177.04296875 383.885742188 c 0
 173.244140625 367.9609375 171.35546875 337.251953125 228.994140625 331.84765625 c 1
461.9375 331.916992188 m 1
 449.80078125 358.51171875 422.451171875 376.904296875 387.828125 376.904296875 c 0
 352.59765625 376.904296875 319.556640625 357.255859375 300.775390625 331.504882812 c 1
 338.44140625 331.666015625 394.908203125 331.849609375 461.9375 331.916992188 c 1
293.548828125 246.46484375 m 1
 307.203125 223.462890625 332.599609375 208.294921875 364.1328125 208.294921875 c 0
 396.220703125 208.294921875 426.537109375 224.634765625 445.830078125 246.915039062 c 1
 407.896484375 246.744140625 356.814453125 246.549804688 293.548828125 246.46484375 c 1
EndSplineSet
EndChar

StartChar: dieresis
Encoding: 168 168 104
Width: 382
GlyphClass: 2
Flags: MW
HStem: 606.25 98.75<110.466 124.111 257.966 271.611>
VStem: 65.999 102.5<655 655> 213.499 102.5<655 655>
LayerCount: 2
Back
Fore
SplineSet
110.397460938 606.25 m 0
 82.970703125 606.25 62.0546875 626.934570312 65.9990234375 655 c 0
 69.923828125 682.932617188 96.65625 705 124.275390625 705 c 0
 151.89453125 705 172.423828125 682.932617188 168.499023438 655 c 0
 164.5546875 626.934570312 137.82421875 606.25 110.397460938 606.25 c 0
257.897460938 606.25 m 0
 230.470703125 606.25 209.5546875 626.934570312 213.499023438 655 c 0
 217.423828125 682.932617188 244.15625 705 271.775390625 705 c 0
 299.39453125 705 319.923828125 682.932617188 315.999023438 655 c 0
 312.0546875 626.934570312 285.32421875 606.25 257.897460938 606.25 c 0
EndSplineSet
EndChar

StartChar: copyright
Encoding: 169 169 105
Width: 714
GlyphClass: 2
Flags: MW
HStem: -5 92.4707<266.854 389.488 266.854 400.741> 140.064 47.3975<289.423 343.754 289.423 349.601> 393.138 47.3975<318.33 372.66> 497.729 92.4707<324.512 447.146>
LayerCount: 2
Back
Fore
SplineSet
134.97265625 292.599609375 m 0
 119.732421875 184.158203125 205.536132812 87.470703125 328.170898438 87.470703125 c 0
 450.8046875 87.470703125 563.787109375 184.158203125 579.02734375 292.599609375 c 0
 594.267578125 401.040039062 508.463867188 497.728515625 385.829101562 497.728515625 c 0
 263.1953125 497.728515625 150.212890625 401.040039062 134.97265625 292.599609375 c 0
46.240234375 292.599609375 m 0
 69.3525390625 457.052734375 227.692382812 590.19921875 398.825195312 590.19921875 c 0
 569.958007812 590.19921875 690.872070312 457.052734375 667.759765625 292.599609375 c 0
 644.647460938 128.146484375 486.307617188 -5 315.174804688 -5 c 0
 144.041992188 -5 23.1279296875 128.146484375 46.240234375 292.599609375 c 0
486.407226562 440.174804688 m 0
 497.751953125 440.174804688 503.784179688 428.745117188 502.084960938 416.650390625 c 0
 500.384765625 404.553710938 491.154296875 393.125 479.77734375 393.125 c 2
 479.77734375 393.125 400.5390625 393.137695312 344.780273438 393.137695312 c 0
 291.87890625 393.137695312 238.232421875 347.005859375 230.262695312 290.299804688 c 0
 222.29296875 233.59375 262.97265625 187.461914062 315.874023438 187.461914062 c 0
 371.633789062 187.461914062 450.874023438 187.474609375 450.875976562 187.474609375 c 0
 462.250976562 187.474609375 468.26953125 176.045898438 466.5703125 163.94921875 c 0
 464.870117188 151.854492188 455.625 140.424804688 444.280273438 140.424804688 c 2
 444.280273438 140.424804688 389.989257812 140.064453125 309.212890625 140.064453125 c 0
 225.729492188 140.064453125 167.381835938 207.44140625 179.026367188 290.299804688 c 0
 190.671875 373.158203125 267.958007812 440.53515625 351.44140625 440.53515625 c 0
 432.206054688 440.53515625 486.399414062 440.174804688 486.407226562 440.174804688 c 0
EndSplineSet
EndChar

StartChar: ordfeminine
Encoding: 170 170 106
Width: 326
GlyphClass: 2
Flags: MW
HStem: 490.18 38.8652<132.725 162.507> 666.135 38.8652<151.992 193.276>
VStem: 50.9844 224.03<597 597>
LayerCount: 2
Back
Fore
SplineSet
260.959960938 498.83984375 m 2
 259.606445312 489.208984375 246.193359375 489.791992188 241.779296875 489.732421875 c 0
 237.484375 489.674804688 223.6015625 488.715820312 224.975585938 498.495117188 c 0
 225.877929688 504.9140625 227.123046875 513.763671875 227.809570312 518.645507812 c 1
 204.563476562 500.502929688 177.108398438 490.1796875 147.905273438 490.1796875 c 0
 86.3359375 490.1796875 42.6259765625 538.111328125 50.984375 597.58984375 c 0
 59.34375 657.067382812 116.526367188 705 178.095703125 705 c 0
 239.665039062 705 283.375976562 657.075195312 275.014648438 597.581054688 c 2
 260.959960938 498.83984375 l 2
88.5400390625 597.58984375 m 0
 83.4873046875 561.63671875 112.083007812 529.044921875 153.3671875 529.044921875 c 0
 194.650390625 529.044921875 232.407226562 561.63671875 237.459960938 597.58984375 c 0
 242.513671875 633.54296875 213.91796875 666.134765625 172.633789062 666.134765625 c 0
 131.350585938 666.134765625 93.59375 633.54296875 88.5400390625 597.58984375 c 0
EndSplineSet
EndChar

StartChar: guillemotleft
Encoding: 171 171 107
Width: 615
GlyphClass: 2
Flags: MW
HStem: 147.532 64.9297<262.346 275.106> 473.538 64.9297<311.799 317.288>
LayerCount: 2
Back
Fore
SplineSet
267.147460938 343 m 0
 270.375 365.959960938 287.740234375 388.202148438 305.081054688 394.811523438 c 0
 317.4296875 402.498046875 538.717773438 537.787109375 538.747070312 537.8046875 c 2
 539.48046875 538.252929688 l 1
 540.288085938 538.467773438 l 2
 558.403320312 543.282226562 573.822265625 532.795898438 571.123046875 513.58984375 c 0
 568.517578125 495.053710938 550.73046875 478.227539062 534.798828125 473.538085938 c 1
 347.0078125 343 l 1
 498.106445312 212.461914062 l 1
 514.088867188 207.333007812 525.692382812 190.333007812 523.172851562 172.41015625 c 0
 520.473632812 153.203125 502.107421875 142.717773438 485.345703125 147.532226562 c 2
 484.598632812 147.747070312 l 1
 483.990234375 148.1953125 l 1
 483.990234375 148.1953125 299.13671875 284.685546875 290.517578125 291.188476562 c 0
 273.85546875 298.301757812 264.01171875 320.685546875 267.147460938 343 c 0
44.1474609375 343 m 0
 47.375 365.959960938 64.740234375 388.202148438 82.0810546875 394.811523438 c 0
 94.4296875 402.498046875 315.717773438 537.787109375 315.747070312 537.8046875 c 2
 316.48046875 538.252929688 l 1
 317.288085938 538.467773438 l 2
 335.403320312 543.282226562 350.822265625 532.795898438 348.123046875 513.58984375 c 0
 345.517578125 495.053710938 327.73046875 478.227539062 311.798828125 473.538085938 c 1
 124.0078125 343 l 1
 275.106445312 212.461914062 l 1
 291.088867188 207.333007812 302.692382812 190.333007812 300.172851562 172.41015625 c 0
 297.473632812 153.203125 279.107421875 142.717773438 262.345703125 147.532226562 c 2
 261.598632812 147.747070312 l 1
 260.990234375 148.1953125 l 1
 260.990234375 148.1953125 76.13671875 284.685546875 67.517578125 291.188476562 c 0
 50.85546875 298.301757812 41.01171875 320.685546875 44.1474609375 343 c 0
EndSplineSet
EndChar

StartChar: logicalnot
Encoding: 172 172 108
Width: 596
GlyphClass: 2
Flags: MW
HStem: 266.904 84.0996<71.6396 92.9346 92.8936 92.9346 92.8936 451.886>
LayerCount: 2
Back
Fore
SplineSet
451.885742188 266.904296875 m 1
 81.0771484375 266.904296875 l 2
 62.2021484375 266.904296875 50.8193359375 286.415039062 53.9873046875 308.954101562 c 0
 57.16015625 331.528320312 74.23046875 351.004882812 92.8935546875 351.00390625 c 0
 92.9755859375 351.00390625 514.596679688 351.056640625 514.997070312 351.017578125 c 0
 534.890625 350.276367188 545.10546875 331.142578125 541.987304688 308.954101562 c 2
 523.576171875 177.954101562 l 2
 520.923828125 159.079101562 499.427734375 144.954101562 476.888671875 144.954101562 c 0
 454.314453125 144.954101562 436.852539062 159.29296875 439.475585938 177.946289062 c 2
 439.475585938 177.946289062 446.797851562 230.647460938 451.885742188 266.904296875 c 1
EndSplineSet
EndChar

StartChar: uni00AD
Encoding: 173 173 109
Width: 519
GlyphClass: 2
Flags: MW
HStem: 266.904 84.0996<71.6396 92.9336 92.8936 92.9336 92.8936 426.148>
LayerCount: 2
Back
Fore
SplineSet
426.1484375 266.904296875 m 2
 81.0771484375 266.904296875 l 2
 62.2021484375 266.904296875 50.8193359375 286.415039062 53.9873046875 308.954101562 c 0
 57.16015625 331.528320312 74.2314453125 351.004882812 92.8935546875 351.00390625 c 0
 92.9736328125 351.00390625 437.596679688 351.056640625 437.999023438 351.017578125 c 0
 457.888671875 350.276367188 468.10546875 331.142578125 464.987304688 308.954101562 c 0
 461.803710938 286.3046875 444.89453125 267.434570312 426.1484375 266.904296875 c 2
EndSplineSet
EndChar

StartChar: registered
Encoding: 174 174 110
Width: 714
GlyphClass: 2
Flags: MW
HStem: -5 92.4707<266.854 389.488 266.854 400.741> 393.181 47.3975<337.835 392.166> 497.729 92.4707<324.512 447.146>
LayerCount: 2
Back
Fore
SplineSet
134.97265625 292.599609375 m 0
 119.732421875 184.158203125 205.536132812 87.470703125 328.170898438 87.470703125 c 0
 450.8046875 87.470703125 563.787109375 184.158203125 579.02734375 292.599609375 c 0
 594.267578125 401.040039062 508.463867188 497.728515625 385.829101562 497.728515625 c 0
 263.1953125 497.728515625 150.212890625 401.040039062 134.97265625 292.599609375 c 0
46.240234375 292.599609375 m 0
 69.3525390625 457.052734375 227.692382812 590.19921875 398.825195312 590.19921875 c 0
 569.958007812 590.19921875 690.872070312 457.052734375 667.759765625 292.599609375 c 0
 644.647460938 128.146484375 486.307617188 -5 315.174804688 -5 c 0
 144.041992188 -5 23.1279296875 128.146484375 46.240234375 292.599609375 c 0
231.524414062 159.176757812 m 0
 229.890625 147.827148438 217.439453125 140.193359375 205.331054688 140.193359375 c 0
 192.662109375 140.193359375 183.755859375 148.530273438 184.37890625 158.348632812 c 0
 185.022460938 164.033203125 198.45703125 289.657226562 198.51171875 290.174804688 c 2
 198.538085938 290.422851562 l 1
 198.588867188 290.669921875 l 2
 215.5234375 372.821289062 287.249023438 440.578125 370.947265625 440.578125 c 0
 451.723632812 440.578125 505.913085938 440.217773438 505.913085938 440.217773438 c 2
 517.2578125 440.217773438 523.291015625 428.788085938 521.590820312 416.693359375 c 0
 519.890625 404.596679688 510.66015625 393.16796875 499.283203125 393.16796875 c 2
 499.283203125 393.16796875 420.044921875 393.180664062 364.286132812 393.180664062 c 0
 311.384765625 393.180664062 257.73828125 347.048828125 249.768554688 290.342773438 c 0
 242.716796875 240.165039062 234.456054688 180.399414062 232.241210938 164.291992188 c 0
 231.969726562 162.40625 231.772460938 160.90234375 231.524414062 159.176757812 c 0
EndSplineSet
EndChar

StartChar: macron
Encoding: 175 175 111
Width: 871
GlyphClass: 2
Flags: MW
HStem: 620.886 84.1143
LayerCount: 2
Back
Fore
SplineSet
105.3515625 705 m 2
 777.422851562 705 l 2
 796.297851562 705 807.680664062 685.489257812 804.513671875 662.950195312 c 0
 801.340820312 640.375976562 784.270507812 620.899414062 765.60546875 620.900390625 c 0
 765.5234375 620.900390625 93.904296875 620.84765625 93.505859375 620.885742188 c 0
 73.6083984375 621.627929688 63.39453125 640.76171875 66.513671875 662.950195312 c 0
 69.6962890625 685.599609375 86.6064453125 704.469726562 105.3515625 705 c 2
EndSplineSet
EndChar

StartChar: degree
Encoding: 176 176 112
Width: 357
GlyphClass: 2
Flags: MW
HStem: 459.818 43.1953<143.387 191.243 143.387 196.455> 662.166 43.1953<165.757 213.613>
VStem: 50.4316 256.137<582 582>
LayerCount: 2
Back
Fore
SplineSet
92.12109375 582.58984375 m 0
 86.2451171875 540.782226562 119.458007812 503.013671875 167.31640625 503.013671875 c 0
 215.169921875 503.013671875 259.002929688 540.782226562 264.87890625 582.58984375 c 0
 270.75390625 624.397460938 237.541992188 662.166015625 189.68359375 662.166015625 c 0
 141.830078125 662.166015625 97.99609375 624.397460938 92.12109375 582.58984375 c 0
50.431640625 582.58984375 m 0
 59.982421875 650.545898438 125.334960938 705.361328125 195.75390625 705.361328125 c 0
 266.172851562 705.361328125 316.119140625 650.546875 306.568359375 582.58984375 c 0
 297.017578125 514.633789062 231.6640625 459.818359375 161.245117188 459.818359375 c 0
 90.826171875 459.818359375 40.880859375 514.6328125 50.431640625 582.58984375 c 0
EndSplineSet
EndChar

StartChar: plusminus
Encoding: 177 177 113
Width: 611
GlyphClass: 2
Flags: MW
HStem: -5 84.0996<55.6992 76.9951 76.9541 76.9951 76.9541 487.208> 325 84.0996<102.578 123.833 123.833 123.833 123.833 280.966>
LayerCount: 2
Back
Fore
SplineSet
487.208007812 -5 m 2
 65.13671875 -5 l 2
 46.26171875 -5 34.87890625 14.5107421875 38.046875 37.0498046875 c 0
 41.2197265625 59.6240234375 58.291015625 79.1005859375 76.9541015625 79.099609375 c 0
 77.0361328125 79.099609375 498.65625 79.15234375 499.056640625 79.11328125 c 0
 518.950195312 78.3720703125 529.165039062 59.23828125 526.046875 37.0498046875 c 0
 522.86328125 14.400390625 505.954101562 -4.4697265625 487.208007812 -5 c 2
534.086914062 325 m 2
 365.15234375 325 l 1
 352.19140625 232.666992188 341.572265625 157.049804688 341.329101562 155.994140625 c 0
 337.763671875 135.918945312 316.823242188 123.049804688 294.633789062 123.049804688 c 0
 271.983398438 123.049804688 255.10546875 137.19921875 257.2109375 155.978515625 c 2
 280.965820312 325 l 1
 112.015625 325 l 2
 93.140625 325 81.7578125 344.510742188 84.92578125 367.049804688 c 0
 88.09765625 389.624023438 105.168945312 409.100585938 123.833007812 409.099609375 c 2
 123.833007812 409.099609375 203.350585938 409.137695312 292.794921875 409.166015625 c 1
 316.529296875 578.049804688 l 2
 319.182617188 596.924804688 340.678710938 611.049804688 363.217773438 611.049804688 c 0
 385.791992188 611.049804688 403.25390625 596.715820312 400.629882812 578.051757812 c 2
 400.629882812 578.051757812 389.499023438 498.5859375 376.962890625 409.186523438 c 1
 469.270507812 409.202148438 544.850585938 409.209960938 545.893554688 409.115234375 c 0
 565.86328125 408.37109375 576.043945312 389.239257812 572.92578125 367.049804688 c 0
 569.7421875 344.400390625 552.83203125 325.530273438 534.086914062 325 c 2
EndSplineSet
EndChar

StartChar: uni00B2
Encoding: 178 178 114
Width: 420
GlyphClass: 2
Flags: MW
HStem: 405.475 47.7441 510.895 47.3984<126.642 138.101> 657.607 47.3984<199.856 256.488>
VStem: 47.9131 324.048
LayerCount: 2
Back
Fore
SplineSet
323.916992188 406.181640625 m 2
 323.916992188 406.181640625 269.625976562 405.821289062 188.849609375 405.821289062 c 0
 173.55859375 405.821289062 158.706054688 405.483398438 144.709960938 405.474609375 c 0
 85.80078125 405.434570312 38.41796875 411.995117188 47.9130859375 479.556640625 c 0
 59.646484375 563.041992188 108.504882812 558.29296875 144.778320312 558.29296875 c 0
 225.5546875 558.29296875 279.744140625 557.931640625 279.744140625 557.931640625 c 2
 302.955078125 557.931640625 316.3515625 576.145507812 320.725585938 607.26953125 c 0
 328.333007812 661.3984375 285.239257812 657.607421875 227.736328125 657.607421875 c 0
 171.9765625 657.607421875 92.736328125 657.594726562 92.734375 657.594726562 c 0
 81.359375 657.594726562 75.3408203125 669.024414062 77.041015625 681.120117188 c 0
 78.740234375 693.21484375 87.9853515625 704.64453125 99.330078125 704.64453125 c 2
 99.330078125 704.64453125 153.62109375 705.005859375 234.397460938 705.005859375 c 0
 314.782226562 705.005859375 383.873046875 692.024414062 371.9609375 607.26953125 c 0
 361.366210938 531.883789062 322.93359375 510.534179688 273.06640625 510.534179688 c 0
 192.290039062 510.534179688 138.100585938 510.89453125 138.100585938 510.89453125 c 2
 87.0537109375 510.89453125 99.75 483.836914062 99.1484375 479.556640625 c 0
 95.7548828125 455.411132812 136.974609375 453.21875 195.510742188 453.21875 c 0
 251.270507812 453.21875 330.510742188 453.231445312 330.512695312 453.231445312 c 0
 341.887695312 453.231445312 347.907226562 441.802734375 346.20703125 429.70703125 c 0
 344.506835938 417.611328125 335.291992188 406.181640625 323.916992188 406.181640625 c 2
EndSplineSet
EndChar

StartChar: uni00B3
Encoding: 179 179 115
Width: 443
GlyphClass: 2
Flags: MW
HStem: 404.529 47.3975<201.091 255.421 201.091 264.05> 531.09 47.0498<259.396 265.31> 657.603 47.3975<229.996 284.327>
LayerCount: 2
Back
Fore
SplineSet
69.3095703125 578.139648438 m 2
 266.380859375 578.139648438 l 2
 277.935546875 578.139648438 283.685546875 566.076171875 282.004882812 554.115234375 c 0
 280.28125 541.852539062 270.84765625 531.08984375 259.771484375 531.08984375 c 0
 259.020507812 531.08984375 64.4560546875 531 61.3564453125 531.15234375 c 0
 51.1953125 531.913085938 45.427734375 542.892578125 47.0751953125 554.615234375 c 0
 48.7890625 566.814453125 58.095703125 577.822265625 69.3095703125 578.139648438 c 2
129.469726562 704.639648438 m 2
 129.469726562 704.639648438 183.760742188 705 264.537109375 705 c 0
 348.020507812 705 406.368164062 637.623046875 394.72265625 554.764648438 c 0
 383.078125 471.90625 305.791992188 404.529296875 222.30859375 404.529296875 c 0
 141.532226562 404.529296875 87.3427734375 404.889648438 87.3427734375 404.889648438 c 2
 75.998046875 404.889648438 69.9658203125 416.319335938 71.666015625 428.4140625 c 0
 73.3662109375 440.510742188 82.595703125 451.939453125 93.97265625 451.939453125 c 2
 93.97265625 451.939453125 173.211914062 451.926757812 228.970703125 451.926757812 c 0
 281.872070312 451.926757812 335.518554688 498.05859375 343.487304688 554.764648438 c 0
 351.45703125 611.470703125 310.77734375 657.602539062 257.875976562 657.602539062 c 0
 202.116210938 657.602539062 122.875976562 657.58984375 122.874023438 657.58984375 c 0
 111.499023438 657.58984375 105.48046875 669.018554688 107.180664062 681.115234375 c 0
 108.879882812 693.209960938 118.094726562 704.639648438 129.469726562 704.639648438 c 2
EndSplineSet
EndChar

StartChar: acute
Encoding: 180 180 116
Width: 258
GlyphClass: 2
Flags: MW
HStem: 602.5 102.5<119.396 182.892>
LayerCount: 2
Back
Fore
SplineSet
50.111328125 584.283203125 m 0
 54.349609375 603.352539062 85.677734375 636.857421875 102.252929688 656.2734375 c 0
 119.211914062 683.42578125 152.728515625 705 180.008789062 705 c 0
 185.775390625 705 190.83203125 703.983398438 195.043945312 701.984375 c 0
 211.866210938 694.000976562 211.959960938 672.625 199.223632812 651.63671875 c 0
 183.118164062 625.09765625 150.033203125 602.5 122.469726562 602.5 c 0
 116.321289062 602.5 109.76953125 604.294921875 106.546875 605.875976562 c 0
 91.712890625 577.990234375 107.18359375 575.369140625 127.305664062 561.75390625 c 2
 145.760742188 549.265625 l 1
 122.692382812 552.547851562 l 2
 93.513671875 556.700195312 44.9033203125 565.2421875 50.111328125 584.283203125 c 0
EndSplineSet
EndChar

StartChar: mu
Encoding: 181 181 117
Width: 753
GlyphClass: 2
Flags: MW
HStem: -5 92.4707<297.75 410.311 294.156 420.699>
LayerCount: 2
Back
Fore
SplineSet
114.318359375 497.241210938 m 0
 119.734375 535.604492188 124.127929688 561.823242188 124.267578125 562.662109375 c 0
 126.904296875 581.422851562 148.407226562 595.599609375 170.946289062 595.599609375 c 0
 193.491210938 595.599609375 211.01171875 581.478515625 208.358398438 562.598632812 c 2
 208.358398438 562.598632812 186.059570312 404.119140625 170.38671875 292.599609375 c 0
 155.115234375 183.938476562 236.078125 87.470703125 352.233398438 87.470703125 c 0
 468.387695312 87.470703125 576.466796875 183.938476562 591.73828125 292.599609375 c 0
 607.411132812 404.120117188 629.659179688 562.59765625 629.659179688 562.599609375 c 0
 632.311523438 581.474609375 653.806640625 595.599609375 676.346679688 595.599609375 c 0
 698.890625 595.599609375 716.41015625 581.46484375 713.760742188 562.616210938 c 2
 713.760742188 562.616210938 699.235351562 454.125976562 676.534179688 292.599609375 c 0
 653.453125 128.366210938 502.161132812 -5 339.237304688 -5 c 0
 256.26171875 -5 186.154296875 29.9296875 140.458984375 84.833984375 c 1
 123.3359375 -37 l 2
 120.68359375 -55.875 99.1875 -70 76.6484375 -70 c 0
 54.0732421875 -70 36.611328125 -55.666015625 39.236328125 -37.001953125 c 0
 39.2607421875 -36.8251953125 114.143554688 496.501953125 114.318359375 497.241210938 c 0
EndSplineSet
EndChar

StartChar: paragraph
Encoding: 182 182 118
Width: 498
GlyphClass: 2
Flags: MW
HStem: 510.9 84.1094
LayerCount: 2
Back
Fore
SplineSet
456.267578125 562.071289062 m 2
 381.208984375 28 l 2
 378.555664062 9.125 357.05859375 -5 334.520507812 -5 c 0
 311.9453125 -5 294.483398438 9.333984375 297.108398438 27.998046875 c 2
 297.108398438 27.998046875 346.10546875 377.59375 364.897460938 510.900390625 c 1
 330.076171875 510.900390625 l 1
 262.208984375 28 l 2
 259.555664062 9.125 238.05859375 -5 215.520507812 -5 c 0
 192.9453125 -5 175.483398438 9.333984375 178.108398438 27.998046875 c 2
 178.108398438 27.998046875 195.806640625 154.276367188 213.889648438 283.134765625 c 1
 55.5791015625 286.71875 39.9912109375 406.4296875 41.6572265625 419.9921875 c 0
 41.93359375 422.173828125 42.171875 427.8203125 43.5302734375 437.56640625 c 0
 49.603515625 481.133789062 78.08984375 594.998046875 214.83984375 595 c 0
 214.94921875 595 418.485351562 595.05859375 418.999023438 595.009765625 c 0
 442.9140625 594.494140625 458.326171875 580.431640625 456.267578125 562.071289062 c 2
EndSplineSet
EndChar

StartChar: periodcentered
Encoding: 183 183 119
Width: 207
GlyphClass: 2
Flags: MW
HStem: 213.75 102.5<96.0581 109.652>
VStem: 54.1377 98.75<265 265>
LayerCount: 2
Back
Fore
SplineSet
54.1376953125 265 m 0
 57.9921875 292.426757812 82.025390625 316.25 110.090820312 316.25 c 0
 138.0234375 316.25 156.76953125 292.619140625 152.887695312 265 c 0
 149.005859375 237.380859375 123.618164062 213.75 95.685546875 213.75 c 0
 67.6201171875 213.75 50.283203125 237.573242188 54.1376953125 265 c 0
EndSplineSet
EndChar

StartChar: cedilla
Encoding: 184 184 120
Width: 223
GlyphClass: 2
Flags: MW
HStem: -55.25 102.5<94.6318 108.056>
VStem: 52.7109 98.6621<4.29497e+009 4.29497e+009>
LayerCount: 2
Back
Fore
SplineSet
169.994140625 67.6884765625 m 0
 174.6171875 48.75 158.709960938 14.314453125 151.373046875 -4.61328125 c 1
 146.907226562 -32.5205078125 121.853515625 -55.25 94.2587890625 -55.25 c 0
 66.1943359375 -55.25 48.8564453125 -31.4267578125 52.7109375 -4 c 0
 56.5654296875 23.4267578125 80.599609375 47.25 108.6640625 47.25 c 0
 114.109375 47.25 120.875 45.7607421875 124.1796875 44.57421875 c 1
 124.592773438 70.0830078125 106.005859375 74.8505859375 80.9423828125 87.7421875 c 2
 54.642578125 101.26953125 l 1
 85.0849609375 97.2080078125 l 2
 118.279296875 92.7783203125 166.7890625 84.314453125 169.994140625 67.6884765625 c 0
EndSplineSet
EndChar

StartChar: uni00B9
Encoding: 185 185 121
Width: 206
GlyphClass: 2
Flags: MW
HStem: 400 18.998<77.7051 104.608>
LayerCount: 2
Back
Fore
SplineSet
141.620117188 705 m 0
 153.8203125 705 163.5546875 697.353515625 162.2890625 686.071289062 c 2
 124.754882812 419 l 2
 123.15625 407.625 110.655273438 400 98.560546875 400 c 0
 86.4365234375 400 76.12109375 407.731445312 77.705078125 418.998046875 c 2
 77.705078125 418.998046875 95.4208984375 545.342773438 106.680664062 625.48828125 c 1
 78.87890625 601.112304688 l 2
 69.705078125 593.067382812 56.609375 595.759765625 49.2587890625 604.311523438 c 0
 41.8916015625 612.884765625 41.1962890625 626.413085938 50.283203125 634.379882812 c 0
 50.3369140625 634.426757812 112.944335938 689.325195312 113.379882812 689.69921875 c 0
 118.578125 694.5078125 126.314453125 706.211914062 141.620117188 705 c 0
EndSplineSet
EndChar

StartChar: ordmasculine
Encoding: 186 186 122
Width: 325
GlyphClass: 2
Flags: MW
HStem: 490.18 38.8652<132.225 173.509 132.225 178.19> 666.135 38.8652<151.492 192.776>
VStem: 50.4844 224.031<597 597>
LayerCount: 2
Back
Fore
SplineSet
88.0400390625 597.58984375 m 0
 82.9873046875 561.63671875 111.583007812 529.044921875 152.8671875 529.044921875 c 0
 194.150390625 529.044921875 231.907226562 561.63671875 236.959960938 597.58984375 c 0
 242.013671875 633.54296875 213.41796875 666.134765625 172.133789062 666.134765625 c 0
 130.850585938 666.134765625 93.09375 633.54296875 88.0400390625 597.58984375 c 0
50.484375 597.58984375 m 0
 58.84375 657.067382812 116.026367188 705 177.595703125 705 c 0
 239.165039062 705 282.875 657.068359375 274.515625 597.58984375 c 0
 266.157226562 538.112304688 208.974609375 490.1796875 147.405273438 490.1796875 c 0
 85.8359375 490.1796875 42.1259765625 538.111328125 50.484375 597.58984375 c 0
EndSplineSet
EndChar

StartChar: guillemotright
Encoding: 187 187 123
Width: 611
GlyphClass: 2
Flags: MW
HStem: 147.532 64.9297<72.7119 78.2012> 473.538 64.9297<114.894 127.654>
LayerCount: 2
Back
Fore
SplineSet
345.8515625 343 m 0
 342.625 320.040039062 325.259765625 297.797851562 307.918945312 291.188476562 c 0
 295.5703125 283.501953125 74.2822265625 148.212890625 74.2529296875 148.1953125 c 2
 73.51953125 147.747070312 l 1
 72.7119140625 147.532226562 l 2
 54.5966796875 142.717773438 39.177734375 153.204101562 41.876953125 172.41015625 c 0
 44.482421875 190.946289062 62.26953125 207.772460938 78.201171875 212.461914062 c 1
 265.991210938 343 l 1
 114.893554688 473.538085938 l 1
 98.9111328125 478.666992188 87.3076171875 495.666992188 89.8271484375 513.58984375 c 0
 92.5263671875 532.796875 110.892578125 543.282226562 127.654296875 538.467773438 c 2
 128.401367188 538.252929688 l 1
 129.009765625 537.8046875 l 1
 129.009765625 537.8046875 313.86328125 401.314453125 322.482421875 394.811523438 c 0
 339.14453125 387.698242188 348.98828125 365.314453125 345.8515625 343 c 0
568.8515625 343 m 0
 565.625 320.040039062 548.259765625 297.797851562 530.918945312 291.188476562 c 0
 518.5703125 283.501953125 297.282226562 148.212890625 297.252929688 148.1953125 c 2
 296.51953125 147.747070312 l 1
 295.711914062 147.532226562 l 2
 277.596679688 142.717773438 262.177734375 153.204101562 264.876953125 172.41015625 c 0
 267.482421875 190.946289062 285.26953125 207.772460938 301.201171875 212.461914062 c 1
 488.991210938 343 l 1
 337.893554688 473.538085938 l 1
 321.911132812 478.666992188 310.307617188 495.666992188 312.827148438 513.58984375 c 0
 315.526367188 532.796875 333.892578125 543.282226562 350.654296875 538.467773438 c 2
 351.401367188 538.252929688 l 1
 352.009765625 537.8046875 l 1
 352.009765625 537.8046875 536.86328125 401.314453125 545.482421875 394.811523438 c 0
 562.14453125 387.698242188 571.98828125 365.314453125 568.8515625 343 c 0
EndSplineSet
EndChar

StartChar: onequarter
Encoding: 188 188 124
Width: 616
GlyphClass: 2
Flags: MW
HStem: 114.614 47.3975 252.688 47.3936 318.5 18.998<159.413 186.315>
LayerCount: 2
Back
Fore
SplineSet
568.708007812 587.331054688 m 2
 126.875 25.2880859375 l 2
 113.67578125 8.4970703125 85.947265625 -5 63.29296875 -5 c 0
 55.904296875 -5 49.833984375 -3.5234375 45.3798828125 -0.5458984375 c 0
 35.37890625 6.1416015625 36.0546875 19.16015625 45.1357421875 30.7109375 c 0
 45.1806640625 30.767578125 486.616210938 592.376953125 486.986328125 592.788085938 c 0
 501.4921875 610.516601562 528.010742188 623 550.518554688 623 c 0
 557.89453125 623 563.939453125 621.55078125 568.373046875 618.590820312 c 0
 578.348632812 611.9296875 577.515625 598.954101562 568.708007812 587.331054688 c 2
541.318359375 278.33984375 m 2
 524.920898438 161.6640625 l 1
 561.920898438 161.6640625 l 2
 573.295898438 161.6640625 579.314453125 150.234375 577.614257812 138.138671875 c 0
 575.91015625 126.015625 566.571289062 114.612304688 555.314453125 114.614257812 c 2
 555.314453125 114.614257812 539.1953125 114.595703125 518.291015625 114.583007812 c 1
 504.155273438 14 l 2
 502.556640625 2.625 490.053710938 -5 477.958984375 -5 c 0
 465.834960938 -5 455.51953125 2.7333984375 457.10546875 13.998046875 c 2
 457.10546875 13.998046875 463.560546875 60.0830078125 471.205078125 114.568359375 c 1
 455.861328125 114.5703125 445.509765625 114.6015625 445.16796875 114.614257812 c 0
 398.154296875 114.608398438 377.056640625 114.19921875 301.734375 114.5078125 c 2
 301.1953125 114.509765625 l 1
 300.684570312 114.626953125 l 2
 296.762695312 115.529296875 293.6171875 116.760742188 291.180664062 118.598632812 c 0
 277.626953125 128.815429688 295.21484375 146.779296875 306.288085938 160.177734375 c 0
 367.856445312 234.676757812 422.137695312 297.90234375 471.150390625 300.081054688 c 0
 486.666015625 300.770507812 498.685546875 300.447265625 508.0546875 299.473632812 c 0
 540.920898438 296.059570312 542.58984375 283.37109375 541.318359375 278.33984375 c 2
490.659179688 252.9453125 m 1
 482.260742188 252.904296875 475.407226562 252.829101562 464.778320312 252.6875 c 0
 447.479492188 252.459960938 421.517578125 231.904296875 365.137695312 163.77734375 c 1
 374.124023438 161.44921875 402.181640625 162.01171875 451.9609375 162.01171875 c 2
 451.9609375 162.01171875 456.897460938 162.017578125 477.865234375 162.020507812 c 1
 483.10546875 199.33203125 487.612304688 231.282226562 490.659179688 252.9453125 c 1
223.328125 623.5 m 0
 235.528320312 623.5 245.263671875 615.853515625 243.998046875 604.571289062 c 2
 206.463867188 337.5 l 2
 204.865234375 326.124023438 192.362304688 318.5 180.268554688 318.5 c 0
 168.143554688 318.5 157.829101562 326.231445312 159.413085938 337.498046875 c 2
 159.413085938 337.498046875 177.129882812 463.844726562 188.388671875 543.98828125 c 1
 160.586914062 519.612304688 l 2
 151.413085938 511.568359375 138.317382812 514.259765625 130.967773438 522.811523438 c 0
 123.598632812 531.384765625 122.905273438 544.913085938 131.991210938 552.879882812 c 0
 132.044921875 552.926757812 194.651367188 607.825195312 195.087890625 608.19921875 c 0
 200.286132812 613.0078125 208.022460938 624.711914062 223.328125 623.5 c 0
EndSplineSet
EndChar

StartChar: onehalf
Encoding: 189 189 125
Width: 698
GlyphClass: 2
Flags: MW
HStem: -5.34668 47.7451 100.074 47.3984<412.493 423.952> 246.787 47.3984<485.708 542.339> 318.5 18.998<160.155 187.058>
LayerCount: 2
Back
Fore
SplineSet
569.450195312 587.331054688 m 2
 127.6171875 25.2880859375 l 2
 114.41796875 8.4970703125 86.689453125 -5 64.03515625 -5 c 0
 56.646484375 -5 50.576171875 -3.5234375 46.1220703125 -0.5458984375 c 0
 36.12109375 6.1416015625 36.796875 19.16015625 45.8779296875 30.7109375 c 0
 45.9228515625 30.767578125 487.358398438 592.376953125 487.728515625 592.788085938 c 0
 502.234375 610.516601562 528.752929688 623 551.260742188 623 c 0
 558.63671875 623 564.681640625 621.55078125 569.115234375 618.590820312 c 0
 579.090820312 611.9296875 578.2578125 598.954101562 569.450195312 587.331054688 c 2
609.768554688 -4.638671875 m 2
 609.768554688 -4.638671875 555.477539062 -5 474.701171875 -5 c 0
 459.41015625 -5 444.557617188 -5.337890625 430.5625 -5.3466796875 c 0
 371.65234375 -5.38671875 324.26953125 1.173828125 333.764648438 68.736328125 c 0
 345.498046875 152.221679688 394.356445312 147.47265625 430.629882812 147.47265625 c 0
 511.40625 147.47265625 565.595703125 147.111328125 565.595703125 147.111328125 c 2
 588.805664062 147.111328125 602.203125 165.32421875 606.578125 196.44921875 c 0
 614.185546875 250.578125 571.08984375 246.787109375 513.587890625 246.787109375 c 0
 457.828125 246.787109375 378.586914062 246.774414062 378.5859375 246.774414062 c 0
 367.209960938 246.774414062 361.192382812 258.204101562 362.892578125 270.298828125 c 0
 364.591796875 282.39453125 373.8359375 293.82421875 385.181640625 293.82421875 c 2
 385.181640625 293.82421875 439.471679688 294.185546875 520.249023438 294.185546875 c 0
 600.633789062 294.185546875 669.724609375 281.204101562 657.813476562 196.44921875 c 0
 647.21875 121.0625 608.784179688 99.712890625 558.91796875 99.712890625 c 0
 478.140625 99.712890625 423.952148438 100.07421875 423.952148438 100.07421875 c 2
 372.905273438 100.07421875 385.6015625 73.0166015625 385 68.736328125 c 0
 381.606445312 44.58984375 422.827148438 42.3984375 481.36328125 42.3984375 c 0
 537.123046875 42.3984375 616.36328125 42.4111328125 616.365234375 42.4111328125 c 0
 627.740234375 42.4111328125 633.758789062 30.9814453125 632.05859375 18.88671875 c 0
 630.358398438 6.791015625 621.143554688 -4.638671875 609.768554688 -4.638671875 c 2
224.0703125 623.5 m 0
 236.270507812 623.5 246.005859375 615.853515625 244.740234375 604.571289062 c 2
 207.206054688 337.5 l 2
 205.607421875 326.124023438 193.104492188 318.5 181.010742188 318.5 c 0
 168.885742188 318.5 158.571289062 326.231445312 160.155273438 337.498046875 c 2
 160.155273438 337.498046875 177.872070312 463.844726562 189.130859375 543.98828125 c 1
 161.329101562 519.612304688 l 2
 152.155273438 511.568359375 139.059570312 514.259765625 131.709960938 522.811523438 c 0
 124.340820312 531.384765625 123.647460938 544.913085938 132.733398438 552.879882812 c 0
 132.787109375 552.926757812 195.393554688 607.825195312 195.830078125 608.19921875 c 0
 201.028320312 613.0078125 208.764648438 624.711914062 224.0703125 623.5 c 0
EndSplineSet
EndChar

StartChar: threequarters
Encoding: 190 190 126
Width: 641
GlyphClass: 2
Flags: MW
HStem: 114.614 47.3975 252.688 47.3936 322.529 47.3975<154.584 208.915 154.584 217.543> 449.09 47.0498<212.939 218.802> 575.603 47.3975<183.489 237.82>
LayerCount: 2
Back
Fore
SplineSet
593.520507812 587.331054688 m 2
 151.6875 25.2880859375 l 2
 138.48828125 8.4970703125 110.758789062 -5 88.1044921875 -5 c 0
 80.716796875 -5 74.6455078125 -3.5234375 70.19140625 -0.5458984375 c 0
 60.1904296875 6.1416015625 60.8671875 19.16015625 69.9482421875 30.7109375 c 0
 69.9931640625 30.767578125 511.428710938 592.376953125 511.797851562 592.788085938 c 0
 526.303710938 610.516601562 552.822265625 623 575.330078125 623 c 0
 582.706054688 623 588.750976562 621.55078125 593.185546875 618.590820312 c 0
 603.16015625 611.9296875 602.328125 598.954101562 593.520507812 587.331054688 c 2
566.129882812 278.33984375 m 2
 549.732421875 161.6640625 l 1
 586.732421875 161.6640625 l 2
 598.107421875 161.6640625 604.125976562 150.234375 602.42578125 138.138671875 c 0
 600.721679688 126.015625 591.3828125 114.612304688 580.125976562 114.614257812 c 2
 580.125976562 114.614257812 564.0078125 114.595703125 543.102539062 114.583007812 c 1
 528.966796875 14 l 2
 527.368164062 2.625 514.866210938 -5 502.770507812 -5 c 0
 490.646484375 -5 480.331054688 2.7333984375 481.916992188 13.998046875 c 2
 481.916992188 13.998046875 488.373046875 60.0830078125 496.016601562 114.568359375 c 1
 480.673828125 114.5703125 470.322265625 114.6015625 469.98046875 114.614257812 c 0
 422.965820312 114.608398438 401.869140625 114.19921875 326.545898438 114.5078125 c 2
 326.006835938 114.509765625 l 1
 325.49609375 114.626953125 l 2
 321.57421875 115.529296875 318.4296875 116.760742188 315.9921875 118.598632812 c 0
 302.438476562 128.815429688 320.026367188 146.779296875 331.100585938 160.177734375 c 0
 392.668945312 234.676757812 446.950195312 297.90234375 495.961914062 300.081054688 c 0
 511.478515625 300.770507812 523.498046875 300.447265625 532.866210938 299.473632812 c 0
 565.732421875 296.059570312 567.401367188 283.37109375 566.129882812 278.33984375 c 2
515.471679688 252.9453125 m 1
 507.073242188 252.904296875 500.21875 252.829101562 489.590820312 252.6875 c 0
 472.291015625 252.459960938 446.329101562 231.904296875 389.950195312 163.77734375 c 1
 398.936523438 161.44921875 426.993164062 162.01171875 476.7734375 162.01171875 c 2
 476.7734375 162.01171875 481.709960938 162.017578125 502.676757812 162.020507812 c 1
 507.916992188 199.33203125 512.424804688 231.282226562 515.471679688 252.9453125 c 1
60.802734375 496.139648438 m 2
 219.874023438 496.139648438 l 2
 231.428710938 496.139648438 237.178710938 484.076171875 235.498046875 472.115234375 c 0
 233.774414062 459.852539062 224.33984375 449.08984375 213.264648438 449.08984375 c 0
 212.61328125 449.08984375 55.80078125 449.006835938 52.865234375 449.151367188 c 0
 42.67578125 449.9140625 36.9208984375 460.892578125 38.568359375 472.615234375 c 0
 40.2822265625 484.814453125 49.5888671875 495.822265625 60.802734375 496.139648438 c 2
120.92578125 622.639648438 m 2
 120.92578125 622.639648438 137.262695312 623 218.030273438 623 c 0
 301.513671875 623 359.861328125 555.623046875 348.215820312 472.764648438 c 0
 336.571289062 389.90625 259.28515625 322.529296875 175.801757812 322.529296875 c 0
 95.0341796875 322.529296875 78.798828125 322.889648438 78.798828125 322.889648438 c 2
 67.5224609375 322.889648438 61.458984375 334.319335938 63.1591796875 346.4140625 c 0
 64.859375 358.510742188 74.0888671875 369.939453125 85.466796875 369.939453125 c 2
 85.466796875 369.939453125 126.705078125 369.926757812 182.463867188 369.926757812 c 0
 235.365234375 369.926757812 289.01171875 416.05859375 296.98046875 472.764648438 c 0
 304.950195312 529.470703125 264.270507812 575.602539062 211.369140625 575.602539062 c 0
 155.609375 575.602539062 114.370117188 575.58984375 114.3671875 575.58984375 c 0
 102.9921875 575.58984375 96.9736328125 587.018554688 98.673828125 599.115234375 c 0
 100.374023438 611.209960938 109.549804688 622.639648438 120.92578125 622.639648438 c 2
EndSplineSet
EndChar

StartChar: questiondown
Encoding: 191 191 127
Width: 571
GlyphClass: 2
Flags: MW
HStem: -5 74.3242<234.015 322.063 234.015 333.121> 212.942 73.8018<316.264 316.264 316.264 350.608> 496.041 89.5498<382.351 394.27>
LayerCount: 2
Back
Fore
SplineSet
316.263671875 286.744140625 m 1
 338.872070312 447.60546875 l 2
 341.229492188 464.379882812 360.204101562 476.685546875 379.822265625 476.685546875 c 0
 399.469726562 476.685546875 414.9296875 464.196289062 412.59765625 447.610351562 c 0
 412.591796875 447.568359375 384.864257812 250.018554688 384.803710938 249.75 c 0
 381.28515625 228.481445312 367.040039062 213.407226562 350.608398438 212.942382812 c 2
 128.524414062 212.942382812 l 1
 144.700195312 130.162109375 193.919921875 69.32421875 274.109375 69.32421875 c 0
 370.017578125 69.32421875 506.310546875 69.345703125 506.3125 69.345703125 c 0
 523.087890625 69.345703125 532.96875 52.1015625 530.211914062 32.4833984375 c 0
 527.454101562 12.8642578125 512.713867188 -4.3798828125 495.967773438 -4.3798828125 c 2
 495.967773438 -4.3798828125 402.579101562 -5 263.663085938 -5 c 0
 122.040039062 -5 23.091796875 109.298828125 42.837890625 249.805664062 c 0
 45.599609375 269.453125 60.5078125 286.668945312 77.095703125 286.66796875 c 2
 77.095703125 286.66796875 236.5390625 286.767578125 316.263671875 286.744140625 c 1
430.900390625 540.81640625 m 0
 427.538085938 516.889648438 406.557617188 496.041015625 381.982421875 496.041015625 c 0
 357.549804688 496.041015625 341.186523438 516.702148438 344.575195312 540.81640625 c 0
 347.96484375 564.934570312 370.1328125 585.590820312 394.568359375 585.590820312 c 0
 419.1328125 585.590820312 434.262695312 564.739257812 430.900390625 540.81640625 c 0
EndSplineSet
EndChar

StartChar: Agrave
Encoding: 192 192 128
Width: 730
GlyphClass: 2
Flags: MW
HStem: 0 92.4707<273.95 369.519> 492.729 92.4707<330.203 456.052> 656 102.5<384.533 427.883>
VStem: 357.449 103.34
LayerCount: 2
Back
Fore
SplineSet
680.7578125 292.580078125 m 2
 641.262695312 15.185546875 l 2
 639.209960938 0.57421875 612.061523438 -1.28515625 595.107421875 -1.2919921875 c 0
 579.315429688 -1.298828125 555.0546875 0.177734375 557.063476562 14.470703125 c 2
 568.196289062 93.640625 l 1
 502.041992188 35.4912109375 415.158203125 0 323.87890625 0 c 0
 148.260742188 0 26.517578125 130.91015625 49.2412109375 292.599609375 c 0
 71.96484375 454.2890625 230.504882812 585.19921875 406.123046875 585.19921875 c 0
 581.741210938 585.19921875 703.485351562 454.291992188 680.7578125 292.580078125 c 2
393.126953125 492.728515625 m 0
 267.279296875 492.728515625 152.842773438 398.396484375 137.973632812 292.599609375 c 0
 123.104492188 186.801757812 211.025390625 92.470703125 336.875 92.470703125 c 0
 462.72265625 92.470703125 577.159179688 186.801757812 592.028320312 292.599609375 c 0
 606.897460938 398.396484375 518.9765625 492.728515625 393.126953125 492.728515625 c 0
460.7890625 709.7734375 m 1
 473.26171875 688.678710938 494.888671875 657.0390625 493.795898438 637.783203125 c 0
 493.71875 618.723632812 441.396484375 610.19921875 410.275390625 606.047851562 c 2
 385.666992188 602.765625 l 1
 408.1640625 615.25390625 l 2
 433.189453125 629.146484375 449.124023438 632.216796875 442.030273438 659.375976562 c 1
 436.322265625 656.973632812 431.038085938 656 424.728515625 656 c 0
 396.443359375 656 368.92578125 678.596679688 359.95703125 705.13671875 c 0
 357.30078125 712.993164062 356.458984375 720.676757812 357.44921875 727.791992188 c 0
 359.90625 745.462890625 374.1953125 758.5 394.87109375 758.5 c 0
 423.346679688 758.5 451.600585938 735.569335938 460.7890625 709.7734375 c 1
EndSplineSet
EndChar

StartChar: Aacute
Encoding: 193 193 129
Width: 730
GlyphClass: 2
Flags: MW
HStem: 0 92.4707<273.95 369.519> 492.729 92.4707<330.203 456.052> 656 102.5<401.571 466.355>
LayerCount: 2
Back
Fore
SplineSet
680.7578125 292.580078125 m 2
 641.262695312 15.185546875 l 2
 639.209960938 0.57421875 612.061523438 -1.28515625 595.107421875 -1.2919921875 c 0
 579.315429688 -1.298828125 555.0546875 0.177734375 557.063476562 14.470703125 c 2
 568.196289062 93.640625 l 1
 502.041992188 35.4912109375 415.158203125 0 323.87890625 0 c 0
 148.260742188 0 26.517578125 130.91015625 49.2412109375 292.599609375 c 0
 71.96484375 454.2890625 230.504882812 585.19921875 406.123046875 585.19921875 c 0
 581.741210938 585.19921875 703.485351562 454.291992188 680.7578125 292.580078125 c 2
393.126953125 492.728515625 m 0
 267.279296875 492.728515625 152.842773438 398.396484375 137.973632812 292.599609375 c 0
 123.104492188 186.801757812 211.025390625 92.470703125 336.875 92.470703125 c 0
 462.72265625 92.470703125 577.159179688 186.801757812 592.028320312 292.599609375 c 0
 606.897460938 398.396484375 518.9765625 492.728515625 393.126953125 492.728515625 c 0
405.140625 606.047851562 m 2
 375.1796875 610.200195312 325.265625 618.7421875 330.540039062 637.783203125 c 0
 334.817382812 656.852539062 366.842773438 690.357421875 383.78125 709.7734375 c 0
 401.086914062 736.92578125 435.40234375 758.5 463.396484375 758.5 c 0
 469.314453125 758.5 474.505859375 757.483398438 478.836914062 755.484375 c 0
 496.12890625 747.500976562 496.3046875 726.125 483.310546875 705.13671875 c 0
 466.881835938 678.59765625 433.01171875 656 404.725585938 656 c 0
 398.416992188 656 391.688476562 657.794921875 388.373046875 659.375976562 c 0
 373.252929688 631.490234375 389.139648438 628.869140625 409.83984375 615.25390625 c 2
 428.82421875 602.765625 l 1
 405.140625 606.047851562 l 2
EndSplineSet
EndChar

StartChar: Acircumflex
Encoding: 194 194 130
Width: 730
GlyphClass: 2
Flags: MW
HStem: 0 92.4707<273.95 369.519> 492.729 92.4707<330.203 456.052>
LayerCount: 2
Back
Fore
SplineSet
680.7578125 292.580078125 m 2
 641.262695312 15.185546875 l 2
 639.209960938 0.57421875 612.061523438 -1.28515625 595.107421875 -1.2919921875 c 0
 579.315429688 -1.298828125 555.0546875 0.177734375 557.063476562 14.470703125 c 2
 568.196289062 93.640625 l 1
 502.041992188 35.4912109375 415.158203125 0 323.87890625 0 c 0
 148.260742188 0 26.517578125 130.91015625 49.2412109375 292.599609375 c 0
 71.96484375 454.2890625 230.504882812 585.19921875 406.123046875 585.19921875 c 0
 581.741210938 585.19921875 703.485351562 454.291992188 680.7578125 292.580078125 c 2
393.126953125 492.728515625 m 0
 267.279296875 492.728515625 152.842773438 398.396484375 137.973632812 292.599609375 c 0
 123.104492188 186.801757812 211.025390625 92.470703125 336.875 92.470703125 c 0
 462.72265625 92.470703125 577.159179688 186.801757812 592.028320312 292.599609375 c 0
 606.897460938 398.396484375 518.9765625 492.728515625 393.126953125 492.728515625 c 0
384.67578125 740.215820312 m 0
 395.4609375 756.513671875 412.07421875 763.31640625 428.077148438 763.31640625 c 0
 445.170898438 763.31640625 459.634765625 754.234375 464.981445312 740.220703125 c 0
 471.791992188 727.8671875 522.728515625 634.546875 522.728515625 634.546875 c 1
 524.012695312 632.197265625 l 1
 524.40234375 629.47265625 l 2
 525.6953125 620.395507812 522.640625 609.82421875 514.208984375 602.100585938 c 0
 507.873046875 596.299804688 499.606445312 593.31640625 491.715820312 593.31640625 c 0
 474.87890625 593.31640625 464.123046875 605.251953125 460.765625 616.331054688 c 2
 416.90234375 683.807617188 l 1
 354.077148438 616.334960938 l 2
 346.165039062 602.75 332.387695312 593.31640625 316.654296875 593.31640625 c 0
 309.154296875 593.31640625 302.041992188 595.998046875 297.306640625 601.30859375 c 0
 290.40234375 609.046875 290.1484375 620.071289062 294.1328125 629.473632812 c 2
 295.287109375 632.197265625 l 1
 297.23046875 634.545898438 l 1
 297.23046875 634.545898438 376.577148438 730.484375 384.67578125 740.215820312 c 0
EndSplineSet
EndChar

